<svg width="25" height="24" viewBox="0 0 25 24" fill="none" xmlns="http://www.w3.org/2000/svg">
<path d="M4.41707 0.519104C1.97021 0.519104 0 2.39233 0 4.71876V19.3194C0 21.6458 1.97021 23.5191 4.41707 23.5191H12.7402V14.5275H10.2395V11.2903H12.7402V8.52454C12.7402 6.35162 14.2177 4.35651 17.6214 4.35651C18.9995 4.35651 20.0186 4.4823 20.0186 4.4823L19.9384 7.50536C19.9384 7.50536 18.8991 7.49602 17.765 7.49602C16.5376 7.49602 16.3408 8.03372 16.3408 8.92634V11.2903H20.0359L19.8749 14.5275H16.3408V23.5191H19.7736C22.2205 23.5191 24.1907 21.6459 24.1907 19.3195V4.71878C24.1907 2.39236 22.2205 0.519127 19.7736 0.519127L4.41707 0.519104Z" fill="#5469B3"/>
</svg>
