<svg width="23" height="23" viewBox="0 0 23 23" fill="none" xmlns="http://www.w3.org/2000/svg">
<path d="M20.4444 5.27084V2.98149C20.4444 2.59106 20.2492 2.39584 19.8588 2.39584H17.6227C17.2323 2.39584 17.037 2.59106 17.037 2.98149V5.27084C17.037 5.62578 17.2323 5.80325 17.6227 5.80325H19.8588C20.2492 5.80325 20.4444 5.62578 20.4444 5.27084ZM2.82176 20.6042H19.8588C20.2492 20.6042 20.4444 20.409 20.4444 20.0185V10.382H18.0486C18.1196 10.8079 18.1551 11.1806 18.1551 11.5C18.1551 13.3812 17.4896 14.9873 16.1586 16.3183C14.8275 17.6493 13.2215 18.3148 11.3403 18.3148C9.45911 18.3148 7.85301 17.6493 6.52199 16.3183C5.19097 14.9873 4.52546 13.3812 4.52546 11.5C4.52546 11.1096 4.56096 10.7369 4.63194 10.382H2.28935V20.0185C2.28935 20.409 2.46682 20.6042 2.82176 20.6042ZM11.3669 6.97454C10.1069 6.97454 9.03318 7.41822 8.14583 8.30556C7.25849 9.19291 6.81482 10.2577 6.81482 11.5C6.81482 12.7423 7.25849 13.8071 8.14583 14.6945C9.03318 15.5818 10.1069 16.0255 11.3669 16.0255C12.6269 16.0255 13.7006 15.5818 14.588 14.6945C15.4753 13.8071 15.919 12.7423 15.919 11.5C15.919 10.2577 15.4753 9.19291 14.588 8.30556C13.7006 7.41822 12.6269 6.97454 11.3669 6.97454ZM20.4444 0.159729C21.0833 0.159729 21.6246 0.381565 22.0683 0.825238C22.512 1.26891 22.7338 1.79245 22.7338 2.39584V20.6042C22.7338 21.2076 22.512 21.7311 22.0683 22.1748C21.6246 22.6185 21.0833 22.8403 20.4444 22.8403H2.28935C1.65046 22.8403 1.10918 22.6185 0.665509 22.1748C0.221836 21.7311 0 21.2076 0 20.6042V2.39584C0 1.79245 0.221836 1.26891 0.665509 0.825238C1.10918 0.381565 1.65046 0.159729 2.28935 0.159729H20.4444Z" fill="#5469B2"/>
</svg>
