<svg width="24" height="23" viewBox="0 0 24 23" fill="none" xmlns="http://www.w3.org/2000/svg">
<g clip-path="url(#clip0)">
<path d="M24 2.04701V20.999C24 21.551 23.792 22.0263 23.376 22.425C22.96 22.8237 22.464 23.023 21.888 23.023H2.112C1.536 23.023 1.04 22.8237 0.624 22.425C0.208 22.0263 0 21.551 0 20.999V2.04701C0 1.49501 0.208 1.01968 0.624 0.62101C1.04 0.222344 1.536 0.0230103 2.112 0.0230103H21.888C22.464 0.0230103 22.96 0.222344 23.376 0.62101C23.792 1.01968 24 1.49501 24 2.04701ZM16.032 18.423H19.128V12.742C19.128 11.3773 18.8 10.3423 18.144 9.63701C17.488 8.93167 16.632 8.57901 15.576 8.57901C14.824 8.57901 14.188 8.74001 13.668 9.06201C13.148 9.38401 12.76 9.74434 12.504 10.143H12.456L12.312 8.78601H9.648C9.696 10.534 9.72 11.5613 9.72 11.868V18.423H12.792V12.88C12.792 12.558 12.824 12.305 12.888 12.121C13.208 11.3697 13.736 10.994 14.472 10.994C15.512 10.994 16.032 11.6917 16.032 13.087V18.423ZM7.524 5.04851C7.228 4.76484 6.84 4.62301 6.36 4.62301C5.88 4.62301 5.488 4.76484 5.184 5.04851C4.88 5.33218 4.728 5.68867 4.728 6.11801C4.728 6.54734 4.876 6.90384 5.172 7.18751C5.468 7.47117 5.848 7.61301 6.312 7.61301C6.824 7.61301 7.232 7.47501 7.536 7.19901C7.824 6.92301 7.968 6.58567 7.968 6.18701C7.968 5.71168 7.82 5.33218 7.524 5.04851ZM4.8 18.423H7.872V8.78601H4.8V18.423Z" fill="#5469B2"/>
</g>
<defs>
<clipPath id="clip0">
<rect width="24" height="23" fill="white"/>
</clipPath>
</defs>
</svg>
