<svg width="23" height="23" viewBox="0 0 23 23" fill="none" xmlns="http://www.w3.org/2000/svg">
<path d="M12.5116 16.2917C14.3927 16.2917 15.848 15.6705 16.8773 14.4282C17.9066 13.186 18.4213 11.7307 18.4213 10.0625C18.4213 8.21683 17.7292 6.62848 16.3449 5.29746C14.9606 3.96644 13.3013 3.30093 11.3669 3.30093C9.43248 3.30093 7.77315 3.96644 6.38889 5.29746C5.00463 6.62848 4.3125 8.21683 4.3125 10.0625C4.3125 11.2693 4.63194 12.3874 5.27083 13.4167C5.4838 13.8071 5.80324 14.0023 6.22917 14.0023C6.54861 14.0023 6.82369 13.887 7.0544 13.6563C7.28511 13.4255 7.40046 13.1682 7.40046 12.8843C7.40046 12.7068 7.32948 12.5116 7.1875 12.2986C6.79707 11.5887 6.60185 10.8434 6.60185 10.0625C6.60185 8.82022 7.06327 7.76428 7.98611 6.89468C8.90895 6.02508 10.027 5.59029 11.3403 5.59029C12.6536 5.59029 13.7805 6.02508 14.7211 6.89468C15.6617 7.76428 16.1319 8.82022 16.1319 10.0625C16.1319 11.1273 15.8391 12.0413 15.2535 12.8044C14.6678 13.5675 13.7539 13.9491 12.5116 13.9491C12.0856 13.9491 11.7307 13.7982 11.4468 13.4965C11.1628 13.1948 11.0208 12.831 11.0208 12.4051C11.0208 12.0857 11.1894 11.5799 11.5266 10.8877C11.8638 10.1956 12.0324 9.56559 12.0324 8.99769C12.0324 8.00387 11.4823 7.50695 10.3819 7.50695C9.88503 7.50695 9.45023 7.71104 9.07755 8.11922C8.70486 8.5274 8.51852 9.17516 8.51852 10.0625C8.51852 10.3465 8.53627 10.6304 8.57176 10.9144C8.60725 11.1983 8.64275 11.4113 8.67824 11.5532L8.73148 11.713L6.65509 18.0486L6.60185 18.2616V18.4213C6.60185 18.7762 6.71721 19.0779 6.94792 19.3264C7.17863 19.5749 7.47145 19.6991 7.82639 19.6991C8.3233 19.6991 8.67824 19.4861 8.8912 19.0602L8.94444 19.1134L8.99769 18.9005L10.0625 15.2269C10.7369 15.9367 11.5532 16.2917 12.5116 16.2917ZM20.4444 0.159729C21.0833 0.159729 21.6246 0.381565 22.0683 0.825238C22.512 1.26891 22.7338 1.79245 22.7338 2.39584V20.6042C22.7338 21.2076 22.512 21.7311 22.0683 22.1748C21.6246 22.6185 21.0833 22.8403 20.4444 22.8403H2.28935C1.65046 22.8403 1.10918 22.6185 0.665509 22.1748C0.221836 21.7311 0 21.2076 0 20.6042V2.39584C0 1.79245 0.221836 1.26891 0.665509 0.825238C1.10918 0.381565 1.65046 0.159729 2.28935 0.159729H20.4444Z" fill="#5469B2"/>
</svg>
