<svg width="50" height="48" viewBox="0 0 50 48" fill="none" xmlns="http://www.w3.org/2000/svg">
<g clip-path="url(#clip0)">
<path fill-rule="evenodd" clip-rule="evenodd" d="M11.9984 29.7476C12.842 29.8446 13.675 30.0167 14.4873 30.2617C14.4873 30.2617 14.8216 30.2617 14.9331 30.2617L15.6388 30.4821C15.6388 30.4821 15.8989 30.4821 16.0103 30.4821C16.1218 30.4821 16.4189 30.4821 16.5304 30.7759C16.6418 31.0697 16.5304 30.7759 16.5304 30.7759C16.5304 30.7759 16.5304 31.1431 16.3075 31.3268C16.0846 31.5104 16.3075 31.9511 16.6047 32.0613C16.9018 32.1714 17.1247 32.0613 17.3476 31.7675C17.5334 31.7675 17.5334 31.9511 17.5705 32.098C17.6635 32.7436 17.6635 33.3989 17.5705 34.0444C17.347 34.8871 17.347 35.7725 17.5705 36.6152C17.7934 37.5333 17.5705 37.8639 16.5675 37.8639C16.073 37.8263 15.5762 37.8263 15.0816 37.8639C14.8588 37.8639 14.7845 37.8639 14.7845 38.1944V38.9289C14.7867 39.0167 14.7661 39.1037 14.7248 39.1814C14.6834 39.2591 14.6225 39.3251 14.548 39.373C14.4735 39.4208 14.3878 39.449 14.2992 39.4549C14.2105 39.4607 14.1218 39.444 14.0415 39.4063H13.2614C13.2614 39.4063 13.0386 39.4063 13.0014 39.4063C13.0257 39.3758 13.0568 39.3511 13.0922 39.3341C13.1275 39.3171 13.1664 39.3083 13.2057 39.3083C13.2451 39.3083 13.2839 39.3171 13.3193 39.3341C13.3547 39.3511 13.3857 39.3758 13.41 39.4063C13.7072 39.4063 13.7443 39.4063 13.7443 39.1493C13.7257 38.9293 13.7257 38.7082 13.7443 38.4882C13.7118 38.4257 13.6948 38.3565 13.6948 38.2862C13.6948 38.2159 13.7118 38.1467 13.7443 38.0842C14.1901 38.0842 14.5987 38.0842 15.0445 38.0842C15.1473 38.0737 15.2446 38.0332 15.324 37.9678C15.4034 37.9024 15.4613 37.8151 15.4903 37.717C15.5542 37.6251 15.5884 37.5163 15.5884 37.4048C15.5884 37.2933 15.5542 37.1845 15.4903 37.0926C15.3312 36.9172 15.1251 36.7899 14.8959 36.7254C14.7434 36.6985 14.5862 36.7195 14.4463 36.7854C14.3064 36.8512 14.1909 36.9587 14.1158 37.0926C13.9922 37.3903 13.8161 37.6638 13.5958 37.9006C13.4318 38.0287 13.2289 38.0984 13.02 38.0984C12.811 38.0984 12.6082 38.0287 12.4442 37.9006C12.0727 37.717 11.7755 37.3497 11.2926 37.2763C11.0613 37.2668 10.8334 37.3339 10.645 37.4669C10.4566 37.6 10.3185 37.7914 10.2525 38.0108C10.2264 38.0554 10.2127 38.1061 10.2127 38.1577C10.2127 38.2093 10.2264 38.2599 10.2525 38.3046C10.7204 38.6573 11.1555 39.0506 11.5527 39.4798C11.7755 39.7001 11.9613 39.7736 12.2213 39.4798C12.3036 39.4454 12.392 39.4278 12.4813 39.4278C12.5707 39.4278 12.6591 39.4454 12.7414 39.4798C12.7414 39.4798 12.9643 39.4798 12.7414 39.4798C12.5185 39.4798 12.147 39.7001 11.9241 39.9205C11.7013 40.1408 11.6641 39.9205 11.5527 39.9205C11.1336 39.6184 10.7476 39.2738 10.4011 38.8922C10.4011 38.8922 10.1039 38.6718 10.0296 38.8922C9.73246 39.1125 9.54672 39.4798 9.10096 39.4063C8.65519 39.3329 9.10096 39.4063 9.10096 39.1493C8.792 37.8116 8.31791 36.5165 7.68937 35.2931C7.59283 35.1142 7.50603 34.9303 7.42934 34.7422C7.38107 34.5418 7.37597 34.3336 7.41437 34.1312C7.45276 33.9287 7.5338 33.7365 7.65222 33.567C7.75629 33.4541 7.83362 33.3198 7.8786 33.1737C7.92358 33.0276 7.93508 32.8734 7.91225 32.7223C7.84112 32.5328 7.84112 32.3243 7.91225 32.1347C7.91225 32.1347 7.91225 32.1347 7.91225 32.3183C7.89381 32.4892 7.89381 32.6616 7.91225 32.8325C7.91225 33.0896 7.91225 33.1998 8.32087 33.1998H9.65816C9.87718 33.5313 10.1825 33.7983 10.542 33.9728C10.9016 34.1473 11.302 34.2228 11.7013 34.1913H12.2956C12.5755 34.2153 12.8447 34.3087 13.0784 34.4627C13.3122 34.6168 13.5029 34.8266 13.6329 35.0727C13.6329 34.4117 13.6329 33.8241 13.6329 33.2365C13.6329 32.6489 13.6329 32.9794 13.3729 33.2365C12.932 33.4421 12.4486 33.5427 11.9613 33.5303C11.6214 33.499 11.2945 33.3855 11.0094 33.1997C10.7244 33.014 10.4899 32.7617 10.3268 32.4653C10.5435 32.1144 10.6322 31.7008 10.5782 31.2933C10.5241 30.8857 10.3305 30.5087 10.0296 30.225V30.0047C10.67 29.8257 11.3331 29.7391 11.9984 29.7476Z" fill="#CAE2B4"/>
<path fill-rule="evenodd" clip-rule="evenodd" d="M27.1173 43.7033L23.6998 43.4095C22.8082 43.4095 21.9167 43.1891 21.0252 43.0422L19.7622 42.675L18.9821 42.4179C18.9821 42.4179 18.6478 42.4179 18.5363 42.4179C17.7934 41.9037 16.9761 42.1608 16.196 42.1608C16.196 42.1608 16.196 42.1608 16.5304 42.1608H17.459C17.6819 42.1608 17.7934 42.1608 17.8677 41.8303C18.0909 40.8454 18.6087 39.9497 19.3535 39.2595C19.6136 39.0024 19.7622 38.6719 20.0965 38.525C20.1675 38.6117 20.2586 38.6803 20.362 38.7251C20.4654 38.7698 20.5782 38.7893 20.6908 38.7821C20.671 38.7224 20.671 38.6581 20.6908 38.5985C20.6908 38.5985 20.5051 38.5985 20.468 38.3414C20.4308 38.0843 20.728 38.3414 20.8766 38.0108C21.2145 37.6597 21.502 37.2642 21.731 36.8356V36.5786C21.731 36.248 22.0653 36.2113 22.3253 36.5786C22.7903 36.7371 23.2861 36.7874 23.7741 36.7255C23.8494 36.7613 23.9319 36.7799 24.0155 36.7799C24.0991 36.7799 24.1816 36.7613 24.257 36.7255H24.7399C25.1944 37.0951 25.6056 37.5139 25.9657 37.9741C26.4517 38.549 26.7951 39.228 26.9687 39.9573C27.0259 40.1591 27.1005 40.3557 27.1916 40.5449C27.5259 40.7652 27.7488 41.0958 28.0831 41.3161C28.6691 41.7732 29.2045 42.2902 29.6804 42.8586C29.759 42.9653 29.8013 43.0939 29.8013 43.2258C29.8013 43.3578 29.759 43.4864 29.6804 43.5931C29.6382 43.708 29.5531 43.8025 29.4425 43.8571C29.3319 43.9118 29.2044 43.9224 29.0861 43.8869C28.4359 43.7735 27.7775 43.7121 27.1173 43.7033Z" fill="#D3E6BE"/>
<path fill-rule="evenodd" clip-rule="evenodd" d="M44.5765 24.6796C44.5765 25.3773 44.5765 25.3773 45.0223 25.7813C45.468 26.1853 45.5795 26.1486 45.8767 25.561C46.0319 25.2742 46.2325 25.0138 46.471 24.7897C46.471 24.7897 46.7682 24.7897 46.9168 24.7897C47.2333 25.1954 47.4955 25.6398 47.6969 26.1119C47.7879 26.2815 47.8356 26.4707 47.8356 26.6627C47.8356 26.8548 47.7879 27.0439 47.6969 27.2136C47.6401 27.3678 47.6401 27.5368 47.6969 27.691C47.5479 28.2161 47.3359 28.7216 47.0654 29.1968C46.7508 29.7946 46.3775 30.3605 45.951 30.8861C45.1967 31.8101 44.293 32.6043 43.2764 33.2366C43.2764 33.2366 42.9049 33.2366 42.7563 33.5304L42.3105 33.714C41.8064 33.5422 41.3211 33.3208 40.8618 33.0529L39.9331 32.0614C39.7685 31.9285 39.5792 31.8287 39.3759 31.7675C39.2423 31.7054 39.0964 31.6731 38.9487 31.6731C38.801 31.6731 38.6552 31.7054 38.5215 31.7675H38.1129C38.0484 31.77 37.9843 31.7573 37.9258 31.7305C37.8672 31.7037 37.8159 31.6636 37.776 31.6135C37.7362 31.5633 37.7089 31.5045 37.6964 31.4419C37.684 31.3794 37.6867 31.3148 37.7043 31.2534C37.7436 31.0748 37.8061 30.902 37.89 30.7392C38.3358 29.968 38.9301 29.2335 39.4502 28.499C39.9703 27.7645 39.9331 28.0583 40.0817 27.7645C40.1156 27.7452 40.154 27.735 40.1931 27.735C40.2323 27.735 40.2707 27.7452 40.3046 27.7645C40.3046 27.7645 40.3046 27.7645 40.3046 28.0216C40.2681 28.5351 40.2681 29.0505 40.3046 29.564C40.2492 29.8923 40.2492 30.2274 40.3046 30.5556C40.3728 30.8015 40.5045 31.0256 40.6869 31.2059C40.8693 31.3862 41.096 31.5165 41.3447 31.5839C42.1844 31.923 43.0552 32.1813 43.945 32.3552C43.7855 31.9151 43.6735 31.4596 43.6107 30.9963C43.5546 30.6312 43.5546 30.2597 43.6107 29.8946C43.5295 29.7557 43.4941 29.5952 43.5095 29.4354C43.5249 29.2757 43.5903 29.1247 43.6965 29.0035C43.8028 28.8822 43.9447 28.7968 44.1024 28.759C44.2602 28.7212 44.4259 28.7331 44.5765 28.7928H44.948C45.0464 28.7617 45.1366 28.7096 45.2124 28.6403C45.2882 28.5709 45.3477 28.486 45.3867 28.3914C45.4257 28.2969 45.4432 28.195 45.438 28.093C45.4328 27.991 45.405 27.8914 45.3566 27.8012C45.1528 27.3955 44.9036 27.0136 44.6137 26.6627C44.4198 26.2831 44.2941 25.873 44.2422 25.4508C44.1988 25.3807 44.173 25.3014 44.167 25.2194C44.161 25.1375 44.1749 25.0553 44.2077 24.9797C44.2404 24.9042 44.291 24.8375 44.3552 24.7853C44.4193 24.7331 44.4952 24.6968 44.5765 24.6796Z" fill="#DCEAC7"/>
<path fill-rule="evenodd" clip-rule="evenodd" d="M8.13527 32.0979C8.10832 32.4165 8.12079 32.7372 8.17242 33.0528C8.1663 33.2063 8.09962 33.3513 7.98668 33.4568C7.76898 33.7565 7.65188 34.1161 7.65188 34.4851C7.65188 34.854 7.76898 35.2137 7.98668 35.5134C8.48633 36.5556 8.93265 37.622 9.32398 38.7085C9.34465 38.9529 9.34465 39.1986 9.32398 39.443C9.32398 39.443 9.32398 39.6633 9.50971 39.7368C9.69545 39.8102 10.1041 39.4063 10.3641 39.1492C10.3641 39.1492 10.3641 39.1492 10.3641 38.9288C10.3641 38.7085 10.3641 38.9288 10.587 38.9288C11.0578 39.3453 11.4927 39.7998 11.8871 40.2877C11.7014 40.5448 11.4042 40.2877 11.1813 40.2877H10.587C10.3291 40.2537 10.0783 40.1793 9.84404 40.0673C9.54852 39.8856 9.22077 39.7609 8.87821 39.7001C8.54389 39.7001 8.35815 39.3695 8.24671 39.0757C8.1202 38.7382 7.93125 38.4268 7.68951 38.1576C7.40806 37.821 7.19377 37.4347 7.05801 37.0191C6.7034 36.0487 6.25559 35.114 5.72071 34.228C5.22422 33.4545 4.533 32.8217 3.71477 32.3917C3.19471 32.1347 3.19471 32.0979 3.45474 31.5838C3.64199 31.2081 3.86593 30.8514 4.12339 30.5187C4.34467 30.2338 4.64561 30.0194 4.98895 29.9019C5.33229 29.7844 5.70295 29.769 6.05503 29.8577C6.16344 29.8941 6.28095 29.8941 6.38936 29.8577C7.02056 29.5007 7.74386 29.3347 8.4696 29.3803H9.43542C9.68564 29.5461 9.96173 29.6702 10.2527 29.7475C10.0436 29.7126 9.83017 29.7126 9.62116 29.7475H8.65533C8.28386 29.7475 8.24671 29.7475 8.24671 30.2249V31.4002C8.24671 31.4002 8.20957 32.0245 8.13527 32.0979Z" fill="#D4E6C2"/>
<path fill-rule="evenodd" clip-rule="evenodd" d="M40.4904 37.1662L40.2304 37.4232L39.7475 37.9007C39.2935 38.2462 38.9567 38.7202 38.7816 39.2595C38.663 39.6301 38.4559 39.967 38.1779 40.2418C37.8999 40.5167 37.5591 40.7214 37.1843 40.8387C37.1843 40.5449 37.1843 40.5082 37.4815 40.4347C37.9585 40.167 38.3361 39.7551 38.5588 39.2595C38.5975 39.2285 38.6288 39.1894 38.6503 39.1449C38.6718 39.1004 38.683 39.0517 38.683 39.0024C38.683 38.9531 38.6718 38.9045 38.6503 38.86C38.6288 38.8155 38.5975 38.7763 38.5588 38.7454C38.2104 38.5141 37.9442 38.1806 37.7976 37.7919C37.651 37.4032 37.6314 36.9789 37.7415 36.5786C37.8247 36.3209 37.8304 36.0449 37.7579 35.7841C37.6853 35.5233 37.5377 35.2889 37.3329 35.1095C36.8871 35.1095 36.5157 34.779 36.0699 34.7056C35.6086 34.5222 35.2272 34.1842 34.9926 33.7507C34.5304 33.1934 34.0071 32.6884 33.4325 32.245C33.0981 31.9144 33.0981 31.9144 32.8381 32.245C32.5781 32.5755 32.8381 32.245 32.6524 32.245C32.4666 32.245 32.6524 32.245 32.6524 32.245C32.6771 31.9913 32.7962 31.7557 32.9867 31.5839C33.1858 31.4465 33.3405 31.2552 33.4325 31.033C33.4325 30.4454 33.8782 30.1884 34.324 29.9313C34.6966 30.3975 35.1493 30.7953 35.6613 31.1065C35.6613 31.1065 35.6613 31.3268 35.8842 31.437C36.0558 32.0132 36.3191 32.5587 36.6643 33.0529C37.2587 33.6647 38.0726 34.0208 38.9302 34.0445C39.3729 34.1178 39.8248 34.1178 40.2675 34.0445C40.3194 34.0187 40.3766 34.0052 40.4347 34.0052C40.4928 34.0052 40.55 34.0187 40.6019 34.0445C40.6585 34.2113 40.6585 34.3919 40.6019 34.5587C40.5879 34.6684 40.5879 34.7795 40.6019 34.8892C40.2905 35.4061 39.8033 35.7966 39.2274 35.991C38.7074 36.1746 38.6702 36.652 39.2274 37.056C39.6158 37.1662 40.0277 37.1662 40.4161 37.056C40.6028 36.9393 40.7664 36.7899 40.899 36.6153C41.403 36.3043 41.7733 35.8205 41.9392 35.2564C41.9392 35.2564 41.9392 35.0728 42.1249 35.2564C42.1287 35.6783 41.9692 36.0856 41.6791 36.3949C41.3292 36.7159 40.9274 36.9765 40.4904 37.1662Z" fill="#DAEAC3"/>
<path fill-rule="evenodd" clip-rule="evenodd" d="M27.1174 43.7032C27.6436 43.5886 28.1886 43.5886 28.7148 43.7032H29.1977C29.2811 43.7469 29.3763 43.7634 29.4698 43.7502C29.5633 43.737 29.6501 43.6948 29.7177 43.6297C29.7963 43.5371 29.8394 43.4201 29.8394 43.2992C29.8394 43.1783 29.7963 43.0613 29.7177 42.9687L28.1575 41.3895C28.2979 41.4824 28.4557 41.5465 28.6216 41.578C28.7875 41.6096 28.9581 41.6079 29.1234 41.5731C29.3463 41.5731 29.4206 41.5731 29.3834 41.2793C29.3592 40.1804 29.4715 39.0826 29.7177 38.0107C29.8546 37.5253 29.889 37.0172 29.8187 36.5181C29.7484 36.0189 29.5749 35.5394 29.3091 35.1094C29.1034 34.8384 28.8666 34.5919 28.6033 34.3749C28.4837 34.2563 28.3834 34.12 28.3061 33.9709C28.3061 33.9709 28.529 33.9709 28.5662 33.9709L29.4577 34.8156C29.7087 35.2597 30.0502 35.6474 30.4607 35.9541C30.5861 36.0522 30.6903 36.1743 30.7669 36.3132C30.8435 36.452 30.8909 36.6047 30.9064 36.7621C30.9064 36.7621 30.9064 37.1293 31.0922 37.2762C31.3623 37.5691 31.541 37.9329 31.6069 38.3238C31.6728 38.7147 31.6231 39.1161 31.4636 39.4797V40.0674C31.3155 40.6707 31.3155 41.3003 31.4636 41.9036C31.412 42.0712 31.412 42.2502 31.4636 42.4178C31.6373 42.7608 31.9262 43.0335 32.2809 43.189L33.9154 44.8416C34.1382 45.0987 33.9154 45.3558 33.9154 45.6129C33.8588 46.0887 33.8588 46.5694 33.9154 47.0452C33.6134 46.7167 33.363 46.3453 33.1724 45.9434C32.6895 45.2823 32.2809 44.5478 31.7237 43.9235C31.1803 43.345 30.4863 42.9257 29.7177 42.7116C29.7177 44.0704 29.7177 44.0704 29.0862 44.0704L27.266 43.8501L27.1174 43.7032Z" fill="#ECF5E2"/>
<path fill-rule="evenodd" clip-rule="evenodd" d="M35.5126 34.5587C35.847 34.5587 36.107 34.7423 36.4413 34.8157C37.4814 35.0361 37.5557 35.9542 37.4071 36.652C37.3225 36.9969 37.3368 37.3583 37.4483 37.6956C37.5599 38.0329 37.7643 38.3328 38.0386 38.5617C38.633 39.0024 38.6701 39.3329 38.0386 39.8838C37.7795 40.2095 37.4493 40.4731 37.0728 40.6551C37.0035 40.6704 36.941 40.7071 36.8942 40.76C36.8475 40.8128 36.819 40.8789 36.8128 40.9489C36.3707 41.1706 35.9483 41.4286 35.5498 41.7201C35.5338 41.5736 35.5338 41.4259 35.5498 41.2794C35.5326 41.166 35.4859 41.059 35.4143 40.9689C35.3426 40.8787 35.2485 40.8086 35.1412 40.7652L34.2496 40.398C34.0081 40.2657 33.8227 40.0519 33.7273 39.7958C33.6318 39.5396 33.6326 39.258 33.7296 39.0024C33.8798 38.5445 34.1196 38.1202 34.4354 37.7538C35.0086 37.1026 35.4613 36.3567 35.7727 35.5502C35.7855 35.4527 35.7855 35.354 35.7727 35.2564C35.7727 35.0361 35.7727 34.8892 35.5869 34.8157C35.4012 34.7423 35.4755 34.6688 35.5126 34.5587Z" fill="#D5E6BF"/>
<path fill-rule="evenodd" clip-rule="evenodd" d="M40.416 34.5953C40.416 34.3749 40.416 34.228 40.416 34.0076C39.7661 34.1363 39.097 34.1363 38.4472 34.0076C37.701 33.9173 37.0074 33.5809 36.4784 33.0528C36.1145 32.6324 35.8369 32.1459 35.6611 31.6205C35.6611 31.6205 35.6611 31.4002 35.6611 31.3267C35.9148 30.9474 36.2433 30.6226 36.627 30.3718C37.0733 30.2261 37.5551 30.2261 38.0014 30.3718C38.3357 30.3718 38.0014 30.6289 38.0014 30.8126C37.8927 30.9722 37.8054 31.145 37.7414 31.3267C37.7414 31.6572 37.7414 31.8409 38.1871 31.8409C38.6329 31.8409 39.0415 31.8409 39.4501 31.8409C39.9562 32.0665 40.3921 32.4214 40.7131 32.8692C41.0475 33.2364 41.4561 33.5669 41.7904 33.9342C41.8862 34.0104 41.9734 34.0966 42.0504 34.1913C42.0504 34.1913 42.0504 34.5218 42.0504 34.7054C42.0637 34.8029 42.0637 34.9017 42.0504 34.9992C42.0504 34.9992 42.0504 34.9992 42.0504 34.7422C42.0685 34.6574 42.0685 34.5698 42.0504 34.4851C42.0488 34.3535 42.0096 34.2251 41.9373 34.1146C41.865 34.0041 41.7625 33.9161 41.6418 33.8607C41.4561 33.8607 41.3446 33.8607 41.2332 33.8607C41.1218 33.8607 40.8617 34.228 41.0103 34.5218C41.1367 34.8405 41.1367 35.1947 41.0103 35.5134C41.0582 35.6389 41.1344 35.7519 41.2332 35.8439C41.2332 35.8439 41.2332 36.0643 41.2332 36.1744C41.2332 36.2846 40.9732 36.6519 40.7131 36.505H40.5274C40.4756 36.4791 40.4183 36.4657 40.3602 36.4657C40.3022 36.4657 40.2449 36.4791 40.1931 36.505V36.7253C40.1931 36.7253 40.3788 36.7253 40.4903 36.7253C40.6017 36.7253 40.7874 36.7253 40.8246 36.7253C40.8617 36.7253 40.5645 37.0191 40.3788 37.1293C39.9463 37.1669 39.5112 37.1669 39.0787 37.1293C38.8558 37.1293 38.6329 36.7988 38.7072 36.505C38.7412 36.3659 38.8156 36.2397 38.9212 36.1418C39.0268 36.0439 39.159 35.9787 39.3015 35.9541C39.7176 35.8232 40.0815 35.5663 40.3417 35.2196C40.3417 35.2196 40.3417 34.9258 40.5274 34.7789C40.5274 34.7789 40.3788 34.7422 40.416 34.5953Z" fill="#CFE4BC"/>
<path fill-rule="evenodd" clip-rule="evenodd" d="M8.46953 29.3804C8.24665 29.3804 7.94947 29.3804 7.68944 29.3804C7.24781 29.4973 6.82331 29.6701 6.42644 29.8946H6.16641C5.75972 29.7689 5.32135 29.7883 4.92765 29.9494C4.53395 30.1105 4.20988 30.403 4.01188 30.776L3.7147 31.4737C3.44377 31.8633 3.19572 32.268 2.97176 32.6857C2.26596 31.841 1.37443 31.1799 0.705785 30.2985C0.371589 29.9086 0.147491 29.4384 0.0561684 28.9354C-0.035154 28.4324 0.00953936 27.9144 0.185726 27.434C0.185726 26.9198 0.705785 26.8463 1.07726 27.2136C1.50174 27.6856 2.00416 28.083 2.56314 28.3888L3.26894 28.6459C3.26894 28.6459 3.60326 28.6459 3.7147 28.6459C4.0421 28.7656 4.37716 28.8637 4.71767 28.9397L5.49776 29.3804C5.74605 29.5415 6.03657 29.6274 6.33357 29.6274C6.63057 29.6274 6.9211 29.5415 7.16938 29.3804C7.37398 29.2903 7.59547 29.2437 7.81946 29.2437C8.04344 29.2437 8.26493 29.2903 8.46953 29.3804Z" fill="#EEF4DA"/>
<path fill-rule="evenodd" clip-rule="evenodd" d="M30.535 14.4698C30.4184 15.0724 30.2443 15.6626 30.0149 16.2326C29.9691 16.324 29.9452 16.4245 29.9452 16.5265C29.9452 16.6284 29.9691 16.7289 30.0149 16.8203C30.2133 17.1575 30.3752 17.5145 30.4978 17.8853C30.4314 18.2173 30.3189 18.5386 30.1635 18.8401C29.9406 19.2809 29.7549 19.7583 29.5691 20.199C29.5291 20.3087 29.4498 20.4002 29.3463 20.4561C29.3463 20.4561 29.0491 20.4561 28.9376 20.4561C28.8262 20.4561 27.8604 19.4278 27.3403 18.8769C27.2971 18.8113 27.2742 18.7348 27.2742 18.6565C27.2742 18.5783 27.2971 18.5017 27.3403 18.4362C27.3403 18.1791 27.6746 18.0689 27.8232 17.8853C28.0369 17.606 28.1789 17.2797 28.2371 16.9344C28.2953 16.589 28.268 16.2348 28.1575 15.9021C28.1575 15.3512 27.7861 14.8738 27.6003 14.3597C27.4146 13.8455 27.3032 13.3681 28.1947 13.0008C28.4176 13.0008 28.4919 12.5601 28.6776 12.3765C28.8718 12.3433 29.0714 12.3635 29.2548 12.4347C29.4382 12.5059 29.5983 12.6255 29.7177 12.7805C29.643 13.2539 29.4925 13.7126 29.272 14.1393C29.1072 14.458 29.0183 14.8097 29.0119 15.1676C29.0147 15.5089 29.1473 15.8367 29.3834 16.0857C29.3834 16.0857 29.3834 16.0857 29.5691 15.8654C29.7549 15.645 29.8292 15.0207 29.9406 14.58C30.052 14.1393 30.3492 14.4698 30.535 14.4698Z" fill="#D3E4B9"/>
<path fill-rule="evenodd" clip-rule="evenodd" d="M20.5422 2.01997C20.8699 1.36109 21.2956 0.754499 21.8052 0.220431C21.9568 0.112817 22.1387 0.0549316 22.3253 0.0549316C22.5119 0.0549316 22.6938 0.112817 22.8454 0.220431C23.4367 0.608241 23.9319 1.12293 24.2941 1.72617C25.1485 2.86465 26.0772 4.00314 27.0058 5.14162L28.7146 7.23497C28.605 7.32964 28.4792 7.40425 28.3431 7.45532C28.046 7.45532 27.9345 7.19824 27.7116 7.05134C27.4887 6.90444 26.5601 6.13321 26.0029 5.5456C25.8631 5.43655 25.749 5.29869 25.6685 5.14162C25.6807 5.05636 25.6807 4.96982 25.6685 4.88455C25.1838 4.52468 24.7359 4.11877 24.3312 3.67261C24.0798 3.388 23.7776 3.15148 23.4397 2.97483C23.4397 2.97483 23.4397 2.97483 23.2168 2.97483V3.19518V3.41553C23.2801 3.4937 23.3146 3.59084 23.3146 3.69097C23.3146 3.7911 23.2801 3.88825 23.2168 3.96641C23.1165 4.02828 23.0007 4.06108 22.8825 4.06108C22.7643 4.06108 22.6485 4.02828 22.5482 3.96641C22.446 3.858 22.3862 3.7172 22.3794 3.56919C22.3726 3.42117 22.4192 3.27558 22.511 3.15846C22.511 2.86465 22.511 2.82793 22.511 2.75448C22.511 2.68103 21.9538 2.75448 21.6938 2.75448C21.4572 2.72951 21.2297 2.65006 21.0297 2.52251C20.8298 2.39495 20.6628 2.22284 20.5422 2.01997Z" fill="#F3F7DC"/>
<path fill-rule="evenodd" clip-rule="evenodd" d="M49.22 22.5495C49.22 22.9167 49.22 23.284 49.22 23.688C49.1815 24.0374 49.1068 24.3819 48.9971 24.7163C48.9971 24.7163 48.9971 24.7163 48.7371 24.7163C48.3877 24.7439 48.0367 24.6883 47.7135 24.5541C47.3903 24.4199 47.1044 24.2111 46.8798 23.945C46.7687 23.7655 46.695 23.5657 46.6631 23.3576C46.6312 23.1495 46.6417 22.9372 46.694 22.7331C46.694 22.2924 46.9912 21.9251 47.0655 21.5212C47.1028 21.1966 47.069 20.8679 46.9664 20.5574C46.8639 20.2469 46.695 19.9619 46.4711 19.7216C46.3864 19.6036 46.3408 19.4624 46.3408 19.3176C46.3408 19.1729 46.3864 19.0317 46.4711 18.9137C46.5126 18.7716 46.6009 18.6474 46.7221 18.5609C46.8433 18.4743 46.9904 18.4305 47.1398 18.4362C47.4741 18.4362 47.8456 18.4362 48.1428 18.4362C48.4399 18.4362 48.4399 18.6566 48.4399 18.8402C48.5214 19.4624 48.6967 20.069 48.96 20.6398C49.1089 21.2665 49.196 21.9061 49.22 22.5495Z" fill="#DEEDCD"/>
<path fill-rule="evenodd" clip-rule="evenodd" d="M25.4458 25.0468C25.3119 24.9071 25.2329 24.7248 25.2229 24.5326C25.2229 24.0919 25.2229 23.9818 25.5572 23.7981C25.8915 23.6145 26.1144 24.2388 26.3373 24.4592C26.43 24.5803 26.5583 24.67 26.7046 24.7161C26.851 24.7621 27.0082 24.7622 27.1545 24.7163C27.7793 24.5875 28.4243 24.5875 29.0491 24.7163C29.3003 24.8671 29.5033 25.085 29.6347 25.3449C29.7662 25.6048 29.8207 25.8961 29.792 26.1853V27.287C29.4205 27.287 29.2719 27.287 29.0862 27.691C28.9188 27.8808 28.7321 28.0531 28.529 28.2052C28.1575 28.2052 28.0089 27.7277 27.7118 27.5441C27.4146 27.3605 27.7118 27.5441 27.7118 27.3238C27.7118 27.1034 26.9317 26.5893 26.5602 26.222C26.451 26.1092 26.3741 25.9698 26.3373 25.818C26.003 25.7078 25.7058 25.3773 25.4458 25.0468Z" fill="#C8DFB2"/>
<path d="M29.2405 24.5074C29.125 24.5126 29.0981 24.4962 29.0776 24.4452C29.0742 24.445 29.0709 24.445 29.0675 24.445C29.0079 24.445 28.9497 24.4627 28.9004 24.4959C28.7146 24.4959 28.4175 24.7162 28.4175 24.4959V24.2755C28.457 24.253 28.5018 24.2411 28.5475 24.2411C28.5931 24.2411 28.638 24.253 28.6775 24.2755C28.7889 24.2755 28.9004 24.0552 29.0118 24.2755C29.0512 24.3534 29.0627 24.4083 29.0776 24.4452C29.1337 24.447 29.1882 24.4646 29.2347 24.4959C29.2367 24.4997 29.2386 24.5035 29.2405 24.5074C29.2725 24.5724 29.2892 24.6438 29.2892 24.7162C29.2892 24.7929 29.2705 24.8685 29.2347 24.9366H28.9004C28.5182 24.7891 28.0939 24.7891 27.7117 24.9366H26.8944V24.4959C26.8944 24.349 26.8944 23.8716 26.4487 23.7614C26.0029 23.6512 26.0029 23.5043 26.0029 23.2472C26.3372 23.2472 26.7458 23.2472 27.0059 23.4676C27.074 23.56 27.163 23.6355 27.2659 23.6879C27.3703 23.7682 27.4457 23.8306 27.4888 23.8896V23.8348L27.786 23.6145C28.0548 23.4171 28.3565 23.268 28.6775 23.1738H28.9004C28.9546 23.2809 29.0496 23.3624 29.1645 23.4003C29.2795 23.4381 29.4049 23.4293 29.5133 23.3758C29.6217 23.3222 29.7041 23.2282 29.7424 23.1146C29.7807 23.001 29.7718 22.8769 29.7176 22.7698C29.7176 22.7698 29.9776 22.5127 30.1262 22.7698C30.2748 23.0269 30.1262 22.9901 30.1262 23.1003C30.1262 23.2105 30.1262 23.4308 29.7548 23.3941H29.7176C29.9155 23.4587 30.1305 23.4496 30.322 23.3684C30.5136 23.2873 30.6686 23.1397 30.7577 22.9534C30.6845 23.0131 30.5926 23.0458 30.4977 23.0458C30.4028 23.0458 30.3109 23.0131 30.2377 22.9534V22.5494C30.2377 22.4393 30.2377 22.5494 30.4605 22.3291C30.6834 22.1087 30.4605 22.072 30.4605 22.1087C30.4605 22.1455 29.8662 21.8884 29.569 21.7415C29.2944 21.6057 29.5274 22.0346 29.3883 22.1004C29.3769 22.1058 29.363 22.1087 29.3461 22.1087L29.3883 22.1004C29.5274 22.0346 29.2944 21.6057 29.569 21.7415C29.8662 21.8884 30.4605 22.1455 30.4605 22.1087C30.4605 22.072 30.6834 22.1087 30.4605 22.3291C30.2377 22.5494 30.2377 22.4393 30.2377 22.5494V22.9534C30.3109 23.0131 30.4028 23.0458 30.4977 23.0458C30.5926 23.0458 30.6845 23.0131 30.7577 22.9534C30.6686 23.1397 30.5136 23.2873 30.322 23.3684C30.1305 23.4496 29.9155 23.4587 29.7176 23.3941H29.7548C30.1262 23.4308 30.1262 23.2105 30.1262 23.1003C30.1262 22.9901 30.2748 23.0269 30.1262 22.7698C29.9776 22.5127 29.7176 22.7698 29.7176 22.7698C29.7718 22.8769 29.7807 23.001 29.7424 23.1146C29.7041 23.2282 29.6217 23.3222 29.5133 23.3758C29.4049 23.4293 29.2795 23.4381 29.1645 23.4003C29.0496 23.3624 28.9546 23.2809 28.9004 23.1738H28.6775C28.3565 23.268 28.0548 23.4171 27.786 23.6145L27.4888 23.8348V23.8896C27.5436 23.9647 27.5459 24.0344 27.4888 24.1285V24.1286L27.5774 24.19C27.622 24.1818 27.7051 24.2323 27.8603 24.3857L27.5774 24.19C27.5259 24.1994 27.5259 24.2873 27.5259 24.3857C27.4912 24.4194 27.4445 24.4382 27.3959 24.4382C27.3473 24.4382 27.3006 24.4194 27.2659 24.3857C27.3737 24.2791 27.4471 24.1973 27.4888 24.1285V23.8896C27.4457 23.8306 27.3703 23.7682 27.2659 23.6879C27.163 23.6355 27.074 23.56 27.0059 23.4676C26.7458 23.2472 26.3372 23.2472 26.0029 23.2472C26.0029 23.5043 26.0029 23.6512 26.4487 23.7614C26.8944 23.8716 26.8944 24.349 26.8944 24.4959V24.9366H27.7117C28.0939 24.7891 28.5182 24.7891 28.9004 24.9366H29.2347C29.2705 24.8685 29.2892 24.7929 29.2892 24.7162C29.2892 24.6438 29.2725 24.5724 29.2405 24.5074Z" fill="#D3E4B9"/>
<path fill-rule="evenodd" clip-rule="evenodd" d="M34.361 45.9803C34.5839 45.4294 34.361 45.1356 33.8781 44.805C33.4854 44.4969 33.1356 44.1388 32.8379 43.74C32.8379 43.74 32.5779 43.74 32.5408 43.5564C32.7255 43.4658 32.9289 43.4186 33.1351 43.4186C33.3413 43.4186 33.5448 43.4658 33.7295 43.5564C34.0378 43.5948 34.3498 43.5948 34.6582 43.5564C34.8987 43.5191 35.1225 43.4119 35.3011 43.2483C35.4797 43.0848 35.6051 42.8724 35.6611 42.6382C36.0129 43.7036 36.5538 44.6984 37.2585 45.5763C37.6809 46.2032 38.0181 46.8823 38.2614 47.5962C38.2614 47.5962 38.2614 47.8165 38.0757 47.8165C37.7647 47.8155 37.4542 47.791 37.147 47.7431C36.7961 47.3453 36.4851 46.9148 36.2183 46.4577C36.0964 46.2274 35.9223 46.0281 35.7097 45.8752C35.4971 45.7224 35.2516 45.6201 34.9925 45.5763C34.621 45.5763 34.5467 45.5763 34.3981 45.9068C34.2495 46.2373 34.4353 45.9803 34.361 45.9803Z" fill="#EAF3D6"/>
<path fill-rule="evenodd" clip-rule="evenodd" d="M28.3433 7.34519C28.3752 7.27766 28.4292 7.22277 28.4967 7.18944C28.5641 7.1561 28.641 7.14628 28.7147 7.16157C28.8849 7.35378 29.0343 7.56303 29.1605 7.7859C29.7376 8.77977 30.1042 9.87935 30.2378 11.0177C30.1036 11.135 30.0024 11.2845 29.9438 11.4518C29.8852 11.619 29.8713 11.7984 29.9034 11.9726C30.013 12.2437 30.013 12.5461 29.9034 12.8173C29.7607 12.6369 29.5717 12.4976 29.3562 12.4137C29.1407 12.3297 28.9064 12.3042 28.6776 12.3398C28.1739 11.9604 27.7241 11.5157 27.3403 11.0177C27.283 10.9629 27.2374 10.8973 27.2063 10.8247C27.1752 10.7522 27.1592 10.6742 27.1592 10.5954C27.1592 10.5166 27.1752 10.4386 27.2063 10.366C27.2374 10.2935 27.283 10.2278 27.3403 10.173C27.4942 9.93438 27.7131 9.74346 27.9718 9.62216C28.0244 9.60854 28.0729 9.58242 28.113 9.54607C28.1532 9.50972 28.1837 9.46424 28.202 9.41357C28.2203 9.36291 28.2258 9.30859 28.2181 9.25534C28.2103 9.20209 28.1895 9.15152 28.1575 9.10801C28.0305 8.85783 27.9188 8.60028 27.8232 8.33678C27.8232 8.11642 27.8232 7.85935 27.8232 7.63899C27.8232 7.41864 28.1575 7.34519 28.3433 7.34519Z" fill="#D1E1B0"/>
<path fill-rule="evenodd" clip-rule="evenodd" d="M2.97166 32.6856C2.92849 32.62 2.90552 32.5435 2.90552 32.4652C2.90552 32.387 2.92849 32.3104 2.97166 32.2449C3.19454 32.0245 3.15739 31.6573 3.45457 31.4736C3.23169 32.1347 3.23169 32.1347 3.86319 32.4285C4.63496 32.8323 5.28768 33.427 5.75769 34.1546C6.45675 35.3209 7.04138 36.5507 7.5036 37.8271L7.72649 38.3046C6.79741 37.9227 5.98002 37.3166 5.34907 36.5417C4.4289 35.3377 3.63249 34.0459 2.97166 32.6856Z" fill="#E3EFD5"/>
<path fill-rule="evenodd" clip-rule="evenodd" d="M30.1633 29.821C30.1633 30.2249 29.569 30.3351 29.3832 30.6289C29.328 30.7302 29.2349 30.806 29.1239 30.8403C29.0128 30.8747 28.8926 30.8647 28.7889 30.8125C28.4533 30.7286 28.1291 30.6053 27.8231 30.4453C27.4244 30.1963 27.1231 29.8207 26.9687 29.3803C26.9687 28.4989 26.6715 27.6542 26.5229 26.7728C26.5051 26.4792 26.5051 26.1849 26.5229 25.8914C26.968 26.4048 27.4523 26.8836 27.9716 27.3236C28.0678 27.4719 28.1429 27.6325 28.1945 27.8011C28.3168 28.3255 28.6353 28.7847 29.0861 29.0865L29.5318 29.4904C29.7176 29.8577 29.7176 30.0413 30.1633 29.821Z" fill="#C6DAC5"/>
<path fill-rule="evenodd" clip-rule="evenodd" d="M29.7177 12.7438C29.7177 12.1929 29.7177 11.642 29.7177 11.0911C29.7177 10.5403 29.7177 10.8708 30.0149 11.0911C30.3471 11.569 30.5399 12.1281 30.5721 12.7071C30.6327 13.3549 30.5438 14.0079 30.312 14.6168C30.1001 15.0796 29.9262 15.5586 29.792 16.0491C29.792 16.0491 29.792 16.3429 29.6062 16.3796C29.4205 16.4163 29.3834 16.3796 29.2719 16.1225C29.0643 15.8189 28.9534 15.4607 28.9534 15.0942C28.9534 14.7277 29.0643 14.3696 29.2719 14.0659C29.4568 13.638 29.6059 13.1958 29.7177 12.7438Z" fill="#C7DAB1"/>
<path fill-rule="evenodd" clip-rule="evenodd" d="M22.6598 19.391C21.6232 18.5124 20.9599 17.2797 20.8024 15.9388C20.6507 14.0582 20.3527 12.1919 19.9109 10.3566C19.9109 10.3566 19.9109 10.3566 19.9109 10.3566C19.9444 10.4053 19.9624 10.4629 19.9624 10.5218C19.9624 10.5808 19.9444 10.6384 19.9109 10.6871C20.1338 11.6052 20.2824 12.4866 20.4681 13.4048C20.4751 13.4927 20.5065 13.5769 20.559 13.6482C20.6114 13.7196 20.6828 13.7751 20.7653 13.8087L21.3968 14.1393C22.2883 14.0658 22.2883 14.1393 22.2883 14.6902V14.984C22.2219 15.594 22.0975 16.1965 21.9168 16.7835C21.8963 16.868 21.8963 16.9561 21.9168 17.0406C21.8948 17.1249 21.8948 17.2133 21.9168 17.2977V17.7016C22.0712 17.9038 22.1962 18.1263 22.2883 18.3627C22.251 18.4572 22.251 18.562 22.2883 18.6565C22.3656 18.8056 22.4658 18.9419 22.5855 19.0605C22.5855 19.0605 22.7341 19.2808 22.6598 19.391Z" fill="#D4E6C7"/>
<path fill-rule="evenodd" clip-rule="evenodd" d="M28.4919 30.8127C28.6604 30.8124 28.8249 30.8637 28.9629 30.9594C29.1008 31.0552 29.2054 31.1908 29.2624 31.3477C29.3193 31.5045 29.3258 31.6749 29.281 31.8356C29.2362 31.9962 29.1422 32.1392 29.0119 32.245L28.7147 32.5755C28.5144 32.7005 28.3596 32.8854 28.2727 33.1034C28.1859 33.3213 28.1716 33.5609 28.2318 33.7874C28.1895 33.7082 28.1674 33.62 28.1674 33.5304C28.1674 33.4408 28.1895 33.3525 28.2318 33.2733C28.2816 33.0592 28.2697 32.8356 28.1975 32.6279C28.1253 32.4202 27.9956 32.2366 27.8232 32.0981C27.5554 31.8085 27.3072 31.5018 27.0803 31.1799C26.9628 31.0267 26.8992 30.8397 26.8992 30.6474C26.8992 30.4551 26.9628 30.2681 27.0803 30.1149C27.0803 29.9313 27.0803 29.7477 27.0803 29.564C27.4063 30.0131 27.8583 30.3578 28.3804 30.5556L28.4919 30.8127Z" fill="#F2F8EA"/>
<path fill-rule="evenodd" clip-rule="evenodd" d="M22.6597 19.391C22.6597 19.0972 22.2882 18.9503 22.2139 18.6933C22.1396 18.4362 22.2882 18.3627 22.2882 18.3627C22.2882 18.1424 22.2882 18.0689 22.2882 18.0322C22.4806 17.9742 22.6862 17.9746 22.8783 18.0336C23.0704 18.0925 23.2401 18.2072 23.3655 18.3627C23.7854 18.8817 24.055 19.5037 24.1456 20.1623C24.1456 20.3826 24.1456 20.603 24.1456 20.8233C24.1456 21.0437 24.1456 21.0804 24.1456 21.1906C24.1456 21.3008 24.1456 21.1906 24.1456 21.1906C24.1456 21.1906 23.3283 20.4194 22.994 19.9787C22.6597 19.5379 22.994 19.7583 22.994 19.6849C22.8955 19.5734 22.7832 19.4747 22.6597 19.391Z" fill="#CCE1A5"/>
<path fill-rule="evenodd" clip-rule="evenodd" d="M17.0876 31.4736C17.4963 31.8409 17.942 32.1714 18.3506 32.5754C18.4466 32.6302 18.5555 32.659 18.6664 32.659C18.7773 32.659 18.8861 32.6302 18.9821 32.5754C19.3515 32.52 19.7272 32.52 20.0966 32.5754C20.4775 32.6482 20.8346 32.8122 21.1367 33.0528C21.6555 33.2646 22.0782 33.6564 22.3254 34.1546L22.6969 34.5953L22.9197 34.8524H22.6969C22.6095 34.7661 22.5049 34.6987 22.3898 34.6544C22.2747 34.6101 22.1516 34.59 22.0282 34.5953C21.9569 34.5916 21.887 34.5733 21.8231 34.5417C21.7592 34.5101 21.7026 34.4659 21.6567 34.4117C21.6567 34.1546 21.1738 34.0811 20.9138 33.8975C20.9138 33.8975 20.9138 33.8975 20.6166 33.8975H20.1709C19.8063 33.5911 19.4216 33.309 19.0193 33.0528C18.4445 32.8586 17.9405 32.5009 17.5706 32.0245L17.1991 31.8409C17.1702 31.745 17.1702 31.6429 17.1991 31.5471C17.154 31.5372 17.1143 31.511 17.0876 31.4736Z" fill="#D3E6BF"/>
<path fill-rule="evenodd" clip-rule="evenodd" d="M22.9197 20.0521C22.9197 20.0521 22.9197 20.0521 22.9197 20.3092C23.3022 20.7731 23.7248 21.2031 24.1827 21.5946C24.7399 22.072 25.2228 22.6596 25.78 23.1371C26.3372 23.6145 25.78 23.6145 25.78 23.7981C25.6603 23.8706 25.5626 23.9737 25.4972 24.0965C25.4319 24.2193 25.4012 24.3573 25.4085 24.4959C25.4085 24.4959 25.4085 24.4959 25.4085 24.2755C25.3714 23.9778 25.2732 23.6906 25.1199 23.4317C24.9666 23.1728 24.7614 22.9476 24.517 22.7698C24.1514 22.4204 23.8043 22.0526 23.4769 21.668C23.2763 21.4512 23.1232 21.1958 23.0274 20.9177C22.9315 20.6396 22.8948 20.3449 22.9197 20.0521Z" fill="#C5D9C5"/>
<path fill-rule="evenodd" clip-rule="evenodd" d="M30.9434 18.5463C30.9969 19.1603 30.8256 19.7729 30.4605 20.2724C30.4322 20.3808 30.4322 20.4946 30.4605 20.603C30.3465 20.664 30.2188 20.696 30.0891 20.696C29.9593 20.696 29.8317 20.664 29.7176 20.603C29.6783 20.5567 29.6567 20.4981 29.6567 20.4377C29.6567 20.3772 29.6783 20.3187 29.7176 20.2724C29.9776 19.7215 30.2376 19.1339 30.4605 18.5831C30.6834 18.0322 30.4605 18.1056 30.7949 17.9587C31.1292 17.8118 30.7949 17.9587 31.0549 18.1791C31.0793 18.1863 31.102 18.1982 31.1217 18.2141C31.1415 18.2301 31.1578 18.2497 31.1699 18.2718C31.182 18.294 31.1895 18.3183 31.1921 18.3433C31.1947 18.3684 31.1922 18.3937 31.1849 18.4178C31.1776 18.4419 31.1655 18.4644 31.1494 18.4839C31.1333 18.5034 31.1135 18.5196 31.0911 18.5315C31.0687 18.5434 31.0441 18.5509 31.0188 18.5534C30.9934 18.556 30.9678 18.5536 30.9434 18.5463Z" fill="#BAD59E"/>
<path fill-rule="evenodd" clip-rule="evenodd" d="M20.5424 2.0199L21.1368 2.57078C21.2206 2.67175 21.3401 2.7374 21.4711 2.7544C21.4711 2.7544 21.4711 2.7544 21.4711 2.93803L20.9139 3.30528C20.7209 3.4535 20.564 3.64262 20.4547 3.85871C20.3454 4.07481 20.2865 4.31238 20.2824 4.55394C20.3918 3.95897 20.3918 3.34938 20.2824 2.7544C19.7995 2.57078 20.0223 2.27697 20.5424 2.0199Z" fill="#E9F3DD"/>
<path fill-rule="evenodd" clip-rule="evenodd" d="M40.5647 36.7254C40.5647 36.4683 40.379 36.7254 40.2676 36.7254C40.2012 36.7681 40.1238 36.7908 40.0447 36.7908C39.9655 36.7908 39.8881 36.7681 39.8218 36.7254C39.7957 36.6807 39.782 36.6301 39.782 36.5785C39.782 36.5269 39.7957 36.4762 39.8218 36.4316C39.8218 36.4316 40.2676 36.1011 40.379 36.4316C40.4463 36.4885 40.5319 36.5197 40.6205 36.5197C40.709 36.5197 40.7946 36.4885 40.8619 36.4316C40.8619 36.4316 40.8619 36.2112 40.8619 36.1011C40.8619 35.9909 40.8619 35.9174 40.8619 35.8072C40.8619 35.6971 40.8619 35.8072 40.8619 35.8072C40.8619 35.8072 41.2705 35.8072 41.3448 35.44C41.4191 35.0727 41.3448 35.036 41.642 34.9258C41.6754 35.108 41.6754 35.2946 41.642 35.4767C41.6212 35.5983 41.6212 35.7224 41.642 35.844C41.3899 36.2462 41.0115 36.5557 40.5647 36.7254Z" fill="#CFE4BC"/>
<path fill-rule="evenodd" clip-rule="evenodd" d="M22.9197 34.8157H23.2169C23.5109 34.9159 23.7966 35.0387 24.0712 35.183C24.493 35.5705 24.7682 36.0887 24.8513 36.652C24.8513 36.9825 25.2971 37.1662 25.4828 37.46C25.6645 37.6648 25.8261 37.8861 25.9657 38.121C25.5231 37.6861 25.1134 37.2197 24.7399 36.7255C24.3314 35.9624 23.7299 35.3171 22.994 34.8525C22.9667 34.8459 22.9413 34.8334 22.9197 34.8157Z" fill="#D4E6C0"/>
<path fill-rule="evenodd" clip-rule="evenodd" d="M35.6611 42.4545C35.6611 43.0789 35.0667 43.4094 34.5095 43.4828C34.0521 43.519 33.5925 43.519 33.1351 43.4828C32.9386 43.4477 32.7373 43.4477 32.5407 43.4828C32.14 43.3002 31.813 42.9898 31.6121 42.6014C31.6121 42.6014 31.9835 42.7851 32.1321 42.9687C32.2455 43.1181 32.4022 43.2298 32.5814 43.2888C32.7606 43.3479 32.9537 43.3515 33.1351 43.2992C33.3564 43.2622 33.5824 43.2622 33.8037 43.2992C34.0376 43.3357 34.2757 43.3357 34.5095 43.2992C35.0667 43.2992 35.4754 43.0054 35.5868 42.4545H35.6611Z" fill="#D5E6BF"/>
<path fill-rule="evenodd" clip-rule="evenodd" d="M30.6092 18.1056C30.1634 18.8401 29.9034 19.6848 29.5319 20.4561C29.5319 20.4561 29.5319 20.7499 29.5319 20.7131C29.5319 20.6764 29.9405 20.7131 30.1263 20.7131C30.312 20.7131 30.1263 21.0437 29.7919 20.9702C29.5706 20.9339 29.3447 20.9339 29.1233 20.9702C29.1233 20.7866 29.1233 20.6764 29.1233 20.5295L30.2748 17.9587L30.6092 18.1056Z" fill="#D3E4B9"/>
<path fill-rule="evenodd" clip-rule="evenodd" d="M20.0965 4.73773C20.0965 4.73773 20.0965 5.03153 20.0965 5.17844C19.6303 6.44837 19.5275 7.8208 19.7993 9.14477C19.7993 9.4753 19.985 9.7691 19.7993 10.0996C19.6766 9.61685 19.5897 9.12588 19.5393 8.63062C19.428 7.87561 19.428 7.10865 19.5393 6.35365C19.6395 5.7898 19.8275 5.24471 20.0965 4.73773Z" fill="#DCECCB"/>
<path fill-rule="evenodd" clip-rule="evenodd" d="M42.6448 33.7506C42.6448 33.4568 43.1648 33.3833 43.3877 33.2364C44.2402 32.6498 45.0141 31.9588 45.6908 31.1798C45.3887 31.6736 44.9985 32.1091 44.5393 32.4652C44.1142 32.8601 43.6542 33.2165 43.1648 33.5302C42.9995 33.6209 42.8252 33.6948 42.6448 33.7506Z" fill="#E9F1DB"/>
<path fill-rule="evenodd" clip-rule="evenodd" d="M37.147 47.743C37.4191 47.7232 37.6922 47.7232 37.9643 47.743C37.9886 47.743 38.0128 47.7382 38.0353 47.729C38.0579 47.7197 38.0783 47.7062 38.0956 47.6892C38.1128 47.6721 38.1265 47.6519 38.1359 47.6296C38.1452 47.6073 38.15 47.5834 38.15 47.5593C38.15 47.743 38.15 47.8531 38.15 47.8899L35.1782 48.1469C35.2065 48.1308 35.2385 48.1223 35.2711 48.1223C35.3037 48.1223 35.3357 48.1308 35.364 48.1469L37.147 47.743Z" fill="#ECF5E2"/>
<path fill-rule="evenodd" clip-rule="evenodd" d="M48.8855 21.0438C48.8855 20.7867 48.8855 20.6765 49.1826 20.5664C49.4091 20.5242 49.6139 20.4063 49.7628 20.2324C49.9116 20.0585 49.9953 19.8392 49.9999 19.6115C50.0314 19.3563 49.9801 19.0977 49.8532 18.8732C49.7263 18.6488 49.5305 18.47 49.2941 18.3628C49.2198 18.3415 49.1512 18.3041 49.0933 18.2533C49.0355 18.2025 48.9899 18.1395 48.9598 18.069C49.1703 18.1243 49.365 18.2269 49.5287 18.3689C49.6923 18.511 49.8206 18.6885 49.9033 18.8877C49.9861 19.0868 50.0211 19.3022 50.0056 19.517C49.9901 19.7318 49.9246 19.9401 49.8141 20.1256C49.6365 20.3633 49.3906 20.5425 49.1084 20.6398C49.1084 20.6398 48.8483 20.8234 48.8855 21.0438Z" fill="#F1F7E6"/>
<path fill-rule="evenodd" clip-rule="evenodd" d="M10.7356 40.3979H11.8129H12.1472C12.2865 40.4749 12.4121 40.5742 12.5187 40.6917C12.76 40.962 13.0496 41.1861 13.373 41.3527C13.3896 41.3872 13.3981 41.4248 13.3981 41.4629C13.3981 41.501 13.3896 41.5387 13.373 41.5731C13.0286 41.4797 12.727 41.2723 12.5187 40.9855C12.4815 40.3979 11.9614 40.3979 11.4414 40.3979C11.2153 40.4897 10.9617 40.4897 10.7356 40.3979Z" fill="#EBF4E3"/>
<path fill-rule="evenodd" clip-rule="evenodd" d="M46.6939 17.3344C46.6939 17.5547 46.2852 17.3344 46.0995 17.5914C45.9138 17.8485 45.0965 18.2158 44.6136 18.5463C44.1307 18.8768 44.6136 18.5463 44.2793 18.5463C44.465 18.2158 44.8365 18.1423 45.0965 17.922C45.4619 17.6415 45.8612 17.4071 46.2852 17.2242C46.2852 17.2242 46.5453 17.2242 46.6939 17.3344Z" fill="#F4F9EC"/>
<path fill-rule="evenodd" clip-rule="evenodd" d="M10.2898 29.821C9.99259 29.821 9.62112 29.821 9.43538 29.3803C9.24965 28.9396 9.65826 29.3803 9.69541 29.3803C9.73256 29.3803 10.6241 29.3803 11.107 29.5639C11.5899 29.7475 11.7385 29.5639 11.9985 29.5639C12.2586 29.5639 11.4785 29.5639 11.2184 29.5639L10.2898 29.821Z" fill="#E3EFD8"/>
<path fill-rule="evenodd" clip-rule="evenodd" d="M13.6702 41.6098C13.7081 41.5829 13.7535 41.5684 13.8002 41.5684C13.8468 41.5684 13.8923 41.5829 13.9302 41.6098C14.5355 41.832 15.1797 41.9319 15.8247 41.9036C15.8247 41.9036 15.8247 41.9036 16.0847 41.9036C15.742 41.9771 15.3873 41.9771 15.0446 41.9036C14.5691 41.9172 14.0975 41.8164 13.6702 41.6098Z" fill="#E3EFD7"/>
<path fill-rule="evenodd" clip-rule="evenodd" d="M28.4917 30.8126L27.6373 30.3719C27.4949 30.3024 27.3686 30.2045 27.2664 30.0845C27.1641 29.9644 27.088 29.8247 27.043 29.6741C27.0591 29.6016 27.0591 29.5264 27.043 29.4538C27.2709 29.7402 27.5192 30.0102 27.7859 30.2618C28.0637 30.4348 28.3635 30.5706 28.6774 30.6657L28.4917 30.8126Z" fill="#D6E3D1"/>
<path fill-rule="evenodd" clip-rule="evenodd" d="M35.6611 42.4179C35.6478 42.3891 35.6409 42.3578 35.6409 42.3261C35.6409 42.2944 35.6478 42.2631 35.6611 42.2343C35.6243 42.1271 35.6243 42.0109 35.6611 41.9037C35.6611 41.9037 36.4412 41.4263 36.7756 41.1325C36.8134 41.1056 36.8589 41.0911 36.9056 41.0911C36.9522 41.0911 36.9977 41.1056 37.0356 41.1325C36.8127 41.463 36.4041 41.5365 36.1069 41.7201C35.976 41.7861 35.8656 41.8857 35.7871 42.0085C35.7087 42.1313 35.6651 42.2727 35.6611 42.4179Z" fill="#EAF3D6"/>
<path fill-rule="evenodd" clip-rule="evenodd" d="M22.6969 34.4851C22.6143 34.473 22.5353 34.4439 22.4649 34.3996C22.3945 34.3553 22.3343 34.2968 22.2883 34.228C22.0488 33.7195 21.6432 33.3056 21.1367 33.0528C21.6568 33.0528 21.8797 33.5669 22.214 33.8975C22.3897 34.0811 22.5511 34.2775 22.6969 34.4851Z" fill="#F1F7EB"/>
<path fill-rule="evenodd" clip-rule="evenodd" d="M4.71757 29.1232C4.35753 29.1559 3.99853 29.0507 3.7146 28.8294C3.77918 28.8021 3.84868 28.7881 3.91891 28.7881C3.98914 28.7881 4.05864 28.8021 4.12322 28.8294C4.12322 28.8294 4.56898 28.9763 4.71757 29.1232Z" fill="#F4F8E9"/>
<path fill-rule="evenodd" clip-rule="evenodd" d="M21.1368 33.0529C20.8025 33.0529 20.431 33.0529 20.0967 32.7591C20.2812 32.7314 20.4696 32.7433 20.6491 32.794C20.8286 32.8447 20.9949 32.933 21.1368 33.0529Z" fill="#E7F1DC"/>
<path fill-rule="evenodd" clip-rule="evenodd" d="M48.8113 17.9588C48.4452 17.8753 48.1026 17.7122 47.8083 17.4813C48.1916 17.5096 48.5499 17.6802 48.8113 17.9588Z" fill="#EFF6E2"/>
<path fill-rule="evenodd" clip-rule="evenodd" d="M37.8901 23.9818C38.1345 23.6277 38.3578 23.2598 38.5588 22.88C38.597 23.012 38.597 23.152 38.5588 23.284C38.2988 23.5778 38.2616 23.9083 37.8901 23.9818Z" fill="#EEF3E8"/>
<path fill-rule="evenodd" clip-rule="evenodd" d="M28.046 41.3162C27.7031 41.1301 27.4101 40.8657 27.1917 40.5449C27.5307 40.7363 27.8225 40.9997 28.046 41.3162Z" fill="#EBF3E1"/>
<path fill-rule="evenodd" clip-rule="evenodd" d="M40.4902 37.1661C40.757 36.8902 41.0424 36.6325 41.3446 36.3949C41.2616 36.5734 41.1432 36.7336 40.9965 36.8661C40.8497 36.9986 40.6776 37.1006 40.4902 37.1661Z" fill="#F1F8EC"/>
<path fill-rule="evenodd" clip-rule="evenodd" d="M44.0194 18.9504C43.7855 19.2102 43.4927 19.4115 43.165 19.538C43.165 19.2075 43.648 19.1707 43.8708 18.9504H44.0194Z" fill="#EFF6E2"/>
<path fill-rule="evenodd" clip-rule="evenodd" d="M9.43531 29.3803C9.11977 29.4701 8.78502 29.4701 8.46948 29.3803C8.62087 29.3112 8.78564 29.2754 8.95239 29.2754C9.11915 29.2754 9.28392 29.3112 9.43531 29.3803Z" fill="#E3EFD8"/>
<path fill-rule="evenodd" clip-rule="evenodd" d="M25.4458 25.0468C25.8057 25.2865 26.1097 25.5995 26.3373 25.9649C25.9884 25.7125 25.6867 25.4018 25.4458 25.0468Z" fill="#C6DAC5"/>
<path fill-rule="evenodd" clip-rule="evenodd" d="M35.0668 47.743C34.5839 47.9266 34.4353 47.743 34.2124 47.339C34.2912 47.4406 34.3924 47.5231 34.5082 47.5804C34.6241 47.6376 34.7515 47.6681 34.8811 47.6695L35.0668 47.743Z" fill="#ECF5E2"/>
<path fill-rule="evenodd" clip-rule="evenodd" d="M24.0714 35.1096C23.7606 35.0579 23.4673 34.9318 23.217 34.7423C23.3782 34.7364 23.5386 34.7663 23.6865 34.8299C23.8343 34.8935 23.9659 34.989 24.0714 35.1096Z" fill="#EEF6E6"/>
<path fill-rule="evenodd" clip-rule="evenodd" d="M42.0876 34.4118C42.0697 34.2408 42.0697 34.0685 42.0876 33.8976C42.2441 33.8444 42.4141 33.8444 42.5705 33.8976C42.3734 34.0319 42.2086 34.2075 42.0876 34.4118Z" fill="#E6F0D8"/>
<path fill-rule="evenodd" clip-rule="evenodd" d="M18.9451 42.3812C19.2435 42.3835 19.5321 42.4872 19.7623 42.675C19.4651 42.675 19.2422 42.675 18.9451 42.4546V42.3812Z" fill="#E0EDD2"/>
<path fill-rule="evenodd" clip-rule="evenodd" d="M5.49786 29.3804C5.35684 29.3944 5.21441 29.3788 5.07995 29.3345C4.94548 29.2902 4.82205 29.2182 4.71777 29.1233C4.85892 29.1067 5.00203 29.1212 5.13687 29.1656C5.27172 29.2101 5.39498 29.2834 5.49786 29.3804Z" fill="#F4F8E9"/>
<path fill-rule="evenodd" clip-rule="evenodd" d="M17.0878 31.4737C16.7906 31.4737 16.6791 31.2166 16.4934 31.033H16.7163C16.8641 31.1583 16.9897 31.3073 17.0878 31.4737Z" fill="#C9D8BD"/>
<path fill-rule="evenodd" clip-rule="evenodd" d="M3.26903 28.6827C3.00372 28.6809 2.74993 28.5752 2.56323 28.3889C2.84543 28.4149 3.11511 28.5165 3.34332 28.6827C3.34332 28.6827 3.30617 28.7194 3.26903 28.6827Z" fill="#F5F9EB"/>
<path fill-rule="evenodd" clip-rule="evenodd" d="M9.99268 40.1042C10.2569 40.1035 10.5154 40.1801 10.7356 40.3245C10.6035 40.3636 10.4628 40.3635 10.3308 40.3243C10.1988 40.2852 10.0812 40.2086 9.99268 40.1042Z" fill="#EBF4E3"/>
<path fill-rule="evenodd" clip-rule="evenodd" d="M39.1158 22.4759C39.022 22.4848 38.931 22.5121 38.8481 22.5562C38.7651 22.6004 38.692 22.6605 38.6329 22.733C38.5586 22.5127 38.7072 22.4392 39.1158 22.4759Z" fill="#EEF3E8"/>
<path fill-rule="evenodd" clip-rule="evenodd" d="M14.8589 30.4822C14.8589 30.4822 14.5246 30.4822 14.4503 30.2618C14.376 30.0415 14.8589 30.2618 15.0818 30.2618C15.3047 30.2618 14.8589 30.5556 14.8589 30.4822Z" fill="#E8F2E0"/>
<path fill-rule="evenodd" clip-rule="evenodd" d="M16.7162 31.1064H16.4933C16.4933 31.1064 16.0847 31.1064 16.0104 30.8126C15.9361 30.5188 16.4933 30.9963 16.7162 31.1064Z" fill="#D7E9C8"/>
<path fill-rule="evenodd" clip-rule="evenodd" d="M14.8589 30.4822H15.0818C15.0818 30.6658 15.4904 30.4822 15.6018 30.7393C15.3302 30.7493 15.0649 30.6575 14.8589 30.4822Z" fill="#DAEACC"/>
<path fill-rule="evenodd" clip-rule="evenodd" d="M39.5989 38.0475C39.5989 37.7905 39.8961 37.6803 40.0446 37.5334C39.9503 37.7443 39.7953 37.9231 39.5989 38.0475Z" fill="#F3F8EC"/>
<path fill-rule="evenodd" clip-rule="evenodd" d="M29.1604 7.74909C28.9674 7.5757 28.8152 7.36259 28.7146 7.12476C28.8315 7.18908 28.9323 7.2786 29.0095 7.38667C29.0866 7.49475 29.1382 7.61862 29.1604 7.74909Z" fill="#F3F7DC"/>
<path fill-rule="evenodd" clip-rule="evenodd" d="M18.945 42.381C18.8791 42.4031 18.808 42.4044 18.7414 42.3846C18.6748 42.3649 18.6161 42.3251 18.5735 42.2709C18.5735 42.2709 18.8707 42.1974 18.945 42.381Z" fill="#EFF6E8"/>
<path fill-rule="evenodd" clip-rule="evenodd" d="M44.0193 18.9504C44.0193 18.9504 44.0193 18.6933 44.3908 18.6933L44.0193 18.9504Z" fill="#F4F9EC"/>
<path fill-rule="evenodd" clip-rule="evenodd" d="M3.26904 28.6825C3.26904 28.6825 3.56622 28.6825 3.64051 28.6825C3.71481 28.6825 3.38048 28.8661 3.26904 28.6825Z" fill="#F4F8E9"/>
<path fill-rule="evenodd" clip-rule="evenodd" d="M30.6091 18.0323C30.832 18.0323 30.8692 18.0323 30.8692 18.2526C30.8692 18.473 30.6463 18.1057 30.6091 18.0323Z" fill="#E8EFDD"/>
<path fill-rule="evenodd" clip-rule="evenodd" d="M30.6091 18.0323V18.3628C30.5863 18.2911 30.5863 18.2142 30.6091 18.1425V18.0323Z" fill="#D3E4B9"/>
<path fill-rule="evenodd" clip-rule="evenodd" d="M40.1189 37.5334C40.1495 37.4777 40.1919 37.4292 40.2432 37.3912C40.2944 37.3531 40.3534 37.3265 40.4161 37.313C40.3941 37.3747 40.3542 37.4286 40.3013 37.4678C40.2484 37.507 40.1849 37.5298 40.1189 37.5334Z" fill="#F1F8EC"/>
<path fill-rule="evenodd" clip-rule="evenodd" d="M16.0846 41.9037C15.351 41.9442 14.6169 41.8316 13.9301 41.5732H13.6701C13.2875 41.353 12.9479 41.0669 12.6671 40.7285C12.6671 40.7285 12.6671 40.5449 12.4814 40.4715L12.2585 40.398C12.2585 40.398 11.9985 40.398 12.0356 40.0675C12.1113 40.1372 12.2108 40.1759 12.3142 40.1759C12.4176 40.1759 12.5172 40.1372 12.5928 40.0675C12.5928 39.8471 13.0386 40.0675 13.2615 39.8104C13.6698 39.8519 14.0701 39.9508 14.4502 40.1042C14.4502 40.1042 14.8959 39.8839 14.8959 39.6635C14.9331 39.3463 14.9331 39.0259 14.8959 38.7086C14.8959 38.7086 14.8959 38.4883 15.1188 38.4883C15.7739 38.4334 16.4325 38.4334 17.0876 38.4883C17.5705 38.4883 17.7934 38.2312 17.7563 37.7905C17.6913 37.4065 17.6045 37.0264 17.4962 36.652C17.4026 36.0311 17.4026 35.3999 17.4962 34.779C17.5891 34.0966 17.5891 33.4049 17.4962 32.7224C17.5159 32.6824 17.5262 32.6384 17.5262 32.5939C17.5262 32.5493 17.5159 32.5054 17.4962 32.4653C17.4962 32.4653 17.4962 32.4653 17.4962 32.2083C17.5889 32.2023 17.6817 32.2193 17.766 32.2578C17.8503 32.2963 17.9236 32.355 17.9792 32.4286L18.5364 32.9428C18.5735 33.0529 18.9078 33.0529 19.205 33.0529C19.5022 33.0529 19.9108 33.3467 20.1708 33.5671C20.1323 33.8597 20.1323 34.1559 20.1708 34.4485C20.1708 34.779 20.1708 34.9259 20.6909 34.9994C21.0658 34.9703 21.4424 35.0282 21.7906 35.1685C22.1389 35.3088 22.4492 35.5275 22.6968 35.8073C22.8816 36.0407 23.1113 36.2356 23.3727 36.3806C23.6342 36.5256 23.9221 36.6178 24.2199 36.652H24.4427C24.4427 36.8356 24.1456 36.652 23.9598 36.652C23.3505 36.5927 22.7708 36.3634 22.2882 35.991C21.991 35.6972 21.8796 35.7339 21.7682 35.991C21.5411 36.4656 21.254 36.9099 20.9138 37.3131C20.9138 37.4967 20.5052 37.4967 20.3566 37.6436C20.208 37.7905 20.3566 37.9741 19.9851 38.0109C19.4258 38.5764 18.9047 39.1775 18.4249 39.8104C18.0812 40.2852 17.8756 40.8441 17.8306 41.4263C17.8309 41.4634 17.8232 41.5001 17.8079 41.534C17.7926 41.5678 17.77 41.598 17.7418 41.6224C17.7135 41.6468 17.6803 41.6649 17.6443 41.6755C17.6084 41.686 17.5705 41.6887 17.5334 41.6834H16.2332C16.2332 41.6834 16.1218 41.9037 16.0846 41.9037Z" fill="#CFE4B8"/>
<path fill-rule="evenodd" clip-rule="evenodd" d="M8.13525 32.0981C8.13525 31.5839 8.13525 31.0697 8.13525 30.5556C8.13525 30.0414 8.13525 30.0414 8.54387 30.0414C8.91436 30.0036 9.2878 30.0036 9.65828 30.0414C9.84358 30.0594 10.0302 30.0594 10.2155 30.0414C10.4548 30.2559 10.6473 30.5163 10.7815 30.8067C10.9156 31.0972 10.9884 31.4116 10.9956 31.7308C10.9973 32.0552 10.8783 32.3689 10.6613 32.6122C10.5004 32.5914 10.3371 32.6232 10.1962 32.7028C10.0553 32.7823 9.94469 32.9053 9.88117 33.0529C9.49824 33.0156 9.11253 33.0156 8.72961 33.0529C8.50672 33.0529 8.39528 33.0529 8.35814 32.7591C8.32099 32.4653 8.28384 32.3919 8.13525 32.0981Z" fill="#C9E1AB"/>
<path fill-rule="evenodd" clip-rule="evenodd" d="M14.116 38.1945C14.116 38.1945 14.116 38.4515 14.116 38.6352C14.0973 38.8796 14.0973 39.1252 14.116 39.3697C14.116 39.6635 14.116 39.6635 13.8559 39.59C13.5959 39.5166 13.4845 39.59 13.3359 39.59C13.246 39.5047 13.1262 39.4571 13.0015 39.4571C12.8769 39.4571 12.7571 39.5047 12.6672 39.59C12.37 39.8838 12.1472 39.8104 11.9243 39.59C11.7014 39.3697 11.1813 39.0024 10.9213 38.5984C10.4755 38.3414 10.4013 38.121 10.9213 37.7538C11.4414 37.3865 11.6271 37.1294 12.4072 37.7538C12.6505 37.9278 12.9121 38.0756 13.1873 38.1945C13.3338 38.2593 13.4983 38.2727 13.6536 38.2327C13.809 38.1926 13.9458 38.1014 14.0417 37.9741L14.116 38.1945Z" fill="#C8E2AD"/>
<path fill-rule="evenodd" clip-rule="evenodd" d="M9.76978 33.31C9.76978 33.1264 9.76978 32.9427 9.76978 32.7591C9.78983 32.6934 9.824 32.6327 9.86994 32.5812C9.91588 32.5297 9.97252 32.4886 10.036 32.4607C10.0995 32.4328 10.1683 32.4188 10.2377 32.4196C10.3072 32.4204 10.3756 32.436 10.4384 32.4653C10.7154 32.9012 11.1426 33.2232 11.6411 33.3717C12.1397 33.5202 12.6757 33.4853 13.1502 33.2733H13.4102C13.7817 33.2733 13.856 33.2733 13.8188 33.5304C13.7817 33.7874 13.8188 34.7056 13.8188 35.3299C13.8384 35.3634 13.8487 35.4014 13.8487 35.4401C13.8487 35.4788 13.8384 35.5168 13.8188 35.5503C13.4473 34.7056 12.7044 34.5587 11.9243 34.4485C11.396 34.4346 10.8767 34.3094 10.4013 34.0812C10.1067 33.9044 9.88343 33.6317 9.76978 33.31Z" fill="#BFDEAF"/>
<path fill-rule="evenodd" clip-rule="evenodd" d="M14.1159 38.1944C14.1159 38.1944 13.6702 38.1944 13.6702 37.7537C13.9212 37.437 14.1332 37.0918 14.3017 36.7254C14.4532 36.6178 14.6351 36.5599 14.8217 36.5599C15.0083 36.5599 15.1902 36.6178 15.3418 36.7254C15.9733 37.2029 16.0847 37.5334 15.7504 38.0108C15.6699 38.0939 15.5709 38.1571 15.4612 38.1953C15.3515 38.2336 15.2343 38.2459 15.1189 38.2312C14.8589 38.121 14.4503 38.2312 14.1159 38.1944Z" fill="#C0DDAC"/>
<path fill-rule="evenodd" clip-rule="evenodd" d="M17.2362 31.9143V32.1714C17.2362 32.5019 17.2362 32.6121 16.9019 32.6488C16.7532 32.6848 16.5967 32.6721 16.456 32.6124C16.3153 32.5528 16.198 32.4496 16.1218 32.3183C16.1218 31.8776 16.1218 31.5471 16.3819 31.1798C16.6419 30.8126 16.7533 31.4736 16.9762 31.6205L17.2362 31.9143Z" fill="#B6CAA9"/>
<path fill-rule="evenodd" clip-rule="evenodd" d="M11.9613 39.9572L12.2213 40.251C12.2213 40.251 12.2213 40.251 11.9984 40.251C11.6426 39.7876 11.2447 39.3574 10.8097 38.9656C10.8097 38.782 10.5497 38.6718 10.4382 38.9656C10.4382 38.9656 10.4382 38.6718 10.4382 38.6351C10.4382 38.5984 10.6611 38.6351 10.7354 38.6351L11.9613 39.9572Z" fill="#D4E7C2"/>
<path fill-rule="evenodd" clip-rule="evenodd" d="M10.3641 39.1125C10.3641 39.5165 9.80694 39.7736 9.50977 39.7002C9.81697 39.5382 10.1038 39.341 10.3641 39.1125Z" fill="#D4E7C2"/>
<path fill-rule="evenodd" clip-rule="evenodd" d="M28.0832 42.5647C28.0832 42.8218 28.0832 42.8585 27.7489 42.8218C26.4227 42.5762 25.2407 41.8409 24.4428 40.7652C24.1085 40.3612 24.1457 40.1775 24.4428 39.8837C24.691 39.6672 24.9655 39.4821 25.2601 39.3329C25.3737 39.2522 25.5102 39.2087 25.6501 39.2087C25.7901 39.2087 25.9265 39.2522 26.0402 39.3329C26.3745 39.6267 26.5602 40.0306 26.8945 40.3612C26.9318 40.4808 26.9318 40.6088 26.8945 40.7284C27.0104 41.0886 27.2298 41.4076 27.526 41.6466C27.6755 41.7558 27.8016 41.8931 27.8972 42.0507C27.9929 42.2083 28.0561 42.3829 28.0832 42.5647Z" fill="#D7E7B3"/>
<path fill-rule="evenodd" clip-rule="evenodd" d="M22.9941 34.8891C23.0665 34.8876 23.1381 34.9036 23.2028 34.9356C23.2675 34.9676 23.3234 35.0146 23.3656 35.0728L24.4428 36.1378C24.5518 36.2165 24.637 36.323 24.6894 36.4459C24.7417 36.5688 24.7592 36.7036 24.74 36.8356C24.6712 36.871 24.5947 36.8895 24.5171 36.8895C24.4395 36.8895 24.3631 36.871 24.2943 36.8356C24.5171 36.6152 24.2943 36.4683 24.2943 36.2847L23.217 35.2564C23.217 35.2564 22.957 35.0728 22.9941 34.8891Z" fill="#CFE4B8"/>
<path fill-rule="evenodd" clip-rule="evenodd" d="M20.0967 38.121L20.4682 37.7537C20.4682 37.7537 20.7653 37.7537 20.7653 37.9741C20.7653 38.1944 20.7653 37.9741 20.5053 37.9741C20.2453 37.9741 20.8396 37.9741 20.7653 38.3046C20.691 38.6351 20.2081 38.5249 20.0967 38.121Z" fill="#E2EED4"/>
<path fill-rule="evenodd" clip-rule="evenodd" d="M20.7651 38.4147C20.7651 38.4147 20.4308 38.4147 20.468 38.2311C20.4923 38.2005 20.5233 38.1758 20.5587 38.1589C20.5941 38.1419 20.6329 38.1331 20.6723 38.1331C20.7116 38.1331 20.7504 38.1419 20.7858 38.1589C20.8212 38.1758 20.8523 38.2005 20.8766 38.2311C20.8601 38.2655 20.8515 38.3032 20.8515 38.3413C20.8515 38.3794 20.8601 38.417 20.8766 38.4515C20.8766 38.4515 20.8766 38.4515 20.8766 38.6718L20.7651 38.4147Z" fill="#FCFDFA"/>
<path fill-rule="evenodd" clip-rule="evenodd" d="M20.7651 38.4148C20.7817 38.3804 20.7902 38.3427 20.7902 38.3046C20.7902 38.2665 20.7817 38.2289 20.7651 38.1945C20.7882 38.2116 20.8069 38.2337 20.8198 38.2592C20.8327 38.2847 20.8394 38.3129 20.8394 38.3414C20.8394 38.3699 20.8327 38.398 20.8198 38.4235C20.8069 38.449 20.7882 38.4712 20.7651 38.4883V38.4148Z" fill="#E2EED4"/>
<path fill-rule="evenodd" clip-rule="evenodd" d="M37.8901 23.9818C38.1501 23.9818 38.2244 23.5044 38.4101 23.3207C38.4101 23.5411 38.4101 23.8716 38.8188 23.9083C39.2274 23.9451 39.2645 23.688 39.4503 23.4676C39.636 23.2473 39.4503 23.2473 39.7474 23.284C40.0446 23.3207 39.7474 23.284 39.7474 23.5044C39.7474 23.7247 39.7474 23.8716 39.7474 24.0185C40.2133 24.5182 40.7369 24.9619 41.3076 25.3406C41.7905 25.6344 41.9391 25.6712 42.422 25.3406C42.8467 24.9257 43.2437 24.4841 43.6107 24.0185C43.6107 24.0185 43.7965 23.7614 43.9822 23.7982C44.1679 23.8349 44.3537 23.7982 44.428 24.092C44.4652 24.2116 44.4652 24.3396 44.428 24.4592C44.326 24.6588 44.2857 24.8836 44.3121 25.1057C44.3385 25.3277 44.4305 25.5372 44.5766 25.7079C44.7176 26.1918 44.9579 26.6418 45.2823 27.03C45.4547 27.2667 45.5923 27.5263 45.691 27.8012C45.7291 28 45.6939 28.2057 45.5916 28.3809C45.4894 28.5561 45.3269 28.6893 45.1338 28.7561H44.6137C44.1679 28.7561 44.1679 29.3804 44.1308 29.7477C44.1123 29.9922 44.1123 30.2377 44.1308 30.4822C43.9451 30.4822 44.1308 30.2985 44.1308 30.1516C44.1131 29.8826 44.1131 29.6127 44.1308 29.3437C44.1308 29.1233 44.1308 28.9764 43.8708 28.9397C43.5433 28.8454 43.2407 28.6816 42.984 28.4595C42.7273 28.2375 42.5229 27.9627 42.3849 27.6543C42.3849 27.4707 42.1991 27.2503 42.0506 27.03C41.9951 26.9285 41.9044 26.8502 41.7951 26.8097C41.6859 26.7692 41.5655 26.7692 41.4562 26.8096C41.2333 26.8096 41.0476 27.03 41.0104 27.3238C40.9549 28.1186 40.9549 28.9162 41.0104 29.7109C41.034 29.7629 41.0462 29.8192 41.0462 29.8762C41.0462 29.9332 41.034 29.9895 41.0104 30.0415C40.9373 29.7273 40.9373 29.4008 41.0104 29.0866C41.0356 28.5323 41.0976 27.9802 41.1962 27.434C40.5647 28.2052 39.9703 29.0132 39.3388 29.8211C39.3388 29.8211 39.3388 30.3353 38.9302 30.4822C38.5216 30.6291 38.9302 30.0415 38.5587 30.1149H37.1471C37.0557 30.0667 36.9536 30.0415 36.85 30.0415C36.7463 30.0415 36.6442 30.0667 36.5528 30.1149C36.2556 30.4822 35.7355 30.7025 35.6241 31.2167C35.2937 30.8503 34.9047 30.5402 34.4725 30.2985C34.2951 30.1413 34.1663 29.9375 34.1011 29.7109V29.6742C34.1011 29.4539 34.1011 29.1968 34.1011 28.9764C34.1011 28.9764 34.1011 28.6459 34.324 28.4623C34.2904 28.4135 34.2725 28.356 34.2725 28.297C34.2725 28.2381 34.2904 28.1805 34.324 28.1318C34.344 28.0348 34.344 27.9349 34.324 27.838C34.5443 27.4244 34.8191 27.0416 35.1412 26.6995C35.2812 26.6057 35.3959 26.4797 35.4755 26.3322C35.556 26.2763 35.6201 26.2002 35.6613 26.1119L36.0327 25.7079C36.112 25.5922 36.2129 25.4925 36.3299 25.4141L37.1471 24.9734L37.4815 24.5327C37.5341 24.5169 37.5819 24.4885 37.6208 24.4501C37.6597 24.4117 37.6884 24.3643 37.7043 24.3123C37.7975 24.2224 37.862 24.1075 37.8901 23.9818Z" fill="#D6E9C3"/>
<path fill-rule="evenodd" clip-rule="evenodd" d="M44.1679 23.8348C43.8335 23.8348 43.7592 24.2755 43.5364 24.4959C43.2305 24.8534 42.895 25.1851 42.5334 25.4875C42.3904 25.6139 42.2052 25.6838 42.0133 25.6838C41.8214 25.6838 41.6363 25.6139 41.4933 25.4875C40.9691 25.1205 40.4837 24.7021 40.0445 24.2388L39.8216 24.0184C39.5616 24.0184 39.4873 23.7246 39.8216 23.5043C39.8066 23.4316 39.8066 23.3566 39.8216 23.2839C39.8216 22.7698 39.8216 22.7698 39.2273 22.6963C38.6329 22.6229 39.2273 22.6963 39.2273 22.6963C40.0791 22.6038 40.9386 22.6038 41.7904 22.6963C42.2207 22.7946 42.6339 22.9555 43.0163 23.1738L44.3536 23.8715L44.1679 23.8348Z" fill="#DEECC9"/>
<path fill-rule="evenodd" clip-rule="evenodd" d="M44.2794 22.0353L43.425 21.7415C43.0578 21.5881 42.6698 21.4891 42.2734 21.4477C42.2104 21.4484 42.1493 21.4264 42.1015 21.3859C42.0537 21.3453 42.0224 21.289 42.0134 21.2274C42.0084 21.0923 42.0304 20.9576 42.0782 20.831C42.1259 20.7043 42.1984 20.5882 42.2916 20.4893C42.3847 20.3904 42.4967 20.3106 42.621 20.2545C42.7454 20.1984 42.8797 20.1671 43.0164 20.1623C43.3696 20.2525 43.7403 20.2525 44.0936 20.1623C44.3969 20.0283 44.7275 19.9655 45.0594 19.9787C45.3938 19.9787 45.9138 20.5296 45.9881 20.9703C45.987 21.1775 45.9225 21.3796 45.8032 21.55C45.6839 21.7204 45.5153 21.8511 45.3195 21.9252C45.3195 21.9252 45.0223 22.1455 44.8366 22.1455L44.2794 22.0353Z" fill="#DEECC9"/>
<path fill-rule="evenodd" clip-rule="evenodd" d="M44.168 23.8347C44.3909 23.8347 44.5023 23.8347 44.5394 24.0918C44.5766 24.3489 44.2794 24.0183 44.168 23.8347Z" fill="#DCEAC7"/>
<path fill-rule="evenodd" clip-rule="evenodd" d="M44.168 18.8401H44.5394C44.4176 18.8712 44.2898 18.8712 44.168 18.8401Z" fill="#EFF6E2"/>
<path fill-rule="evenodd" clip-rule="evenodd" d="M39.5616 31.5472H38.2243C38.1244 31.5403 38.0297 31.5003 37.9555 31.4336C37.8814 31.367 37.8321 31.2776 37.8157 31.1799C37.7862 31.0367 37.7985 30.8882 37.8512 30.7517C37.9038 30.6152 37.9945 30.4962 38.1129 30.4087C38.1129 30.4087 38.1129 30.7392 38.1129 30.8861C38.1129 31.033 38.1129 31.3636 38.4843 31.3268H38.7815C39.0603 31.3008 39.3388 31.3794 39.5616 31.5472Z" fill="#D6E7C1"/>
<path fill-rule="evenodd" clip-rule="evenodd" d="M11.1441 39.7001C11.1441 39.7001 11.1441 39.7001 10.9212 39.7001C10.6983 39.7001 10.624 39.7001 10.624 39.7001C10.624 39.7001 10.624 39.443 10.9212 39.4063C11.2184 39.3696 11.1441 39.5899 11.1441 39.7001Z" fill="#D4E7C2"/>
<path fill-rule="evenodd" clip-rule="evenodd" d="M10.067 29.8945C9.98791 29.9571 9.88965 29.9912 9.78837 29.9912C9.68709 29.9912 9.58883 29.9571 9.50977 29.8945C9.59557 29.8495 9.69123 29.8259 9.78837 29.8259C9.88551 29.8259 9.98117 29.8495 10.067 29.8945Z" fill="#CAE2B4"/>
<path fill-rule="evenodd" clip-rule="evenodd" d="M35.587 42.271C35.5502 42.5435 35.4116 42.7925 35.1985 42.9692C34.9855 43.1459 34.7133 43.2374 34.4354 43.2258C33.8558 43.1524 33.2691 43.1524 32.6895 43.2258C32.6331 43.2581 32.569 43.275 32.5038 43.275C32.4386 43.275 32.3745 43.2581 32.3181 43.2258L31.6123 42.5648C31.6123 42.5648 31.6123 42.3077 31.3894 42.1975C31.1659 41.3548 31.1659 40.4694 31.3894 39.6267C31.3894 39.2595 31.3894 38.8922 31.3894 38.525C31.3859 38.3921 31.3543 38.2614 31.2967 38.1412C31.2392 38.021 31.1568 37.9141 31.0551 37.8272C30.9335 37.7033 30.8443 37.5521 30.795 37.3865C31.1665 37.3865 31.3151 37.8272 31.5008 38.0476C31.8287 38.4084 32.1759 38.7517 32.5409 39.0759C32.7567 39.1546 32.9938 39.1546 33.2096 39.0759C32.6679 38.1171 32.2558 37.0923 31.9837 36.0277C31.8723 35.6723 31.6819 35.3461 31.4265 35.0728C31.4265 35.0728 31.4265 35.0728 31.1294 35.0728C30.8322 35.0728 31.1294 35.0728 31.1294 35.3299C30.9805 35.958 30.9805 36.6115 31.1294 37.2396C31.1294 37.2396 31.1294 36.9091 30.9065 36.7622C30.8702 36.494 30.8702 36.2223 30.9065 35.9542C30.9591 35.7743 30.9591 35.5833 30.9065 35.4033C30.7851 35.2099 30.7406 34.9789 30.7818 34.7549C30.823 34.531 30.9469 34.3302 31.1294 34.1914C31.4448 33.8428 31.7797 33.5117 32.1323 33.1998C32.3217 33.0309 32.4627 32.8155 32.5409 32.5755C32.6053 32.428 32.6931 32.2916 32.801 32.1715C32.801 32.1715 33.1724 31.6574 33.6554 32.1715C34.0063 32.5692 34.3173 32.9997 34.584 33.4569C34.8351 33.8954 35.2093 34.2525 35.6613 34.4852C35.7404 34.5117 35.8124 34.5554 35.8721 34.6131C35.9317 34.6709 35.9775 34.7411 36.0061 34.8187C36.0346 34.8962 36.0451 34.9791 36.0369 35.0613C36.0286 35.1434 36.0019 35.2226 35.9585 35.2932C35.594 36.1616 35.0925 36.9673 34.4726 37.6803C34.1159 38.0751 33.8723 38.5569 33.7668 39.0759C33.738 39.2478 33.7575 39.4243 33.8229 39.5862C33.8884 39.748 33.9975 39.8891 34.1383 39.994C34.3896 40.1763 34.6644 40.3245 34.9555 40.4347C35.1959 40.5293 35.3984 40.6988 35.5325 40.9175C35.6666 41.1362 35.7249 41.3922 35.6984 41.6466C35.6268 41.6546 35.5596 41.6854 35.507 41.7342C35.4545 41.7831 35.4193 41.8474 35.4068 41.9176C35.3942 41.9879 35.405 42.0602 35.4375 42.1239C35.47 42.1876 35.5224 42.2392 35.587 42.271Z" fill="#C9E0B4"/>
<path fill-rule="evenodd" clip-rule="evenodd" d="M32.6151 32.3185C32.2743 33.09 31.7522 33.7699 31.0921 34.3016C30.572 34.7791 30.5349 34.9994 30.8692 35.6238C30.9233 35.791 30.9233 35.9707 30.8692 36.1379C30.8326 36.3937 30.8326 36.6533 30.8692 36.9091C30.8692 36.4317 30.4606 36.1746 30.2006 35.8808C29.8646 35.6466 29.5958 35.3303 29.4205 34.9627C29.3833 34.4492 29.3833 33.9337 29.4205 33.4202C29.4181 33.3148 29.4399 33.2102 29.4842 33.1144C29.5286 33.0185 29.5944 32.9338 29.6766 32.8666C29.7588 32.7994 29.8554 32.7516 29.959 32.7266C30.0626 32.7017 30.1706 32.7002 30.2749 32.7225C30.8426 32.7582 31.392 32.9351 31.8722 33.2366C31.8722 33.2366 32.1694 32.5756 32.4665 32.3552L32.6151 32.3185Z" fill="#E3EFD1"/>
<path fill-rule="evenodd" clip-rule="evenodd" d="M40.2674 34.9626C40.2674 34.9626 40.2674 35.2196 40.2674 35.3665C40.2674 35.5134 40.2674 35.3665 40.2674 35.3665C40.2674 35.3665 39.8959 35.8073 39.6359 35.8807C39.3758 35.9542 39.2272 36.1011 38.9672 36.1378C38.7072 36.1745 38.4472 36.7621 38.7072 37.0192V37.2028C38.5767 37.1613 38.4647 37.0765 38.3903 36.9627C38.3158 36.8489 38.2834 36.7132 38.2986 36.5785C38.2852 36.4485 38.3189 36.3181 38.3937 36.2105C38.4686 36.1029 38.5797 36.025 38.7072 35.9909C38.997 35.914 39.2681 35.78 39.5043 35.597C39.7405 35.414 39.9368 35.1857 40.0816 34.9258L40.2674 34.9626Z" fill="#CFE4BC"/>
<path fill-rule="evenodd" clip-rule="evenodd" d="M38.8186 37.313C39.2472 37.2228 39.6902 37.2228 40.1188 37.313C39.933 37.6068 39.673 37.313 39.413 37.313C39.1529 37.313 39.0043 37.6068 38.8186 37.313Z" fill="#CFE4BC"/>
<path fill-rule="evenodd" clip-rule="evenodd" d="M40.5647 33.9709C40.6378 34.0517 40.6782 34.1563 40.6782 34.2647C40.6782 34.3732 40.6378 34.4777 40.5647 34.5585C40.5276 34.3382 40.5276 34.1546 40.5647 33.9709Z" fill="#CFE4BC"/>
<path fill-rule="evenodd" clip-rule="evenodd" d="M40.416 34.5954C40.416 34.5954 40.416 34.8892 40.416 34.9627C40.3861 34.842 40.3861 34.716 40.416 34.5954Z" fill="#CFE4BC"/>
<path fill-rule="evenodd" clip-rule="evenodd" d="M35.0669 47.743C34.9 47.7665 34.7299 47.7406 34.5779 47.6687C34.4258 47.5969 34.2987 47.4821 34.2125 47.339C34.1196 46.9899 34.1196 46.623 34.2125 46.274C34.2294 46.1275 34.2294 45.9797 34.2125 45.8333C34.2125 45.5762 34.2125 45.1722 34.7697 45.2457C35.0452 45.2706 35.3116 45.3561 35.5494 45.4959C35.7871 45.6357 35.9904 45.8262 36.1441 46.0536C36.3947 46.4802 36.6805 46.8855 36.9985 47.2656L37.1471 47.743C36.6153 47.7052 36.0815 47.7052 35.5498 47.743C35.4383 47.743 35.2526 47.743 35.0669 47.743Z" fill="#E4F0D1"/>
<path fill-rule="evenodd" clip-rule="evenodd" d="M31.6121 42.6749C31.8744 43.0137 32.1876 43.311 32.5407 43.5563C32.3249 43.4955 32.1274 43.3834 31.9656 43.2297C31.8037 43.0761 31.6823 42.8856 31.6121 42.6749Z" fill="#EAF3D6"/>
<path fill-rule="evenodd" clip-rule="evenodd" d="M31.3894 42.1974L31.6123 42.5646C31.4939 42.4743 31.4143 42.3432 31.3894 42.1974Z" fill="#EAF3D6"/>
<path fill-rule="evenodd" clip-rule="evenodd" d="M41.8647 34.6689L41.6418 35.2565L41.0846 35.6237C41.0846 35.6237 41.0846 35.6237 40.8618 35.6237C40.6389 35.6237 40.8618 35.4034 40.8618 35.2932C40.9629 34.9577 40.9629 34.6004 40.8618 34.2649C40.8135 34.2013 40.7875 34.124 40.7875 34.0445C40.7875 33.9651 40.8135 33.8878 40.8618 33.8242C40.8618 33.8242 41.0846 33.3468 41.419 33.5304C41.5945 33.6228 41.7337 33.7706 41.8145 33.9503C41.8952 34.13 41.9129 34.3312 41.8647 34.522V34.6689Z" fill="#C3DCB1"/>
<path fill-rule="evenodd" clip-rule="evenodd" d="M39.2645 36.7253C39.2556 36.7772 39.2283 36.8242 39.1874 36.8579C39.1465 36.8916 39.0948 36.9097 39.0416 36.909C39.022 36.8755 39.0117 36.8375 39.0117 36.7988C39.0117 36.7601 39.022 36.7221 39.0416 36.6886C39.0416 36.6886 39.2273 36.4683 39.2645 36.7253Z" fill="#CFE4BC"/>
<path fill-rule="evenodd" clip-rule="evenodd" d="M40.8618 35.3298C40.8618 35.3298 40.6018 35.697 40.8618 35.6236C40.5275 35.6236 40.8618 35.4399 40.6389 35.3298H40.8618Z" fill="#C8DFB4"/>
<path fill-rule="evenodd" clip-rule="evenodd" d="M40.8618 35.4032H40.6389C40.6389 35.4032 40.8618 35.3297 40.8618 35.4032Z" fill="#CFE4BC"/>
<path d="M26.1143 6.69427C26.1019 6.6908 26.0896 6.68741 26.0772 6.68409C26.0913 6.68409 26.1035 6.6876 26.1143 6.69427Z" fill="#D0E4BB"/>
<path fill-rule="evenodd" clip-rule="evenodd" d="M25.4457 18.3627C25.3531 17.7786 25.3531 17.1839 25.4457 16.5998C25.9286 15.6083 25.4457 14.6534 25.4457 13.6985C25.4445 13.284 25.3289 12.8777 25.1113 12.5233C25.1113 12.3397 25.1113 12.2295 25.3342 12.2663L28.0459 12.5968C28.0767 12.5897 28.1087 12.5905 28.139 12.5991C28.1693 12.6077 28.1969 12.6238 28.2192 12.6458C28.2415 12.6679 28.2578 12.6952 28.2665 12.7251C28.2751 12.7551 28.276 12.7868 28.2688 12.8171C28.0831 12.8171 27.8231 12.8171 27.6745 13.1477C27.5857 13.2427 27.5364 13.3672 27.5364 13.4966C27.5364 13.6259 27.5857 13.7504 27.6745 13.8454C27.911 14.3569 28.1097 14.8847 28.2688 15.4246C28.4914 15.8691 28.5501 16.3765 28.4349 16.8592C28.3196 17.3419 28.0375 17.7697 27.6373 18.0689C27.5821 18.1705 27.5531 18.284 27.5531 18.3994C27.5531 18.5147 27.5821 18.6283 27.6373 18.7299C27.9275 19.3582 28.391 19.8928 28.9746 20.2724C29.1975 20.2724 29.4575 20.6396 29.3461 21.0069C29.3151 21.2865 29.2125 21.5536 29.0479 21.7831C28.8834 22.0125 28.6623 22.1966 28.4056 22.318C28.149 22.4393 27.8652 22.4939 27.5813 22.4766C27.2973 22.4592 27.0225 22.3705 26.7829 22.2188C26.7829 22.2188 26.4858 22.2188 26.3372 22.2188C26.1279 22.1044 25.9506 21.9406 25.8209 21.7419C25.6913 21.5433 25.6134 21.316 25.5942 21.0803C25.5942 20.5662 25.9657 20.1989 26.1143 19.7215C26.2629 19.2441 26.1143 19.3542 26.1143 19.1706C26.1143 18.987 25.3714 18.8034 25.4457 18.3627Z" fill="#D6E9C1"/>
<path fill-rule="evenodd" clip-rule="evenodd" d="M29.0118 21.264C29.0005 21.1392 28.9614 21.0184 28.8971 20.9104C28.8329 20.8024 28.7452 20.7099 28.6403 20.6396C27.9871 20.2277 27.4806 19.6242 27.1915 18.9135C27.1915 18.7299 27.1915 18.5096 27.1915 18.3259C27.1542 18.4204 27.1542 18.5253 27.1915 18.6197L28.9003 20.3091H29.1975C29.1975 20.3091 29.1975 20.6029 29.1975 20.7498C29.1975 20.8967 29.0861 21.1538 29.0118 21.264Z" fill="#D1E4BC"/>
<path fill-rule="evenodd" clip-rule="evenodd" d="M20.1709 4.59073C20.1709 3.67259 20.8767 3.23189 21.471 2.75446C21.7362 2.67844 22.0136 2.65351 22.2883 2.68101C22.6226 2.68101 22.6969 2.68101 22.2883 3.12171C22.2329 3.16996 22.1886 3.2293 22.1583 3.29579C22.1279 3.36227 22.1122 3.43438 22.1122 3.50733C22.1122 3.58028 22.1279 3.65239 22.1583 3.71887C22.1886 3.78536 22.2329 3.8447 22.2883 3.89295C22.3782 3.97824 22.498 4.02586 22.6226 4.02586C22.7472 4.02586 22.867 3.97824 22.9569 3.89295C23.1798 3.89295 22.9569 3.56242 22.9569 3.41552C22.9569 3.26862 22.9569 3.41552 22.9569 3.41552C22.9569 3.41552 22.6969 3.15844 22.9569 3.01154C23.217 2.86464 23.217 3.01154 23.3655 3.01154C23.9465 3.28469 24.4457 3.7023 24.8143 4.22347C25.0064 4.43781 25.2178 4.63448 25.4458 4.81108L24.9257 5.54559C24.756 5.74183 24.5319 5.88466 24.2811 5.95645C24.0302 6.02824 23.7636 6.02584 23.5141 5.94956C23.366 5.96625 23.2165 5.96625 23.0684 5.94956C22.854 5.80166 22.6307 5.66675 22.3997 5.54559L21.7311 4.77435C21.6268 4.67994 21.515 4.59397 21.3968 4.51728C21.3968 4.51728 21.3968 4.51728 21.1367 4.51728C20.7653 4.29692 20.5052 4.51728 20.1709 4.59073Z" fill="#E5F0D3"/>
<path fill-rule="evenodd" clip-rule="evenodd" d="M23.2169 5.72918C23.477 5.72918 23.6999 5.72918 23.9227 5.72918C24.1884 5.74185 24.4527 5.68379 24.6879 5.56105C24.9231 5.43831 25.1207 5.2554 25.26 5.0314C25.26 5.0314 25.26 4.66415 25.5944 4.5907C25.5944 4.5907 25.2229 4.95795 25.0743 5.10485C24.8917 5.32804 24.6439 5.49011 24.3647 5.56898C24.0855 5.64784 23.7885 5.63967 23.5141 5.54556C23.5141 5.54556 23.1427 5.54556 23.0684 5.36193L23.2169 5.72918Z" fill="#DAEAC8"/>
<path fill-rule="evenodd" clip-rule="evenodd" d="M27.786 6.90446C26.9815 6.45752 26.2845 5.84359 25.7429 5.10492C25.7429 5.10492 25.7429 5.10492 25.7429 5.10492C26.1732 5.62276 26.6731 6.07995 27.2288 6.46376C27.4421 6.57287 27.6315 6.72265 27.786 6.90446Z" fill="#DDEBC7"/>
<path fill-rule="evenodd" clip-rule="evenodd" d="M29.1604 24.8264C29.1604 24.8264 29.4204 24.8264 29.569 24.8264C29.5831 24.7044 29.5831 24.5812 29.569 24.4591C29.569 24.4591 29.569 24.2021 29.3461 24.4591C29.1232 24.7162 28.8261 24.4591 28.566 24.4591C28.5295 24.4187 28.5093 24.3664 28.5093 24.3122C28.5093 24.258 28.5295 24.2057 28.566 24.1653C28.566 24.1653 28.7889 23.9083 28.9747 24.1653C29.0335 24.1411 29.0966 24.1286 29.1604 24.1286C29.2241 24.1286 29.2873 24.1411 29.3461 24.1653C29.3461 24.1653 29.569 24.4959 29.829 24.1653C30.0891 23.8348 30.0519 24.1653 30.0519 24.1653C30.0519 24.1653 30.0519 24.4959 30.3491 24.4591C30.6463 24.4224 30.6091 24.2021 30.7577 24.0552C30.9063 23.9083 30.7577 24.0552 30.7577 24.0552C30.7577 24.0552 30.4234 23.7981 30.7577 23.6145C30.7577 23.6145 30.9806 23.3207 31.1292 23.6145C31.1675 23.6417 31.1988 23.6775 31.2203 23.719C31.2419 23.7605 31.2531 23.8065 31.2531 23.8532C31.2531 23.8998 31.2419 23.9458 31.2203 23.9873C31.1988 24.0289 31.1675 24.0647 31.1292 24.0919C30.9434 24.0919 31.1292 24.349 31.1292 24.4959C31.1292 24.6428 31.1292 24.4959 31.1292 24.753C30.7949 24.5326 30.7577 25.3406 30.3862 24.9733C30.3862 25.1937 30.3862 25.3406 30.3862 25.5976C30.6463 25.1569 31.1292 25.5976 31.4635 25.2671C31.7978 24.9366 31.6492 25.2671 31.4635 25.2671C31.4443 25.3517 31.4443 25.4395 31.4635 25.5242C31.4635 26.0016 31.4635 26.0016 31.0549 25.818C30.6463 25.6344 31.0549 25.818 31.0549 26.0751C31.0549 26.3321 31.3521 26.4423 31.0549 26.4423C30.7577 26.4423 31.0549 26.4423 31.0549 26.6994C31.0549 26.9565 31.0549 26.9197 30.832 26.6994C30.6091 26.479 30.6463 26.6994 30.832 26.4423C31.0177 26.1852 30.832 26.222 30.832 26.1852V26.4423C30.832 26.7361 30.832 27.1034 31.1663 27.3237C31.5007 27.5441 31.1663 27.6175 31.1663 27.7277C31.1119 27.6528 31.0826 27.5629 31.0826 27.4706C31.0826 27.3784 31.1119 27.2885 31.1663 27.2136C31.1295 26.6878 31.1295 26.1601 31.1663 25.6344C31.1457 25.4507 31.0852 25.2736 30.989 25.1152C30.8929 24.9568 30.7633 24.8207 30.6091 24.7162C30.6091 24.7162 29.1975 24.8631 29.1604 24.8264Z" fill="#D3E4B9"/>
<path fill-rule="evenodd" clip-rule="evenodd" d="M30.0891 27.9847C30.0891 27.9847 30.0891 28.2785 30.0891 28.3887C30.0891 28.6825 30.0891 28.9763 30.0891 29.2701V29.6741C29.6805 29.9679 29.7176 29.9679 29.3461 29.6741L28.3803 28.7927C28.017 28.3639 27.785 27.8415 27.7117 27.2869C27.9932 27.6195 28.304 27.9267 28.6403 28.2051C28.6403 28.2051 28.9375 28.2051 29.1233 28.4254C29.309 28.6458 29.7176 28.5356 30.0891 27.9847Z" fill="#CCE0B8"/>
<path fill-rule="evenodd" clip-rule="evenodd" d="M30.089 27.9847C30.123 28.1162 30.103 28.2556 30.0334 28.3725C29.9638 28.4895 29.8503 28.5745 29.7176 28.609C29.5399 28.6654 29.3492 28.6674 29.1703 28.615C28.9914 28.5626 28.8326 28.4582 28.7146 28.3152L29.7176 27.3604C29.7176 27.14 29.9405 27.3604 30.0519 27.3604C30.1633 27.3604 30.0519 27.8011 30.089 27.9847Z" fill="#BBD2A9"/>
<path fill-rule="evenodd" clip-rule="evenodd" d="M26.8944 24.6794C27.3621 24.6071 27.8383 24.6071 28.306 24.6794C28.4042 24.6973 28.5049 24.6973 28.6032 24.6794C28.6032 24.6794 28.9746 24.6794 29.0118 24.8997C29.0489 25.1201 28.566 24.8997 28.306 24.8997C27.8494 24.8475 27.3882 24.8475 26.9315 24.8997C26.8595 24.9456 26.7757 24.97 26.6901 24.97C26.6044 24.97 26.5206 24.9456 26.4486 24.8997L25.5942 24.0551C25.78 24.0551 25.8543 24.0551 25.9286 24.0551C26.1068 24.1823 26.2689 24.3303 26.4115 24.4958C26.555 24.5948 26.7207 24.6579 26.8944 24.6794Z" fill="#D3E4B9"/>
<path fill-rule="evenodd" clip-rule="evenodd" d="M34.2868 28.9763C34.3723 29.2012 34.3723 29.4492 34.2868 29.6741C34.2315 29.4447 34.2315 29.2057 34.2868 28.9763Z" fill="#DAEAC3"/>
<path fill-rule="evenodd" clip-rule="evenodd" d="M30.1633 29.3803C30.1633 29.0865 30.1633 28.7927 30.1633 28.4989C30.2005 28.8294 30.3119 29.1232 30.1633 29.3803Z" fill="#D3E4B9"/>
<path fill-rule="evenodd" clip-rule="evenodd" d="M36.59 25.4874C36.59 25.4874 36.3671 25.7812 36.2185 25.8914C36.0699 26.0016 36.4414 25.7078 36.59 25.4874Z" fill="#DAEAC3"/>
<path fill-rule="evenodd" clip-rule="evenodd" d="M35.9212 26.1852C35.909 26.2724 35.8706 26.354 35.811 26.4195C35.7514 26.4849 35.6734 26.5312 35.5869 26.5524C35.6568 26.3985 35.7737 26.2701 35.9212 26.1852Z" fill="#DAEAC3"/>
<path fill-rule="evenodd" clip-rule="evenodd" d="M34.5098 28.3153C34.5098 28.3153 34.5098 28.7193 34.2869 28.8295C34.3053 28.6393 34.3832 28.4596 34.5098 28.3153Z" fill="#DAEAC3"/>
<path fill-rule="evenodd" clip-rule="evenodd" d="M37.6672 24.3122C37.6743 24.3426 37.6735 24.3742 37.6648 24.4042C37.6562 24.4342 37.6399 24.4615 37.6176 24.4835C37.5953 24.5055 37.5677 24.5216 37.5374 24.5302C37.5071 24.5388 37.4751 24.5396 37.4443 24.5325L37.6672 24.3122Z" fill="#DAEAC3"/>
<path fill-rule="evenodd" clip-rule="evenodd" d="M36.1442 25.9648C36.1442 25.9648 36.1442 26.1852 35.9585 26.1852C35.9729 26.138 35.9968 26.0942 36.0287 26.0564C36.0606 26.0185 36.0999 25.9874 36.1442 25.9648Z" fill="#DAEAC3"/>
<path fill-rule="evenodd" clip-rule="evenodd" d="M34.7696 27.691C34.8062 27.7314 34.8264 27.7837 34.8264 27.8379C34.8264 27.8921 34.8062 27.9444 34.7696 27.9848C34.7496 27.8879 34.7496 27.788 34.7696 27.691Z" fill="#DAEAC3"/>
<path fill-rule="evenodd" clip-rule="evenodd" d="M37.1472 24.9732C37.1472 24.9732 37.1472 25.1936 36.9243 25.1936C36.9403 25.1415 36.969 25.0942 37.0078 25.0558C37.0467 25.0173 37.0946 24.989 37.1472 24.9732Z" fill="#DAEAC3"/>
<path fill-rule="evenodd" clip-rule="evenodd" d="M26.0031 19.2441C26.034 19.2681 26.059 19.2988 26.0761 19.3338C26.0933 19.3688 26.1022 19.4072 26.1022 19.4461C26.1022 19.485 26.0933 19.5233 26.0761 19.5583C26.059 19.5933 26.034 19.624 26.0031 19.6481C25.8118 20.175 25.5885 20.6901 25.3344 21.1905C25.0744 21.5945 25.3344 21.8516 25.5944 22.1454C25.7217 22.2341 25.8137 22.364 25.8545 22.5126C25.6316 22.5126 25.5944 22.5126 25.5201 22.2556C25.3239 22.147 25.1103 22.0725 24.8886 22.0352C24.6658 22.0352 24.6286 21.7414 24.8886 21.521C25.1487 21.3007 24.8886 21.521 24.8886 21.521H24.4429C24.4211 21.6873 24.444 21.8562 24.5092 22.011C24.5744 22.1657 24.6796 22.3007 24.8143 22.4025C25.1294 22.665 25.4272 22.9471 25.7059 23.2471C25.727 23.3034 25.765 23.3519 25.8148 23.3861C25.8646 23.4203 25.9238 23.4387 25.9845 23.4387C26.0451 23.4387 26.1044 23.4203 26.1542 23.3861C26.204 23.3519 26.242 23.3034 26.2631 23.2471C26.5231 23.2471 26.7831 23.2471 26.9689 23.4675C27.1546 23.6878 26.9689 23.4675 26.9689 23.4675C27.0538 23.402 27.1584 23.3664 27.2661 23.3664C27.3737 23.3664 27.4784 23.402 27.5632 23.4675C27.5632 23.1737 28.0833 23.4675 28.269 23.0268C28.4548 22.5861 28.6776 23.0268 28.9005 23.0268C29.1234 23.0268 29.0863 23.0268 29.1234 23.0268C29.1606 23.0268 29.7178 22.2188 29.7178 22.0352C29.7178 21.8516 29.7178 22.0352 29.4577 22.0352C29.1977 22.0352 29.4577 22.0352 29.2349 22.0352C29.2013 21.9865 29.1834 21.9289 29.1834 21.8699C29.1834 21.811 29.2013 21.7534 29.2349 21.7047C29.2349 21.7047 29.2349 21.7047 29.4206 21.7047C29.6063 21.7047 29.4206 21.7047 29.6435 21.7047C29.8664 21.7047 29.6435 21.7047 29.6435 21.4843C29.6435 21.264 29.6435 21.4843 29.6435 21.4843C29.7761 21.6105 29.9336 21.7082 30.1062 21.7714C30.2788 21.8346 30.4627 21.8619 30.6464 21.8516C30.8322 21.8516 30.9065 22.1087 30.6464 22.1821C30.3864 22.2556 30.6464 22.5494 30.3121 22.4759C29.9778 22.4025 30.3121 22.4759 30.3121 22.4759C30.3215 22.5586 30.3544 22.637 30.407 22.702C30.4596 22.767 30.5297 22.8159 30.6093 22.8432C30.6093 22.8432 30.6093 22.8432 30.8322 22.8432C31.0551 22.8432 30.8322 22.8432 30.8322 22.8432C30.8343 23.0106 30.7754 23.1733 30.6663 23.3014C30.5572 23.4295 30.4051 23.5145 30.2378 23.5409C30.0149 23.5409 29.8664 23.5409 29.6435 23.5409C29.4206 23.5409 29.4577 23.5409 29.6435 23.5409C29.8292 23.5409 29.6435 23.5409 29.6435 23.5409C29.6435 23.5409 29.9778 23.5409 29.9778 23.3206C29.9778 23.1002 29.9778 23.1002 29.9778 23.0268C29.9778 22.9533 29.9778 23.0268 29.7549 23.0268L29.7178 22.9166C29.7178 22.9166 29.4577 22.9166 29.3834 22.9166C29.3091 22.9166 29.1234 22.6595 28.9377 22.9166C28.8289 22.9504 28.7122 22.9504 28.6034 22.9166C28.3062 22.9166 28.1947 22.9166 28.3805 23.394C28.3805 23.394 28.0461 23.1737 27.9719 23.394C27.8976 23.6144 27.9719 23.6511 28.3433 23.6878C28.7148 23.7246 28.5662 23.6878 28.5291 23.6878C28.4919 23.6878 28.5291 23.9449 28.3433 24.0184C28.1576 24.0918 28.3433 24.0184 28.1204 23.7613C27.8976 23.5042 28.1204 24.1653 27.8976 24.2387C27.8344 24.2709 27.7643 24.2877 27.6932 24.2877C27.6222 24.2877 27.5521 24.2709 27.4889 24.2387C27.8976 23.9816 27.8976 23.9082 27.4889 23.6144C27.2661 23.2104 26.7831 23.3573 26.486 23.2104C26.1888 23.0635 26.486 23.2104 26.2631 23.2104C26.0402 23.2104 26.2631 23.2104 26.2631 23.2104C26.2631 23.2104 25.0372 22.329 24.5915 22.0352L23.217 20.7131C23.1517 20.6849 23.096 20.6388 23.0565 20.5802C23.017 20.5216 22.9953 20.453 22.9941 20.3826L24.22 21.7414C24.4429 21.521 24.22 21.4109 24.22 21.3374C24.22 21.264 24.22 21.0803 24.22 20.9702C24.1674 20.7405 24.1674 20.5021 24.22 20.2724C24.22 19.8684 24.4429 19.8317 24.7029 19.8317H25.5573C25.6687 19.5746 25.743 19.4277 26.0031 19.2441Z" fill="#D3E4B9"/>
<path fill-rule="evenodd" clip-rule="evenodd" d="M26.003 23.1737C26.003 23.1737 26.3373 23.1737 26.523 23.1737C26.7088 23.1737 27.266 23.541 27.0431 24.0918V24.4591C27.0431 24.4591 26.7459 24.4591 26.5973 24.4591C26.3672 24.1583 26.0762 23.9082 25.743 23.7246C25.6687 23.6144 26.003 23.4675 26.003 23.1737Z" fill="#D6E9C1"/>
<path fill-rule="evenodd" clip-rule="evenodd" d="M30.0892 21.1906C30.0892 21.1906 30.4606 21.1906 30.4235 21.3742C30.3863 21.5579 30.4235 21.3742 30.4235 21.3742H30.052C30.052 21.3742 30.0149 21.1906 30.0892 21.1906Z" fill="#D3E4B9"/>
<path fill-rule="evenodd" clip-rule="evenodd" d="M28.8263 22.9534C28.8263 22.9534 28.5291 22.9534 28.3805 22.9534C28.2319 22.9534 28.3805 22.9534 28.3805 22.9534C28.3805 22.9534 28.752 23.0636 28.8263 22.9534Z" fill="#D3E4B9"/>
<path fill-rule="evenodd" clip-rule="evenodd" d="M26.263 22.7698C26.2008 22.7529 26.1441 22.7204 26.0985 22.6753C26.0529 22.6302 26.02 22.5742 26.0029 22.5127C26.1184 22.5642 26.2108 22.6556 26.263 22.7698Z" fill="#D3E4B9"/>
<path fill-rule="evenodd" clip-rule="evenodd" d="M27.8604 8.52041C27.6166 8.72724 27.3218 8.86662 27.006 8.92439C26.9324 8.94647 26.8549 8.95217 26.7789 8.94108C26.7028 8.92999 26.6303 8.90238 26.5663 8.86024C26.5024 8.8181 26.4487 8.76247 26.4091 8.69736C26.3695 8.63225 26.345 8.55928 26.3373 8.48368C26.3373 7.96953 26.3373 7.45537 26.1144 6.94122C25.8916 6.42707 26.1144 6.94122 26.1144 6.94122C26.6375 6.94081 27.151 7.0804 27.6003 7.3452C27.7085 7.43366 27.808 7.53203 27.8975 7.639C27.9338 7.93284 27.9212 8.23057 27.8604 8.52041Z" fill="#BFDBAD"/>
<path fill-rule="evenodd" clip-rule="evenodd" d="M26.003 19.2441C26.003 19.5012 26.003 19.6481 25.6687 19.6481L24.5914 19.8317C24.505 19.8529 24.4269 19.8992 24.3673 19.9646C24.3077 20.0301 24.2694 20.1117 24.2571 20.1989C24.1583 19.7267 23.9958 19.2697 23.7742 18.8401C23.665 18.554 23.4535 18.3174 23.1796 18.1752C22.9057 18.0331 22.5886 17.9952 22.2883 18.0689C22.2883 18.0689 22.2883 18.1056 22.2883 18.3627C22.2502 18.1686 22.2502 17.9691 22.2883 17.7751C22.2883 17.7751 22.2883 17.4813 22.2883 17.3711C22.2718 17.3367 22.2632 17.299 22.2632 17.2609C22.2632 17.2228 22.2718 17.1852 22.2883 17.1507C22.2883 16.8202 22.7341 16.8937 22.957 16.8202C23.3818 16.7805 23.7964 16.6686 24.1828 16.4897C24.5723 16.8258 24.9443 17.1813 25.2972 17.5547C25.4522 17.6835 25.5895 17.8317 25.7059 17.9954C25.5807 18.0862 25.4893 18.2153 25.4458 18.3627C25.6001 18.6748 25.7868 18.9702 26.003 19.2441Z" fill="#C7DFAD"/>
<path fill-rule="evenodd" clip-rule="evenodd" d="M22.0654 15.0208H22.2882C22.2882 15.2778 22.5111 15.5349 22.8826 15.4247C22.9319 15.3916 22.9901 15.3738 23.0498 15.3738C23.1094 15.3738 23.1676 15.3916 23.2169 15.4247C23.2169 15.4247 23.5141 15.6084 23.5512 15.8287C23.5884 16.0491 23.5512 16.196 23.2169 16.2327L21.8796 16.4898C21.8796 16.4898 21.8796 16.4898 21.6567 16.4898C21.8285 16.0104 21.965 15.5195 22.0654 15.0208Z" fill="#D6E9C2"/>
<path fill-rule="evenodd" clip-rule="evenodd" d="M21.8425 17.3345C21.8751 17.3969 21.8921 17.4662 21.8921 17.5365C21.8921 17.6067 21.8751 17.676 21.8425 17.7385C21.7908 17.6087 21.7908 17.4643 21.8425 17.3345Z" fill="#D0E4BB"/>
<path fill-rule="evenodd" clip-rule="evenodd" d="M24.22 20.8967C24.22 20.8967 24.22 21.1171 24.22 21.264C24.22 21.4109 24.2571 21.0069 24.22 20.8967Z" fill="#C7DFAD"/>
<path fill-rule="evenodd" clip-rule="evenodd" d="M22.9941 34.8891L24.3686 36.2847C24.7029 36.6152 24.7029 36.6152 24.3686 36.8356C23.5595 36.7407 22.8165 36.3472 22.2883 35.7338C22.1423 35.5506 21.956 35.4025 21.7437 35.3008C21.5314 35.199 21.2985 35.1461 21.0625 35.1462C21.0625 35.1462 20.7653 35.1462 20.5796 35.1462C20.3938 35.1462 19.8738 34.7055 19.9852 34.0445C19.9946 33.9341 20.0456 33.8312 20.1282 33.7563C20.2108 33.6815 20.3189 33.6401 20.431 33.6405C20.5774 33.6047 20.7304 33.6047 20.8767 33.6405C21.1206 33.8565 21.3814 34.053 21.6568 34.2281C21.6568 34.2281 21.6568 34.2281 21.9169 34.2281C22.0998 34.2323 22.2799 34.2736 22.446 34.3494C22.6121 34.4252 22.7608 34.5339 22.8827 34.6688L22.9941 34.8891Z" fill="#C4D9A9"/>
<path fill-rule="evenodd" clip-rule="evenodd" d="M20.5423 33.6037C20.4309 33.647 20.33 33.713 20.246 33.7973C20.162 33.8816 20.0969 33.9825 20.0549 34.0933C20.0129 34.2041 19.9949 34.3224 20.002 34.4405C20.0092 34.5586 20.0414 34.6739 20.0965 34.7789C20.0965 34.9993 20.5423 34.7789 20.6166 35.1095C20.6909 35.44 19.9851 34.9258 19.9851 34.4117C19.9851 33.8975 19.9851 33.8241 19.9851 33.6037C19.9851 33.3834 20.2451 33.6037 20.3566 33.6037H20.5423Z" fill="#CBDEB3"/>
<path fill-rule="evenodd" clip-rule="evenodd" d="M21.6939 34.2649C21.5281 34.2298 21.3723 34.1589 21.2374 34.0573C21.1026 33.9557 20.9921 33.826 20.9138 33.6773C21.1738 33.8977 21.5453 33.9344 21.6939 34.2649Z" fill="#CBDEB3"/>
<path fill-rule="evenodd" clip-rule="evenodd" d="M20.8394 33.6038H20.5422C20.5422 33.6038 20.7651 33.4569 20.8394 33.6038Z" fill="#CFE4B8"/>
<path fill-rule="evenodd" clip-rule="evenodd" d="M20.1709 4.59064C20.2931 4.46539 20.4515 4.38053 20.6244 4.34766C20.7973 4.31479 20.9762 4.33552 21.1367 4.40702C20.7891 4.42166 20.4533 4.53655 20.1709 4.73755V4.59064Z" fill="#DCECCB"/>
<path fill-rule="evenodd" clip-rule="evenodd" d="M41.0847 35.6237C41.0847 35.4033 41.3447 35.2197 41.6419 35.2564C41.5846 35.3565 41.5043 35.4418 41.4075 35.5056C41.3108 35.5694 41.2002 35.6098 41.0847 35.6237Z" fill="#C8DFB4"/>
<path fill-rule="evenodd" clip-rule="evenodd" d="M12.5185 40.3979C12.5489 40.441 12.5652 40.4923 12.5652 40.5448C12.5652 40.5973 12.5489 40.6486 12.5185 40.6917L12.2957 40.3979H12.5185Z" fill="#D4E6C2"/>
<path fill-rule="evenodd" clip-rule="evenodd" d="M38.4844 22.88C38.4844 23.1004 38.4844 23.2473 38.4844 23.3207C38.4665 23.1743 38.4665 23.0264 38.4844 22.88Z" fill="#D6E9C3"/>
<path fill-rule="evenodd" clip-rule="evenodd" d="M38.4102 23.3207C38.468 23.1793 38.468 23.0213 38.4102 22.88C38.4163 22.8271 38.4353 22.7764 38.4656 22.7324C38.4958 22.6883 38.5364 22.6521 38.5838 22.6269C38.6312 22.6016 38.6841 22.5881 38.7379 22.5874C38.7918 22.5867 38.845 22.5989 38.8931 22.6229C38.8931 22.6229 39.2274 22.6229 39.376 22.6229C39.5246 22.6229 39.8217 22.6229 39.7103 23.137C39.5989 23.6512 39.7103 23.137 39.7103 23.137C39.591 23.2276 39.4901 23.3398 39.4131 23.4676C39.2274 23.6879 39.0417 23.945 38.7445 23.8715C38.646 23.8154 38.5636 23.7353 38.5051 23.6389C38.4466 23.5426 38.4139 23.433 38.4102 23.3207Z" fill="#CBDCBA"/>
<path fill-rule="evenodd" clip-rule="evenodd" d="M37.5185 28.8294C37.5088 29.0609 37.451 29.288 37.3488 29.4965C37.2465 29.705 37.102 29.8904 36.9242 30.0414C36.9242 30.0414 36.9242 30.0414 36.6641 30.0414C36.2252 29.4914 35.9545 28.8287 35.884 28.1316C35.884 27.7644 36.1069 27.3604 36.3669 27.3604C36.627 27.3604 36.9242 27.3604 37.1099 27.7644C37.2956 28.1684 37.5185 28.4622 37.5185 28.8294Z" fill="#E1EECD"/>
<path fill-rule="evenodd" clip-rule="evenodd" d="M31.092 37.3865C30.8639 36.6693 30.8639 35.9001 31.092 35.1829C31.092 34.8891 31.3149 34.8891 31.5006 35.1829C31.857 35.4962 32.1149 35.9041 32.2436 36.3581C32.4657 37.1698 32.7387 37.9671 33.0608 38.7453L33.5066 39.4798C33.1892 39.4905 32.8768 39.4004 32.615 39.2227C32.0521 38.7512 31.5416 38.2218 31.092 37.6435V37.3865Z" fill="#B9D4A6"/>
<path fill-rule="evenodd" clip-rule="evenodd" d="M33.4324 42.3444C33.2515 42.3446 33.0774 42.2762 32.946 42.1532C32.8147 42.0301 32.7361 41.862 32.7266 41.6833C32.7257 41.6187 32.7392 41.5547 32.766 41.4958C32.7929 41.4369 32.8326 41.3846 32.8822 41.3425C32.9318 41.3005 32.9902 41.2697 33.0532 41.2525C33.1162 41.2352 33.1822 41.2318 33.2467 41.2426C33.7296 41.2426 34.1382 41.5364 34.1011 41.8302C34.0609 41.9759 33.974 42.1048 33.8534 42.1975C33.7329 42.2902 33.5851 42.3418 33.4324 42.3444Z" fill="#D5E8BF"/>
<path fill-rule="evenodd" clip-rule="evenodd" d="M22.2882 15.0207C22.252 14.5194 22.252 14.0163 22.2882 13.515C22.3118 13.2983 22.2839 13.0791 22.2065 12.875C22.129 12.671 22.0044 12.4876 21.8424 12.3398C21.3595 11.7522 21.3595 11.238 22.2139 10.9075C22.6156 10.7082 23.0681 10.6315 23.514 10.6871C24.1827 10.6871 24.4798 11.2747 24.777 11.7522V12.1561C24.777 12.1561 24.777 12.3765 24.777 12.45C24.3311 13.0311 24.0032 13.6921 23.8112 14.3964C23.6213 14.7656 23.3402 15.0814 22.994 15.3145C22.6968 15.5349 22.3996 15.3145 22.1396 15.3145L22.2882 15.0207Z" fill="#C4DFB0"/>
<path fill-rule="evenodd" clip-rule="evenodd" d="M25.1856 17.9587C24.6067 17.5326 24.0936 17.0254 23.6626 16.453C23.6626 16.1959 23.6626 15.9388 23.6626 15.7185C23.7454 15.6363 23.8438 15.5711 23.9522 15.5266C24.0606 15.4821 24.1768 15.4592 24.2941 15.4592C24.4114 15.4592 24.5276 15.4821 24.636 15.5266C24.7444 15.5711 24.8428 15.6363 24.9256 15.7185L25.3342 16.1224C25.3708 16.1628 25.391 16.2151 25.391 16.2694C25.391 16.3236 25.3708 16.3759 25.3342 16.4163C25.2082 16.5891 25.1228 16.7877 25.0843 16.9973C25.0457 17.207 25.055 17.4225 25.1113 17.6282C25.1594 17.7319 25.1848 17.8446 25.1856 17.9587Z" fill="#C4DFB0"/>
<path fill-rule="evenodd" clip-rule="evenodd" d="M23.217 5.72917C22.6726 5.53033 22.1784 5.21708 21.7683 4.81104C21.7683 4.81104 21.7683 4.81104 21.7683 4.81104L23.217 5.72917Z" fill="#DCECCA"/>
<path fill-rule="evenodd" clip-rule="evenodd" d="M21.6939 4.73763C21.6939 4.55401 21.2853 4.73763 21.1367 4.4071H21.3967C21.468 4.43687 21.5317 4.48199 21.5831 4.53917C21.6345 4.59635 21.6724 4.66415 21.6939 4.73763Z" fill="#D8E9C4"/>
<path fill-rule="evenodd" clip-rule="evenodd" d="M21.3967 4.48066H21.1367C21.1367 4.48066 21.3596 4.29703 21.3967 4.48066Z" fill="#DCECCB"/>
</g>
<defs>
<clipPath id="clip0">
<rect width="50" height="48" fill="white"/>
</clipPath>
</defs>
</svg>
