<svg width="150" height="150" viewBox="0 0 150 150" fill="none" xmlns="http://www.w3.org/2000/svg">
<g clip-path="url(#clip0)">
<path opacity="0.4" d="M149.036 87.0175C155.673 46.1313 127.908 7.60629 87.0217 0.969521C46.1355 -5.66725 7.61048 22.0974 0.973717 62.9836C-5.66305 103.87 22.1016 142.395 62.9878 149.032C103.874 155.668 142.399 127.904 149.036 87.0175Z" fill="#26465E"/>
<path d="M138.464 85.3016C144.153 50.2541 120.353 17.2307 85.3057 11.5416C50.2582 5.85264 17.2347 29.6524 11.5457 64.6999C5.85673 99.7473 29.6565 132.771 64.704 138.46C99.7514 144.149 132.775 120.349 138.464 85.3016Z" fill="white"/>
<path d="M50.8881 44.3401H42.1755V50.1392H50.8881V44.3401Z" fill="#49C1E2"/>
<path d="M52.7193 43.7018C52.7193 43.9299 52.6286 44.1487 52.4673 44.31C52.306 44.4713 52.0872 44.5619 51.8591 44.5619H41.2598C41.0316 44.5619 40.8129 44.4713 40.6516 44.31C40.4902 44.1487 40.3996 43.9299 40.3996 43.7018V37.4587C40.3959 37.3434 40.4154 37.2286 40.457 37.121C40.4985 37.0134 40.5613 36.9153 40.6415 36.8325C40.7218 36.7496 40.8179 36.6838 40.9241 36.6388C41.0303 36.5939 41.1444 36.5707 41.2598 36.5708H51.8314C51.9467 36.5707 52.0608 36.5939 52.1671 36.6388C52.2733 36.6838 52.3694 36.7496 52.4496 36.8325C52.5298 36.9153 52.5926 37.0134 52.6342 37.121C52.6757 37.2286 52.6952 37.3434 52.6915 37.4587V43.7018H52.7193Z" fill="#0A6799"/>
<g opacity="0.1">
<path opacity="0.1" d="M44.0067 43.7018V37.4587C44.003 37.3434 44.0225 37.2286 44.0641 37.121C44.1056 37.0134 44.1684 36.9153 44.2486 36.8325C44.3289 36.7496 44.425 36.6838 44.5312 36.6388C44.6374 36.5939 44.7515 36.5707 44.8669 36.5708H41.2598C41.1444 36.5707 41.0303 36.5939 40.9241 36.6388C40.8179 36.6838 40.7218 36.7496 40.6415 36.8325C40.5613 36.9153 40.4985 37.0134 40.457 37.121C40.4154 37.2286 40.3959 37.3434 40.3996 37.4587V43.7018C40.3996 43.9299 40.4902 44.1487 40.6516 44.31C40.8129 44.4713 41.0316 44.5619 41.2598 44.5619H44.8669C44.6387 44.5619 44.42 44.4713 44.2587 44.31C44.0973 44.1487 44.0067 43.9299 44.0067 43.7018Z" fill="#010101"/>
</g>
<path d="M52.7192 74.7505V74.6117C52.5015 74.1941 52.3517 73.7445 52.2753 73.2799C52.0689 72.1788 52.2283 71.0405 52.7293 70.0385C53.2303 69.0366 54.0453 68.226 55.05 67.7305C55.0754 67.7045 55.0896 67.6697 55.0896 67.6334C55.0896 67.597 55.0754 67.5622 55.05 67.5362C55.05 67.2588 54.8835 66.9813 54.828 66.7038C54.6828 65.8251 54.7675 64.9238 55.0738 64.0875C55.3801 63.2512 55.8976 62.5084 56.576 61.9314V58.6572H36.071V76.554H49.9445C50.6645 75.6846 51.6324 75.0554 52.7192 74.7505Z" fill="#0A6799"/>
<path d="M72.7248 63.5963C72.7523 63.8916 72.7523 64.1889 72.7248 64.4842C72.7243 64.524 72.738 64.5626 72.7634 64.5931C72.7888 64.6236 72.8244 64.6441 72.8636 64.6507C73.9162 64.7348 74.916 65.1468 75.7223 65.8286C76.5286 66.5105 77.1008 67.428 77.3586 68.452C78.227 67.6428 79.3396 67.145 80.5217 67.0369C80.5609 67.0303 80.5964 67.0099 80.6219 66.9794C80.6473 66.9488 80.661 66.9102 80.6605 66.8704C80.7538 64.5114 81.7466 62.2775 83.4352 60.6274C83.1433 58.2321 82.1045 55.9895 80.4662 54.2178C80.3834 54.1322 80.2843 54.0642 80.1746 54.0177C80.065 53.9712 79.9471 53.9473 79.8281 53.9473C79.709 53.9473 79.5911 53.9712 79.4815 54.0177C79.3718 54.0642 79.2727 54.1322 79.1899 54.2178L71.9202 61.5985C72.3289 62.1988 72.6034 62.8803 72.7248 63.5963Z" fill="#F05251"/>
<path d="M77.4418 68.4517C77.8591 68.0624 78.3371 67.7437 78.8569 67.5083C78.8003 67.3101 78.6954 67.129 78.5517 66.9811L77.6916 65.8157C77.4503 65.5915 77.1331 65.4668 76.8037 65.4668C76.4743 65.4668 76.157 65.5915 75.9158 65.8157C76.6794 66.5198 77.2116 67.4389 77.4418 68.4517Z" fill="#C0282D"/>
<path d="M80.05 64.734H78.3297C77.996 64.7267 77.6784 64.589 77.445 64.3504C77.2116 64.1119 77.081 63.7914 77.0811 63.4576C77.0811 63.1264 77.2126 62.8089 77.4468 62.5747C77.6809 62.3405 77.9985 62.209 78.3297 62.209H80.05C80.3837 62.2089 80.7042 62.3396 80.9428 62.573C81.1814 62.8064 81.3191 63.1239 81.3263 63.4576C81.3192 63.7939 81.1825 64.1144 80.9447 64.3523C80.7068 64.5901 80.3863 64.7269 80.05 64.734Z" fill="#C0282D"/>
<path d="M78.0799 61.2377C77.9155 61.2391 77.7524 61.2079 77.6 61.146C77.4476 61.0841 77.309 60.9927 77.192 60.877C77.0746 60.7609 76.9813 60.6226 76.9177 60.4702C76.8541 60.3178 76.8213 60.1543 76.8213 59.9891C76.8213 59.824 76.8541 59.6604 76.9177 59.508C76.9813 59.3556 77.0746 59.2173 77.192 59.1012L78.4129 57.8526C78.6542 57.6283 78.9714 57.5037 79.3008 57.5037C79.6302 57.5037 79.9474 57.6283 80.1887 57.8526C80.4276 58.0919 80.5618 58.4162 80.5618 58.7544C80.5618 59.0925 80.4276 59.4169 80.1887 59.6562L78.9678 60.877C78.8518 60.9939 78.7133 61.0862 78.5608 61.1482C78.4082 61.2101 78.2446 61.2406 78.0799 61.2377Z" fill="#C0282D"/>
<path d="M93.8958 58.6572C92.478 58.0947 90.9447 57.8854 89.428 58.0473C87.9113 58.2093 86.4568 58.7377 85.1897 59.5869C83.9227 60.4361 82.8812 61.5808 82.155 62.9221C81.4288 64.2635 81.0397 65.7613 81.0212 67.2865H81.5484C82.7958 67.2893 84.0035 67.7253 84.9651 68.5199C85.9267 69.3144 86.5825 70.4183 86.8204 71.6428C88.212 71.4147 89.5348 70.8775 90.6914 70.0707C91.848 69.264 92.8091 68.2082 93.5038 66.981C94.1986 65.7538 94.6094 64.3865 94.7061 62.9796C94.8027 61.5727 94.5827 60.1621 94.0623 58.8514L93.8958 58.6572Z" fill="#8BC64A"/>
<path d="M89.3453 63.0411C89.2292 62.9237 89.0909 62.8305 88.9385 62.7668C88.7861 62.7032 88.6225 62.6704 88.4574 62.6704C88.2922 62.6704 88.1287 62.7032 87.9763 62.7668C87.8239 62.8305 87.6856 62.9237 87.5695 63.0411L83.241 67.4252C84.0624 67.7064 84.798 68.1936 85.3775 68.8403L89.4008 64.817C89.624 64.5717 89.7431 64.2493 89.7327 63.9178C89.7224 63.5864 89.5834 63.2719 89.3453 63.0411Z" fill="#D4E166"/>
<path d="M95.6994 73.1135C95.728 73.3717 95.728 73.6322 95.6994 73.8904C95.6994 73.9346 95.7169 73.9769 95.7481 74.0081C95.7793 74.0394 95.8217 74.0569 95.8658 74.0569C96.5485 74.1241 97.2098 74.3319 97.8081 74.6673L98.1966 74.2511C99.2623 73.2196 100.584 72.4916 102.026 72.1424C102.16 71.6734 102.226 71.1873 102.22 70.6995C102.216 69.3469 101.718 68.0424 100.819 67.0311C99.921 66.0199 98.6843 65.3716 97.3416 65.208C95.9989 65.0444 94.6427 65.3768 93.5279 66.1428C92.4131 66.9088 91.6164 68.0556 91.2876 69.3677C92.3404 69.3936 93.3525 69.7795 94.1553 70.4611C94.958 71.1427 95.503 72.0789 95.6994 73.1135Z" fill="#FFC60E"/>
<path d="M57.6581 80.4662C57.1015 79.4718 56.7434 78.3787 56.6037 77.2476C55.8016 77.1223 55.0418 76.8044 54.3894 76.3212C53.737 75.8379 53.2115 75.2037 52.8579 74.4729C51.6903 74.8003 50.6621 75.5011 49.9305 76.4682C49.1989 77.4353 48.8043 78.6154 48.8069 79.8281C48.7919 80.0405 48.7919 80.2538 48.8069 80.4662H57.6581Z" fill="#FFC60E"/>
<path d="M100.028 77.8306C100.203 78.7731 100.067 79.7471 99.6394 80.6053H106.77C107.636 79.4193 108.182 78.0311 108.357 76.5736C108.532 75.1161 108.329 73.6381 107.769 72.2812C106.202 71.6569 104.487 71.5056 102.835 71.8459C101.183 72.1861 99.6668 73.0031 98.4741 74.1957C98.2933 74.3673 98.1263 74.5528 97.9746 74.7507C98.5079 75.0978 98.965 75.5499 99.318 76.0794C99.671 76.6089 99.9125 77.2047 100.028 77.8306Z" fill="#8BC64A"/>
<path d="M99.6394 80.4667H101.193L103.69 77.9695C103.808 77.8534 103.901 77.7151 103.965 77.5627C104.028 77.4103 104.061 77.2467 104.061 77.0816C104.061 76.9164 104.028 76.7529 103.965 76.6005C103.901 76.4481 103.808 76.3098 103.69 76.1937C103.449 75.9694 103.132 75.8447 102.803 75.8447C102.473 75.8447 102.156 75.9694 101.915 76.1937L100.056 78.0527C100.142 78.8804 99.9976 79.7157 99.6394 80.4667Z" fill="#D4E166"/>
<path d="M77.6915 68.563C77.4523 67.4743 76.8706 66.4909 76.0317 65.7569C75.1928 65.0228 74.1408 64.5768 73.03 64.4842C73.0574 64.1796 73.0574 63.8732 73.03 63.5686C72.8473 62.5347 72.3584 61.5794 71.6267 60.8265C70.895 60.0735 69.9541 59.5575 68.9259 59.3453C67.8976 59.1331 66.8294 59.2344 65.8593 59.6361C64.8893 60.0378 64.0622 60.7215 63.4851 61.5985C62.9128 61.167 62.2577 60.8581 61.5607 60.691C60.8637 60.5239 60.1397 60.5023 59.434 60.6274C58.0591 60.84 56.8229 61.5848 55.9923 62.7009C55.1617 63.817 54.8033 65.2149 54.9945 66.593C55.0519 66.8866 55.1355 67.1744 55.2442 67.4532C54.2133 67.9315 53.3646 68.7303 52.8245 69.7303C52.2845 70.7304 52.0821 71.8781 52.2475 73.0025C52.4332 74.0819 52.9538 75.0755 53.7357 75.8425C54.5176 76.6094 55.521 77.1108 56.6038 77.2756C56.383 75.814 56.5554 74.32 57.1033 72.9471C58.0975 72.5375 59.1634 72.33 60.2387 72.3366C61.354 72.3301 62.4593 72.5478 63.4889 72.9768C64.5184 73.4058 65.4513 74.0373 66.232 74.8338L66.565 75.1946C66.4774 74.6066 66.4311 74.0132 66.4262 73.4187C66.4261 73.2248 66.5012 73.0383 66.6358 72.8986C66.7703 72.7589 66.9538 72.6768 67.1477 72.6696H76.0267C76.0119 72.5498 76.0119 72.4286 76.0267 72.3089C76.0832 70.8935 76.6788 69.5534 77.6915 68.563Z" fill="#388D42"/>
<path d="M59.212 69.0345C58.8783 69.0273 58.5607 68.8896 58.3274 68.651C58.094 68.4124 57.9633 68.0919 57.9634 67.7582C57.978 66.7081 58.4054 65.7061 59.1531 64.9687C59.9008 64.2313 60.9088 63.818 61.9589 63.8181C63.0175 63.8783 64.0118 64.3456 64.7336 65.1222C64.9148 65.375 64.9975 65.6852 64.9661 65.9947C64.9347 66.3041 64.7914 66.5914 64.5632 66.8026C64.3349 67.0139 64.0373 67.1345 63.7264 67.1418C63.4155 67.1492 63.1126 67.0428 62.8746 66.8425C62.6777 66.616 62.4162 66.4551 62.1252 66.3816C61.8342 66.308 61.5276 66.3252 61.2467 66.4309C60.9658 66.5367 60.724 66.7258 60.5537 66.973C60.3834 67.2202 60.2928 67.5135 60.2941 67.8137C60.2901 68.1131 60.1787 68.4012 59.98 68.6253C59.7814 68.8494 59.5088 68.9946 59.212 69.0345Z" fill="#8BC64A"/>
<path d="M66.1766 71.2266H65.7326C65.4218 71.1028 65.172 70.8618 65.0371 70.5556C64.9022 70.2494 64.8929 69.9025 65.0112 69.5895C65.2607 68.9013 65.7107 68.3036 66.3031 67.8735C66.8956 67.4435 67.6033 67.2009 68.335 67.177C69.0667 67.1531 69.7888 67.349 70.4081 67.7395C71.0273 68.13 71.5153 68.697 71.8092 69.3676C71.8748 69.5188 71.9099 69.6814 71.9127 69.8463C71.9154 70.0111 71.8856 70.1748 71.8251 70.3281C71.7645 70.4814 71.6744 70.6213 71.5598 70.7397C71.4452 70.8582 71.3084 70.9529 71.1571 71.0185C71.0059 71.0841 70.8433 71.1193 70.6785 71.122C70.5137 71.1247 70.3499 71.095 70.1966 71.0344C70.0433 70.9739 69.9034 70.8837 69.785 70.7691C69.6665 70.6545 69.5718 70.5177 69.5062 70.3665C69.4445 70.2204 69.3536 70.0884 69.2391 69.9787C69.1245 69.869 68.9888 69.7837 68.8403 69.7283C68.6983 69.6756 68.5472 69.6518 68.3959 69.6582C68.2446 69.6647 68.0961 69.7013 67.9591 69.7659C67.8222 69.8305 67.6995 69.9218 67.5982 70.0345C67.497 70.1472 67.4193 70.2789 67.3697 70.422C67.2748 70.6605 67.1102 70.8649 66.8973 71.0085C66.6845 71.152 66.4333 71.228 66.1766 71.2266Z" fill="#8BC64A"/>
<path d="M86.7648 72.8359H88.4019C88.5208 72.8358 88.6386 72.8597 88.7482 72.906C88.8577 72.9523 88.9569 73.0202 89.0397 73.1057C89.1225 73.1911 89.1873 73.2922 89.2303 73.4032C89.2733 73.5141 89.2935 73.6326 89.2898 73.7515C89.2825 76.1644 88.5155 78.5138 87.0977 80.4663H99.8891C100.294 79.6012 100.42 78.6315 100.25 77.6916C100.07 76.6591 99.5528 75.7153 98.7797 75.0075C98.0067 74.2998 97.0211 73.8679 95.9768 73.7793C96.0052 73.5118 96.0052 73.2421 95.9768 72.9746C95.8699 72.3549 95.6408 71.7627 95.303 71.2323C94.9652 70.702 94.5253 70.2441 94.009 69.8852C93.4926 69.5263 92.9101 69.2737 92.2952 69.1419C91.6804 69.0102 91.0454 69.002 90.4274 69.1178C89.7911 69.2244 89.1839 69.462 88.6442 69.8154C88.1045 70.1688 87.6441 70.6305 87.292 71.171C87.0618 71.007 86.8208 70.8586 86.5706 70.7271C86.7352 71.2572 86.8194 71.8091 86.8203 72.3642L86.7648 72.8359Z" fill="#388D42"/>
<path d="M86.9313 72.8359V72.4752C86.9313 71.0034 86.3466 69.5919 85.3059 68.5512C84.2652 67.5104 82.8537 66.9258 81.3819 66.9258C79.9101 66.9258 78.4986 67.5104 77.4579 68.5512C76.4172 69.5919 75.8325 71.0034 75.8325 72.4752V72.8359H86.9313Z" fill="#F79421"/>
<path d="M66.3986 74.9171C65.2059 73.7245 63.6898 72.9076 62.0378 72.5673C60.3858 72.227 58.6703 72.3784 57.1033 73.0026C56.5922 74.1923 56.359 75.4829 56.4216 76.7762C56.4841 78.0696 56.8406 79.3317 57.464 80.4665H68.8958C67.7059 78.8926 66.9414 77.0388 66.676 75.0836L66.3986 74.9171Z" fill="#8BC64A"/>
<path d="M62.7636 80.4667H66.3152L62.8191 76.9706C62.5836 76.7351 62.2642 76.6028 61.9312 76.6028C61.5982 76.6028 61.2788 76.7351 61.0433 76.9706C60.8078 77.206 60.6755 77.5254 60.6755 77.8585C60.6755 78.1915 60.8078 78.5109 61.0433 78.7464L62.7636 80.4667Z" fill="#D4E166"/>
<path d="M87.1811 80.4666C88.6992 78.4626 89.5179 76.0161 89.5118 73.5021C89.5155 73.3832 89.4953 73.2647 89.4524 73.1538C89.4094 73.0428 89.3446 72.9416 89.2618 72.8562C89.179 72.7708 89.0798 72.7029 88.9702 72.6566C88.8607 72.6102 88.7429 72.5864 88.6239 72.5864H67.2033C67.0843 72.5864 66.9665 72.6102 66.857 72.6566C66.7474 72.7029 66.6482 72.7708 66.5654 72.8562C66.4826 72.9416 66.4178 73.0428 66.3748 73.1538C66.3319 73.2647 66.3117 73.3832 66.3154 73.5021C66.3093 76.0161 67.128 78.4626 68.6461 80.4666H87.1811Z" fill="#F05251"/>
<path d="M79.2176 80.4666V79.6064C79.2177 79.2727 79.087 78.9522 78.8536 78.7136C78.6202 78.475 78.3027 78.3373 77.969 78.3301C77.6327 78.3372 77.3121 78.4739 77.0743 78.7118C76.8365 78.9496 76.6997 79.2701 76.6926 79.6064V80.4666H79.2176Z" fill="#C0282D"/>
<path d="M81.6315 80.4667H83.6015C83.8141 80.2361 83.9321 79.934 83.9321 79.6204C83.9321 79.3068 83.8141 79.0047 83.6015 78.7741L82.2974 77.692C82.0619 77.4565 81.7425 77.3242 81.4095 77.3242C81.0765 77.3242 80.7571 77.4565 80.5216 77.692C80.2861 77.9275 80.1538 78.2469 80.1538 78.5799C80.1538 78.9129 80.2861 79.2323 80.5216 79.4678L81.6315 80.4667Z" fill="#C0282D"/>
<path d="M74.0845 80.4664L75.2222 79.3288C75.3396 79.2127 75.4328 79.0744 75.4965 78.922C75.5601 78.7696 75.5929 78.6061 75.5929 78.4409C75.5929 78.2758 75.5601 78.1122 75.4965 77.9598C75.4328 77.8074 75.3396 77.6691 75.2222 77.553C74.9828 77.3141 74.6585 77.1799 74.3204 77.1799C73.9822 77.1799 73.6579 77.3141 73.4186 77.553L72.1977 78.7739C71.9886 79.0032 71.8681 79.2997 71.8579 79.6099C71.8477 79.9202 71.9485 80.2239 72.1422 80.4664H74.0845Z" fill="#C0282D"/>
<path d="M72.1422 77.1646H70.4219C70.0856 77.1575 69.765 77.0208 69.5272 76.783C69.2893 76.5451 69.1526 76.2246 69.1455 75.8883C69.1528 75.5546 69.2904 75.237 69.529 75.0036C69.7676 74.7702 70.0881 74.6396 70.4219 74.6396H72.1422C72.4759 74.6396 72.7964 74.7702 73.035 75.0036C73.2736 75.237 73.4113 75.5546 73.4185 75.8883C73.4115 76.2246 73.2747 76.5451 73.0369 76.783C72.799 77.0208 72.4785 77.1575 72.1422 77.1646Z" fill="#C0282D"/>
<path d="M85.4052 77.1644H83.6849C83.3512 77.1572 83.0337 77.0195 82.8003 76.7809C82.5669 76.5424 82.4362 76.2218 82.4363 75.8881C82.4363 75.5569 82.5678 75.2393 82.802 75.0052C83.0362 74.771 83.3537 74.6395 83.6849 74.6395H85.4052C85.5715 74.6358 85.7368 74.6653 85.8916 74.7264C86.0463 74.7875 86.1872 74.8789 86.3061 74.9952C86.425 75.1115 86.5195 75.2504 86.5839 75.4038C86.6484 75.5571 86.6816 75.7218 86.6816 75.8881C86.6816 76.2266 86.5471 76.5512 86.3077 76.7906C86.0684 77.03 85.7437 77.1644 85.4052 77.1644Z" fill="#C0282D"/>
<path opacity="0.1" d="M47.586 89.2623H47.7525V87.1258C47.7272 86.9673 47.7366 86.8051 47.78 86.6506C47.8235 86.496 47.8999 86.3527 48.0041 86.2306C48.1083 86.1084 48.2378 86.0103 48.3835 85.9431C48.5293 85.8758 48.688 85.841 48.8485 85.841C49.0091 85.841 49.1677 85.8758 49.3135 85.9431C49.4593 86.0103 49.5887 86.1084 49.6929 86.2306C49.7971 86.3527 49.8735 86.496 49.917 86.6506C49.9604 86.8051 49.9698 86.9673 49.9445 87.1258V89.2623H50.111C50.9557 88.9906 51.8328 88.8319 52.7192 88.7906C52.1288 86.3372 51.8308 83.8224 51.8313 81.2989C51.8349 81.186 51.8607 81.0748 51.9073 80.9718C51.9539 80.8688 52.0203 80.776 52.1027 80.6987C52.1852 80.6214 52.2821 80.5611 52.3879 80.5213C52.4936 80.4814 52.6062 80.4628 52.7192 80.4665H47.3363C47.1082 80.4665 46.8894 80.5572 46.7281 80.7185C46.5668 80.8798 46.4761 81.0986 46.4761 81.3267C46.4602 83.9659 46.7866 86.5961 47.4473 89.1513L47.586 89.2623Z" fill="#010101"/>
<path d="M48.9179 89.8448C49.3112 89.626 49.7308 89.4582 50.1665 89.3454V86.9592C50.1935 86.7777 50.181 86.5925 50.13 86.4163C50.0789 86.24 49.9905 86.0769 49.8707 85.9379C49.7508 85.799 49.6025 85.6875 49.4357 85.6111C49.2688 85.5347 49.0875 85.4951 48.904 85.4951C48.7206 85.4951 48.5392 85.5347 48.3724 85.6111C48.2056 85.6875 48.0573 85.799 47.9374 85.9379C47.8176 86.0769 47.7292 86.24 47.6781 86.4163C47.627 86.5925 47.6146 86.7777 47.6416 86.9592V89.3454C48.0843 89.4636 48.5125 89.6312 48.9179 89.8448Z" fill="#8BC64A"/>
<path opacity="0.1" d="M37.4306 101.832C37.4471 99.9872 37.9162 98.1751 38.7967 96.5544C39.6772 94.9336 40.9422 93.5539 42.4805 92.5364C41.4206 92.4374 40.4336 91.9538 39.7058 91.1768C37.5101 91.9796 35.6075 93.4258 34.2463 95.3266C32.8851 97.2273 32.1285 99.4943 32.0754 101.832C32.2267 105.036 33.6388 108.051 36.0038 110.218C38.3688 112.386 41.4949 113.53 44.7003 113.402H50.2497C48.6457 113.496 47.0391 113.269 45.5232 112.736C44.0074 112.204 42.6126 111.375 41.4198 110.298C40.2271 109.222 39.2602 107.919 38.5754 106.465C37.8905 105.012 37.5014 103.437 37.4306 101.832Z" fill="#010101"/>
<path d="M58.5184 90.7883C58.5184 89.6229 56.1322 88.7073 53.2188 88.7073C51.734 88.6455 50.2569 88.9504 48.918 89.5952C47.5611 88.9821 46.0761 88.7061 44.5895 88.7905C41.676 88.7905 39.2898 89.7062 39.2898 90.8716C39.2898 92.0369 40.8991 92.6196 43.0634 92.8693C41.7315 93.9515 41.1211 95.0614 41.676 95.644C42.231 96.2267 44.8669 96.088 47.2254 94.7839C47.8365 94.4541 48.4128 94.0637 48.9457 93.6185C49.4596 94.0754 50.0281 94.4668 50.6383 94.7839C52.969 96.088 55.4385 96.4764 56.1877 95.644C56.9369 94.8116 56.1877 93.9237 54.7726 92.8693C56.9091 92.5364 58.5184 91.7317 58.5184 90.7883Z" fill="#388D42"/>
<path d="M118.008 98.2522L117.675 96.4209C117.648 96.2701 117.592 96.1263 117.508 95.9979C117.425 95.8696 117.317 95.7593 117.19 95.6739C117.063 95.5884 116.92 95.5294 116.77 95.5004C116.619 95.4714 116.465 95.4731 116.315 95.5052L103.246 97.8915L111.571 92.3421C111.763 92.2221 111.914 92.0461 112.003 91.8377C112.092 91.6294 112.116 91.3987 112.07 91.1767C112.098 91.0581 112.098 90.9346 112.07 90.816L111.127 89.1512C110.969 88.8781 110.71 88.6786 110.405 88.5962C110.266 88.5334 110.114 88.501 109.961 88.501C109.808 88.501 109.657 88.5334 109.517 88.5962L98.6682 95.0058L100.721 106.105L113.152 108.352C113.462 108.401 113.779 108.332 114.04 108.158C114.287 107.966 114.455 107.689 114.512 107.381L114.789 105.494C114.817 105.366 114.817 105.234 114.789 105.106C114.746 104.883 114.639 104.678 114.482 104.516C114.324 104.353 114.122 104.24 113.901 104.19L104.107 101.943L117.175 99.5563C117.446 99.4732 117.679 99.2964 117.832 99.0574C117.984 98.8185 118.047 98.533 118.008 98.2522Z" fill="#8BC64A"/>
<path d="M52.7194 109.601C52.9207 110.674 53.492 111.641 54.3337 112.336C55.1753 113.031 56.2341 113.408 57.3253 113.402H96.5595C97.2471 113.403 97.9263 113.251 98.5483 112.958C99.1703 112.665 99.7198 112.238 100.157 111.707C100.595 111.177 100.91 110.556 101.079 109.89C101.249 109.224 101.269 108.528 101.138 107.853L98.3631 93.6742C98.2418 93.001 97.9731 92.363 97.576 91.806C97.179 91.249 96.6636 90.7868 96.0668 90.4526C95.4699 90.1184 94.8065 89.9204 94.1242 89.873C93.4418 89.8255 92.7574 89.9297 92.12 90.1781L55.494 104.19C54.5023 104.6 53.6835 105.341 53.1775 106.288C52.6714 107.234 52.5095 108.327 52.7194 109.379V109.601Z" fill="#F79421"/>
<g opacity="0.1">
<path opacity="0.1" d="M52.7194 109.6C52.7876 109.934 52.8898 110.259 53.0246 110.572C53.5746 109.577 54.4595 108.81 55.5218 108.407L93.8958 93.8402C94.567 93.5939 95.2829 93.4937 95.9959 93.5463C96.7089 93.5989 97.4024 93.8032 98.0301 94.1454C98.2813 94.2958 98.5223 94.4627 98.7515 94.6448L98.585 93.7292C98.4638 93.056 98.195 92.418 97.798 91.861C97.401 91.3039 96.8856 90.8417 96.2887 90.5075C95.6919 90.1733 95.0285 89.9754 94.3461 89.9279C93.6637 89.8805 92.9793 89.9847 92.342 90.2331L55.494 104.19C54.5023 104.6 53.6835 105.341 53.1775 106.287C52.6714 107.233 52.5095 108.326 52.7194 109.378V109.6Z" fill="#010101"/>
</g>
<path d="M94.3398 107.492C94.3098 107.329 94.2479 107.174 94.1575 107.036C94.0672 106.897 93.9502 106.778 93.8133 106.685C93.6765 106.592 93.5226 106.527 93.3605 106.494C93.1984 106.461 93.0314 106.461 92.8692 106.493C92.5442 106.56 92.2581 106.751 92.0716 107.026C91.8851 107.3 91.8129 107.637 91.8703 107.964L92.9247 113.513H95.4774L94.3398 107.492Z" fill="#FFC60E"/>
<path d="M87.4584 108.99C87.3958 108.663 87.2057 108.374 86.9299 108.186C86.6542 107.999 86.3152 107.929 85.9878 107.992C85.6603 108.054 85.3711 108.244 85.1838 108.52C84.9964 108.796 84.9263 109.135 84.9889 109.462L85.7381 113.402H88.2908L87.4584 108.99Z" fill="#FFC60E"/>
<path d="M80.7993 99.5009C80.862 99.77 81.0142 100.01 81.2309 100.181C81.4477 100.352 81.7161 100.445 81.9924 100.444H82.3253C82.6466 100.359 82.922 100.152 83.093 99.8672C83.264 99.5822 83.3171 99.2418 83.241 98.9182L82.0201 94.1458L79.6616 95.0614L80.7993 99.5009Z" fill="#FFC60E"/>
<path d="M74.2232 107.88C74.1923 107.718 74.1297 107.563 74.039 107.426C73.9483 107.288 73.8314 107.169 73.6948 107.076C73.5583 106.983 73.4048 106.918 73.2431 106.885C73.0815 106.852 72.9148 106.85 72.7527 106.881C72.5905 106.912 72.436 106.975 72.2981 107.065C72.1601 107.156 72.0414 107.273 71.9486 107.41C71.8559 107.546 71.7909 107.7 71.7575 107.861C71.7241 108.023 71.7228 108.19 71.7538 108.352L72.6694 113.402H75.2221L74.2232 107.88Z" fill="#FFC60E"/>
<path d="M61.5151 105.439C61.5726 105.72 61.7254 105.974 61.9478 106.156C62.1702 106.338 62.4486 106.437 62.736 106.438H63.0135C63.3391 106.365 63.6231 106.167 63.8046 105.887C63.9862 105.607 64.0508 105.267 63.9846 104.939L63.1799 101.194L60.7937 102.109L61.5151 105.439Z" fill="#FFC60E"/>
<path opacity="0.4" d="M74 151C115.421 151 149 117.421 149 76C149 34.5786 115.421 1 74 1C32.5786 1 -1 34.5786 -1 76C-1 117.421 32.5786 151 74 151Z" fill="#26465E"/>
<path d="M73.9999 140.29C109.506 140.29 138.29 111.506 138.29 76.0001C138.29 40.4939 109.506 11.7104 73.9999 11.7104C38.4937 11.7104 9.71021 40.4939 9.71021 76.0001C9.71021 111.506 38.4937 140.29 73.9999 140.29Z" fill="white"/>
<path d="M87.5404 39.8457V58.0755C87.5347 58.5809 87.3587 59.0697 87.041 59.4628L62.8179 89.929L51.0254 104.663C50.8117 104.929 50.5414 105.144 50.2343 105.293C49.9272 105.441 49.5909 105.52 49.2496 105.523H40.1209C39.8211 105.526 39.5235 105.47 39.2458 105.357C38.9681 105.244 38.7158 105.077 38.5037 104.865C38.2917 104.653 38.1243 104.4 38.0112 104.123C37.8982 103.845 37.8419 103.547 37.8456 103.248V39.8457C37.8419 39.5459 37.8982 39.2484 38.0112 38.9706C38.1243 38.6929 38.2917 38.4406 38.5037 38.2286C38.7158 38.0166 38.9681 37.8491 39.2458 37.7361C39.5235 37.6231 39.8211 37.5668 40.1209 37.5705H51.4139L54.1886 40.3452L56.0476 37.5705H69.4772L71.7247 39.8457L73.9999 37.5705H85.2929C85.5904 37.5705 85.8849 37.6295 86.1595 37.7442C86.434 37.8589 86.683 38.0269 86.892 38.2385C87.1011 38.4502 87.2661 38.7012 87.3774 38.9771C87.4887 39.253 87.5441 39.5483 87.5404 39.8457Z" fill="#F1647C"/>
<path d="M87.5404 39.8456V58.0754C87.5347 58.5808 87.3587 59.0696 87.041 59.4627L62.8179 89.9289V37.4316H69.4771L71.7246 39.7069L73.9999 37.4316H85.2929C85.6026 37.4308 85.9091 37.494 86.1932 37.6172C86.4774 37.7404 86.733 37.921 86.944 38.1477C87.155 38.3743 87.3169 38.6421 87.4196 38.9343C87.5222 39.2265 87.5633 39.5368 87.5404 39.8456Z" fill="#E63B51"/>
<path d="M105.604 107.77V112.293C105.604 112.889 105.367 113.461 104.946 113.882C104.524 114.304 103.952 114.54 103.356 114.54C102.76 114.54 102.189 114.304 101.767 113.882C101.346 113.461 101.109 112.889 101.109 112.293V107.77C101.109 107.174 101.346 106.602 101.767 106.181C102.189 105.759 102.76 105.523 103.356 105.523C103.952 105.523 104.524 105.759 104.946 106.181C105.367 106.602 105.604 107.174 105.604 107.77Z" fill="#EDBF1C"/>
<path d="M105.604 107.77V112.293C105.607 112.589 105.552 112.883 105.44 113.157C105.329 113.432 105.163 113.681 104.954 113.89C104.744 114.1 104.495 114.265 104.221 114.377C103.946 114.489 103.652 114.544 103.356 114.54V105.523C103.653 105.515 103.949 105.568 104.225 105.678C104.501 105.788 104.752 105.954 104.962 106.164C105.173 106.374 105.338 106.625 105.448 106.901C105.558 107.177 105.611 107.473 105.604 107.77Z" fill="#DCA027"/>
<path d="M83.0454 41.9546V57.1599L62.7069 82.5484L48.0565 101H42.3684V41.9546H83.0454Z" fill="#85D4EB"/>
<path d="M83.0456 41.9546V57.1599L62.707 82.5484V41.9546H83.0456Z" fill="#53C8E8"/>
<path d="M73.9168 37.4316V48.7524C73.9169 49.0499 73.8578 49.3444 73.7431 49.6189C73.6285 49.8934 73.4604 50.1424 73.2488 50.3515C73.0371 50.5606 72.7861 50.7255 72.5102 50.8368C72.2343 50.9481 71.9391 51.0036 71.6416 50.9999H53.6616C53.0655 50.9999 52.4938 50.7631 52.0723 50.3416C51.6509 49.9201 51.4141 49.3485 51.4141 48.7524V37.4316H55.9368V46.4771H69.4773V37.4316H73.9168Z" fill="#49578D"/>
<path d="M92.0632 57.9366V96.4771L78.5227 100.889L73.9167 114.54H48.9444C48.6493 114.54 48.357 114.482 48.0844 114.369C47.8117 114.256 47.5639 114.091 47.3552 113.882C47.1465 113.673 46.981 113.426 46.868 113.153C46.7551 112.88 46.6969 112.588 46.6969 112.293V57.9366C46.6933 57.6392 46.7487 57.3439 46.86 57.068C46.9713 56.7921 47.1363 56.5411 47.3453 56.3294C47.5544 56.1178 47.8034 55.9497 48.0779 55.8351C48.3524 55.7204 48.647 55.6614 48.9444 55.6614H89.8157C90.1132 55.6614 90.4077 55.7204 90.6822 55.8351C90.9567 55.9497 91.2057 56.1178 91.4148 56.3294C91.6239 56.5411 91.7888 56.7921 91.9002 57.068C92.0115 57.3439 92.0669 57.6392 92.0632 57.9366Z" fill="#F2F2F9"/>
<path d="M71.7246 50.9444H62.8179V46.4771H69.4771V37.4316H73.9166V48.7524C73.9026 49.3293 73.6671 49.8787 73.259 50.2868C72.851 50.6949 72.3016 50.9303 71.7246 50.9444Z" fill="#2C3C74"/>
<path d="M92.0632 57.9366V96.4771L78.5226 100.889L73.9166 114.54H62.8179V55.6614H89.9266C90.5081 55.6901 91.0557 55.9433 91.4542 56.3677C91.8528 56.792 92.0711 57.3545 92.0632 57.9366Z" fill="#DAD8EC"/>
<path d="M71.7246 78.2475C71.1301 78.2434 70.5614 78.004 70.1431 77.5816L65.5926 73.1421C65.3492 72.9406 65.1505 72.6906 65.0091 72.4081C64.8676 72.1256 64.7866 71.8167 64.7711 71.5012C64.7555 71.1856 64.8059 70.8703 64.919 70.5753C65.0321 70.2803 65.2053 70.012 65.4278 69.7876C65.6502 69.5633 65.9169 69.3877 66.211 69.2721C66.505 69.1565 66.8199 69.1034 67.1355 69.1161C67.4512 69.1289 67.7608 69.2073 68.0445 69.3463C68.3282 69.4853 68.5799 69.6818 68.7835 69.9234L71.6969 72.8646L79.1331 65.4284C79.5676 65.0623 80.1234 64.872 80.6912 64.8949C81.2589 64.9179 81.7975 65.1525 82.2011 65.5525C82.6046 65.9526 82.8438 66.4891 82.8717 67.0567C82.8996 67.6242 82.7141 68.1816 82.3517 68.6193L73.334 77.5816C73.1226 77.7928 72.8717 77.9604 72.5956 78.0746C72.3194 78.1889 72.0235 78.2476 71.7246 78.2475Z" fill="#65C07F"/>
<path d="M83.0455 85.0177C83.0493 85.3175 82.993 85.6151 82.8799 85.8928C82.7669 86.1705 82.5995 86.4228 82.3874 86.6348C82.1754 86.8469 81.9231 87.0143 81.6454 87.1273C81.3677 87.2404 81.0701 87.2967 80.7703 87.2929H58.1843C57.6277 87.2312 57.1134 86.9664 56.7399 86.5491C56.3664 86.1319 56.1599 85.5916 56.1599 85.0316C56.1599 84.4716 56.3664 83.9313 56.7399 83.514C57.1134 83.0968 57.6277 82.8319 58.1843 82.7702H80.7703C81.0678 82.7665 81.363 82.8219 81.6389 82.9332C81.9148 83.0445 82.1658 83.2095 82.3775 83.4186C82.5891 83.6276 82.7572 83.8767 82.8719 84.1512C82.9865 84.4257 83.0456 84.7202 83.0455 85.0177Z" fill="#62739B"/>
<path d="M69.4773 94.2021C69.481 94.4996 69.4255 94.7948 69.3142 95.0707C69.2029 95.3466 69.038 95.5976 68.8289 95.8093C68.6198 96.0209 68.3708 96.189 68.0963 96.3037C67.8218 96.4183 67.5273 96.4774 67.2298 96.4773H58.1843C57.6277 96.4156 57.1134 96.1508 56.7399 95.7335C56.3664 95.3163 56.1599 94.776 56.1599 94.216C56.1599 93.656 56.3664 93.1157 56.7399 92.6984C57.1134 92.2812 57.6277 92.0163 58.1843 91.9546H67.2298C67.8259 91.9546 68.3975 92.1914 68.819 92.6129C69.2405 93.0344 69.4773 93.606 69.4773 94.2021Z" fill="#62739B"/>
<path d="M69.4773 103.247C69.481 103.545 69.4255 103.84 69.3142 104.116C69.2029 104.392 69.038 104.643 68.8289 104.855C68.6198 105.066 68.3708 105.234 68.0963 105.349C67.8218 105.464 67.5273 105.523 67.2298 105.523H58.1843C57.6277 105.461 57.1134 105.196 56.7399 104.779C56.3664 104.362 56.1599 103.821 56.1599 103.261C56.1599 102.701 56.3664 102.161 56.7399 101.744C57.1134 101.327 57.6277 101.062 58.1843 101H67.2298C67.5249 101 67.8172 101.058 68.0899 101.171C68.3625 101.284 68.6103 101.45 68.819 101.658C69.0277 101.867 69.1933 102.115 69.3062 102.387C69.4192 102.66 69.4773 102.952 69.4773 103.247Z" fill="#62739B"/>
<path d="M105.604 57.9367V62.4317C105.604 63.0278 105.367 63.5995 104.946 64.0209C104.524 64.4424 103.952 64.6792 103.356 64.6792C102.76 64.6792 102.189 64.4424 101.767 64.0209C101.346 63.5995 101.109 63.0278 101.109 62.4317V57.9367C101.109 57.3406 101.346 56.769 101.767 56.3475C102.189 55.926 102.76 55.6892 103.356 55.6892C103.952 55.6892 104.524 55.926 104.946 56.3475C105.367 56.769 105.604 57.3406 105.604 57.9367Z" fill="#49578D"/>
<path d="M64.9545 75.9166C64.9545 76.5127 64.7178 77.0843 64.2963 77.5058C63.8748 77.9273 63.3031 78.1641 62.707 78.1641H58.1843C57.6277 78.1024 57.1134 77.8375 56.7399 77.4203C56.3664 77.0031 56.1599 76.4627 56.1599 75.9027C56.1599 75.3427 56.3664 74.8024 56.7399 74.3852C57.1134 73.9679 57.6277 73.7031 58.1843 73.6414H62.818C63.3995 73.6701 63.9471 73.9232 64.3456 74.3476C64.7441 74.772 64.9624 75.3345 64.9545 75.9166Z" fill="#62739B"/>
<path d="M110.126 78.2474V96.8933C110.107 101.568 108.242 106.045 104.938 109.352C104.731 109.561 104.485 109.728 104.214 109.842C103.942 109.955 103.651 110.014 103.356 110.014C103.062 110.014 102.77 109.955 102.499 109.842C102.227 109.728 101.981 109.561 101.775 109.352C98.4704 106.045 96.6056 101.568 96.5859 96.8933V78.2474L99.1109 73.7246H105.52L110.126 78.2474Z" fill="#FDD92E"/>
<path d="M103.356 64.818V55.6616C103.655 55.6577 103.951 55.7142 104.227 55.8275C104.503 55.9409 104.754 56.1088 104.964 56.3212C105.174 56.5336 105.338 56.7862 105.448 57.0638C105.558 57.3414 105.611 57.6383 105.604 57.9368V62.4318C105.627 62.7394 105.586 63.0484 105.483 63.3391C105.38 63.6299 105.218 63.896 105.006 64.1205C104.795 64.345 104.539 64.523 104.255 64.6431C103.971 64.7632 103.665 64.8228 103.356 64.818Z" fill="#2C3C74"/>
<path d="M110.126 78.2474V96.8933C110.107 101.568 108.242 106.045 104.938 109.352C104.733 109.565 104.488 109.734 104.216 109.848C103.944 109.963 103.651 110.02 103.356 110.018V73.7246H105.52L110.126 78.2474Z" fill="#EDBF1C"/>
<path d="M69.4771 103.247C69.4808 103.545 69.4254 103.84 69.3141 104.116C69.2028 104.392 69.0378 104.643 68.8288 104.855C68.6197 105.066 68.3707 105.234 68.0962 105.349C67.8217 105.464 67.5271 105.523 67.2296 105.523H62.8179V100.889H67.3406C67.6359 100.903 67.9255 100.975 68.1927 101.102C68.46 101.228 68.6997 101.406 68.8982 101.625C69.0966 101.844 69.2499 102.1 69.3493 102.378C69.4486 102.657 69.4921 102.952 69.4771 103.247Z" fill="#49578D"/>
<path d="M62.8179 78.2474V73.7246C63.3745 73.7864 63.8887 74.0512 64.2622 74.4684C64.6357 74.8857 64.8422 75.426 64.8422 75.986C64.8422 76.546 64.6357 77.0863 64.2622 77.5035C63.8887 77.9208 63.3745 78.1856 62.8179 78.2474Z" fill="#49578D"/>
<path d="M69.4771 94.2021C69.4808 94.4996 69.4254 94.7948 69.3141 95.0707C69.2028 95.3466 69.0378 95.5976 68.8288 95.8093C68.6197 96.0209 68.3707 96.189 68.0962 96.3037C67.8217 96.4183 67.5271 96.4774 67.2296 96.4773H62.8179V91.9546H67.3406C67.9173 91.9831 68.4608 92.2324 68.8586 92.6509C69.2563 93.0693 69.4778 93.6248 69.4771 94.2021Z" fill="#49578D"/>
<path d="M83.0454 85.0178C83.0491 85.3176 82.9928 85.6151 82.8798 85.8929C82.7668 86.1706 82.5993 86.4229 82.3873 86.6349C82.1753 86.8469 81.923 87.0144 81.6452 87.1274C81.3675 87.2404 81.07 87.2967 80.7701 87.293H62.8179V82.7703H80.8811C81.4627 82.7918 82.0132 83.0381 82.4168 83.4573C82.8205 83.8764 83.0458 84.4358 83.0454 85.0178Z" fill="#49578D"/>
<path d="M76.2475 96.4771C75.6514 96.4771 75.0798 96.7138 74.6583 97.1353C74.2368 97.5568 74 98.1285 74 98.7246V114.54L92.0633 96.4771H76.2475Z" fill="#A3A3D1"/>
<path d="M107.879 60.1842H98.8891C98.293 60.1842 97.7214 60.421 97.2999 60.8425C96.8784 61.264 96.6416 61.8356 96.6416 62.4317V78.2475H110.182V62.4317C110.186 62.1307 110.129 61.8321 110.014 61.5539C109.899 61.2758 109.728 61.024 109.513 60.8137C109.297 60.6035 109.042 60.4393 108.761 60.3311C108.48 60.2228 108.18 60.1729 107.879 60.1842Z" fill="#62739B"/>
<path d="M110.126 62.4315V78.2473H103.356V60.184H107.879C108.175 60.1803 108.469 60.2359 108.743 60.3475C109.018 60.4591 109.267 60.6245 109.476 60.834C109.686 61.0434 109.851 61.2927 109.963 61.567C110.075 61.8414 110.13 62.1353 110.126 62.4315Z" fill="#49578D"/>
</g>
<defs>
<clipPath id="clip0">
<rect width="150" height="150" fill="white"/>
</clipPath>
</defs>
</svg>
