<svg width="1197" height="500" fill="none" xmlns="http://www.w3.org/2000/svg"><g clip-path="url(#clip0)"><g opacity=".4" fill="#224866"><path opacity=".4" d="M121.853 194.951L137.814 160l-34.918-11.824-20.52 2.801-10.26 43.974v18.925l26.643 4.756 23.094-23.681z"/><path opacity=".4" d="M102.928 409.446c0-13.355-.391-182.41 2.638-187.003 4.17-6.515 18.599-18.502 19.185-19.381l-1.205-11.824-40.096 15.309s-14.462-20.065-14.332-19.544h-.195l22.279-7.622-6.808-9.251-30.227 4.333-3.778 12.182 2.02 16.971 9.12 17.492a48.83 48.83 0 015.113 9.772c1.434 5.407-27.1 157.361-30.715 185.179l67.001-6.613z"/><path opacity=".4" d="M140.061 147.199l-2.606 2.052-26.058 20.358c-1.14.912-3.257.261-2.931-1.205 2.28-8.567 4.593-17.003 6.84-25.505l-16.905-.619c-.423 7.557-.88 15.114-1.303 22.801a1.76 1.76 0 01-3.094.88L78.76 146.808l-9.772 9.772c1.629 3.257 3.03 6.514 4.332 9.772a85.413 85.413 0 015.212 18.306v1.27a57.302 57.302 0 01-1.4 17.134c-1.76 8.827-4.007 17.589-6.515 26.254 11.075 1.629 22.344 5.44 33.615 7.394-.326 0 10.325-38.404 11.465-41.368a60.265 60.265 0 015.765-11.498 98.309 98.309 0 0119.25-19.121c3.942-3.257 7.948-6.515 12.117-9.479l-12.768-8.045z"/><path opacity=".4" d="M213.837 98.99c1.661-16.58-8.436-31.107-22.801-32.573a24.053 24.053 0 00-4.332 0c-.781-10.814-10.814-20-23.843-21.531a31.723 31.723 0 00-14.136 1.498c-3.844-7.915-13.322-14.169-25.178-15.602-16.287-1.955-30.977 5.83-33.713 17.687l-.781-.75a15.114 15.114 0 00-8.209-5.57 41.43 41.43 0 00-15.7-3.973 33.06 33.06 0 00-16.774 1.89C29.478 45.57 16.286 61.53 18.696 77.784a26.841 26.841 0 009.25 16.547c-9.77 8.013-15.276 19.284-13.712 30.521a27.91 27.91 0 0013.355 19.544 42.53 42.53 0 0015.016 4.561v.977c0 9.153 12.344 16.287 27.328 15.896a34.428 34.428 0 0022.572-7.981 30.49 30.49 0 009.381 3.942c3.257.39 7.427-1.922 10.586 0a10.067 10.067 0 012.443 2.54 34.722 34.722 0 0021.889 12.834 45.401 45.401 0 0025.341-3.681 25.521 25.521 0 007.003-4.364 23.035 23.035 0 005.7-9.772c.684-2.02.847-7.167 2.41-8.6 1.564-1.433 6.352-1.4 8.599-2.443a21.86 21.86 0 007.883-6.319 25.408 25.408 0 004.951-17.98 32.935 32.935 0 0015.146-25.017z"/><path opacity=".4" d="M164.392 81.661a10.16 10.16 0 00-12.279-2.443 14.172 14.172 0 00-8.469-12.866 13.03 13.03 0 00-14.69 3.615 12.544 12.544 0 00-10.456-5.57 15.729 15.729 0 00-13.029 7.98c-.944 1.532 1.531 2.802 2.443 1.304a13.03 13.03 0 019.772-6.515 9.577 9.577 0 019.478 5.83 1.403 1.403 0 001.973.779c.238-.125.435-.316.568-.55a10.39 10.39 0 0113.029-4.202 11.82 11.82 0 016.449 12.964 1.403 1.403 0 002.378 1.205 7.267 7.267 0 018.69-1.303 7.268 7.268 0 012.352 2.052 10.427 10.427 0 01-.489 12.737c-1.075 1.4.945 3.257 2.02 1.889a13.027 13.027 0 00.26-16.906zM39.087 128.339a10.163 10.163 0 0012.41 1.628 14.206 14.206 0 009.25 12.346 13.194 13.194 0 0014.462-4.528 12.416 12.416 0 0010.749 4.919 15.74 15.74 0 0012.378-8.763c.814-1.563-1.694-2.703-2.54-1.14a13.022 13.022 0 01-9.48 7.101 9.579 9.579 0 01-9.771-5.244 1.432 1.432 0 00-2.573 0 10.359 10.359 0 01-12.671 4.984 11.79 11.79 0 01-7.166-12.378 1.402 1.402 0 00-2.443-1.108 7.3 7.3 0 01-8.584 1.879 7.297 7.297 0 01-2.49-1.879 10.421 10.421 0 01-.294-12.736c.978-1.498-1.14-3.257-2.117-1.759a13.225 13.225 0 00.88 16.678zM82.798 82.704a9.773 9.773 0 00-6.514-9.186 9.576 9.576 0 00-9.349 1.987 13.029 13.029 0 00-13.354-7.394A18.73 18.73 0 0038.37 82.378c-.522 1.694 2.117 2.54 2.605.847A16.286 16.286 0 0152.832 71.01a10.227 10.227 0 0112.312 7.394 1.4 1.4 0 002.508.489 6.807 6.807 0 0112.475 3.648c-.065 1.791 2.704 1.954 2.671.163zM148.367 123.681a11.985 11.985 0 00-4.365-13.583 14.555 14.555 0 00-17.198.195c-1.4 1.108 0 3.453 1.466 2.345a11.887 11.887 0 0113.42-.781 9.12 9.12 0 013.257 12.312 1.43 1.43 0 00.607 1.878c.213.116.453.176.696.175a7.56 7.56 0 015.863 12.345c-1.108 1.368.912 3.257 2.019 1.889a10.326 10.326 0 00-5.765-16.775zM102.309 234.104a4.007 4.007 0 002.736.326 4.486 4.486 0 001.531-1.205 37.185 37.185 0 005.766-10.033l6.253-14.169-6.514 1.922a24.821 24.821 0 00-7.264 3.062 22.797 22.797 0 00-8.208 13.029c-1.238 5.798 1.108 5.342 5.7 7.068zM120.648 530H17.068l-3.616-49.316 36.742-202.541 63.353 22.183-5.896 180.488L120.648 530zM69.118 186.971h-.196l22.28-7.59-6.808-9.251-30.227 4.333-3.778 12.182 2.02 16.971 9.12 17.492a48.83 48.83 0 015.113 9.772l9.088-34.658s-6.743-9.74-6.612-9.251z"/></g><path d="M108.401 174.463l15.993-34.919-34.95-11.857-20.488 2.802-10.293 43.974v18.957l26.644 4.723 23.094-23.68z" fill="#DBAA8B"/><path d="M89.477 388.958c0-13.355-.391-182.411 2.638-186.971 4.17-6.515 18.599-18.534 19.185-19.544l-1.205-11.792-40.064 15.408s-14.495-20.065-14.365-19.544l-.293-.163 22.215-7.622-6.808-9.251-30.227 4.3-3.648 12.247 1.987 16.971 9.12 17.459a51.555 51.555 0 015.146 9.772c1.401 5.407-27.1 157.394-30.748 185.179l67.066-6.449z" fill="#DBAA8B"/><path d="M126.739 126.71l-2.606 2.052-26.058 20.391c-1.14.88-3.257.261-2.964-1.238a1762.448 1762.448 0 016.71-25.505l-16.905-.618c-.424 7.589-.88 15.146-1.303 22.801a1.761 1.761 0 01-1.261 1.447 1.758 1.758 0 01-1.834-.568l-15.243-19.153-9.772 9.772c1.596 3.258 2.997 6.515 4.3 9.772a83.548 83.548 0 015.341 18.078v1.303a56.353 56.353 0 01-1.4 17.134 264.759 264.759 0 01-6.515 26.254c11.173 1.857 22.41 5.765 33.582 7.622-.293 0 10.326-38.404 11.498-41.401a57.355 57.355 0 015.766-11.465 96.611 96.611 0 0119.25-19.153 261.173 261.173 0 0112.084-9.479l-12.67-8.046z" fill="#C6D390"/><path d="M200.385 78.404c1.661-16.547-8.437-31.075-22.801-32.573a21.731 21.731 0 00-4.365 0c-.586-10.652-10.683-19.87-23.908-21.401a31.596 31.596 0 00-14.104 1.498c-3.876-7.915-13.354-14.202-25.21-15.635C93.71 8.34 79.02 16.123 76.284 27.981l-.749-.75a15.406 15.406 0 00-8.208-5.57 42.344 42.344 0 00-15.635-3.974 33.157 33.157 0 00-16.775 2.085C16.025 25.114 2.9 41.042 5.244 57.329a26.775 26.775 0 009.25 16.515C4.789 81.889-.781 93.16.783 104.463a28.118 28.118 0 0013.354 19.544 42.688 42.688 0 0015.179 4.592v1.01c0 9.121 12.345 16.287 27.328 15.896a34.427 34.427 0 0022.605-8.013 29.305 29.305 0 009.349 3.941c3.42.424 7.426-1.889 10.618 0 .948.71 1.764 1.581 2.41 2.574a34.921 34.921 0 0021.726 12.573 45.08 45.08 0 0025.341-3.681 24.056 24.056 0 007.003-4.365 23.127 23.127 0 005.701-9.772c.716-2.019.847-7.166 2.41-8.632 1.563-1.466 6.514-1.368 8.599-2.443a21.914 21.914 0 007.915-6.319 25.536 25.536 0 005.016-17.883 32.868 32.868 0 0015.049-25.081z" fill="#6BAC8F"/><path d="M150.94 61.303a10.095 10.095 0 00-12.279-2.443 14.203 14.203 0 00-8.469-13.03 13.028 13.028 0 00-14.69 3.649 12.419 12.419 0 00-10.456-5.57 15.702 15.702 0 00-12.866 7.98c-.912 1.499 1.53 2.769 2.475 1.27a13.03 13.03 0 019.772-6.514 9.576 9.576 0 019.576 6.026 1.398 1.398 0 001.197.932 1.403 1.403 0 001.344-.704 10.359 10.359 0 0113.029-4.202 11.792 11.792 0 016.221 12.801 1.406 1.406 0 00.73 1.501 1.4 1.4 0 001.648-.263 7.258 7.258 0 015.687-2.194 7.257 7.257 0 015.355 2.91 10.49 10.49 0 01-.489 12.769c-1.042 1.401.978 3.258 2.02 1.857a13.031 13.031 0 00.195-16.775zM25.537 107.72a10.126 10.126 0 0012.41 1.661 14.268 14.268 0 009.218 12.345 13.221 13.221 0 0014.462-4.56 12.508 12.508 0 0010.782 4.951 15.766 15.766 0 0012.28-8.664c.846-1.564-1.694-2.671-2.541-1.108a13.036 13.036 0 01-9.479 7.069 9.548 9.548 0 01-9.772-5.212 1.404 1.404 0 00-1.27-.811 1.398 1.398 0 00-1.27.811 10.359 10.359 0 01-12.67 4.984 11.858 11.858 0 01-7.036-12.411 1.368 1.368 0 00-2.41-1.075 7.336 7.336 0 01-5.554 2.547 7.336 7.336 0 01-5.554-2.547 10.423 10.423 0 01-.26-12.769c.944-1.465-1.173-3.257-2.15-1.758a13.03 13.03 0 00.814 16.547zM69.347 62.117a9.772 9.772 0 00-6.515-9.218 9.51 9.51 0 00-9.348 2.02 13.03 13.03 0 00-13.355-7.394 18.761 18.761 0 00-15.21 14.234 1.4 1.4 0 002.637.847 16.288 16.288 0 0111.857-12.183 10.26 10.26 0 0112.182 7.395 1.4 1.4 0 002.508.488 6.808 6.808 0 0112.475 3.811c.065 1.76 2.801 1.922 2.769 0zM134.914 103.192a11.887 11.887 0 00-4.364-13.55 14.627 14.627 0 00-17.199.163c-1.368 1.107 0 3.452 1.466 2.345a11.89 11.89 0 0113.42-.717 9.153 9.153 0 013.42 12.313 1.364 1.364 0 00.044 1.382 1.367 1.367 0 001.226.638 7.55 7.55 0 016.843 4.314 7.55 7.55 0 01.675 4.158 7.548 7.548 0 01-1.655 3.873c-1.107 1.4.912 3.257 2.02 1.889a10.334 10.334 0 001.865-10.092 10.327 10.327 0 00-7.761-6.716z" fill="#5F997D"/><path d="M88.858 213.616a3.84 3.84 0 002.736.325 4.587 4.587 0 001.563-1.205 37.431 37.431 0 005.733-10.032l6.254-14.17-6.515 1.955a23.74 23.74 0 00-7.296 3.029 22.803 22.803 0 00-8.208 13.029c-1.205 5.798 1.303 5.407 5.733 7.069z" fill="#B9C48A"/><path d="M107.195 509.511H3.615L0 460.196l36.742-202.541 63.353 22.182-5.863 180.489 12.963 49.185z" fill="#EBE8D0"/><path d="M55.666 166.515l-.293-.163 22.214-7.622-6.808-9.251-30.227 4.3-3.648 12.247 1.987 16.971 9.12 17.459a51.561 51.561 0 015.147 9.772l9.055-34.593s-6.677-9.641-6.547-9.12z" fill="#DBAA8B"/></g><g clip-path="url(#clip1)"><g opacity=".4"><path opacity=".4" d="M396.806 279.606l-2.092-15.022-32.635-8.238-1.77 10.887 13.807 10.467-11.715 18.801L326.74 277.7l-7.595 11.145 13.71 31.917-2.317 61.218 41.197 4.781 2.703-65.094 24.171-29.107-1.803-12.954z" fill="#224866"/><path opacity=".4" d="M392.558 529l-6.469-156.388-66.107-8.723L292.303 529h100.255zM292.109 150.063L277.626 288.49c-.45 4.264 17.895 11.726 40.972 16.701 23.076 4.975 42.838 5.815 44.189 1.745l43.675-132.095-114.353-24.778z" fill="#224866"/><path opacity=".64" d="M390.82 198.585s.29-.162.29-.291c.418-1.874-20.373-7.979-46.443-13.633-26.07-5.653-47.537-8.69-47.955-6.816a.42.42 0 00.16.388h-.354l-10.717 108.512c-.322 3.231 14.901 9.336 33.987 13.471 19.086 4.135 35.403 4.975 36.53 1.809l34.985-103.343-.483-.097z" fill="#224866"/><path opacity=".4" d="M406.398 174.227c-.515 2.423-26.456-1.163-57.933-7.979-31.476-6.817-56.613-14.182-56.098-16.573.515-2.39 26.456 1.163 57.933 7.98 31.477 6.816 56.613 14.311 56.098 16.572z" fill="#224866"/><path opacity=".51" d="M391.303 198.068c-.386 1.68-21.918-1.518-48.277-7.204s-47.022-11.662-46.636-13.407c.386-1.744 21.918 1.519 48.277 7.204 26.36 5.686 47.022 11.695 46.636 13.407z" fill="#224866"/><path opacity=".4" d="M306.721 237.286l1.32.291a2.894 2.894 0 011.577.678 1.203 1.203 0 01.257 1.163 1.397 1.397 0 01-.202.592 1.4 1.4 0 01-.441.442 3.936 3.936 0 01-1.899 0l-4.345-.937-.869-.193a1.675 1.675 0 01-1.03-.582 1.524 1.524 0 010-1.163 1.198 1.198 0 01.644-.969 2.923 2.923 0 011.673 0h.354l3.862-17.865h-.321a3.016 3.016 0 01-1.545-.678 1.3 1.3 0 01-.226-1.195 1.36 1.36 0 01.612-1.002 1.574 1.574 0 011.191 0l.869.194 4.119.904a4.05 4.05 0 011.932.743 1.238 1.238 0 01.193 1.196 1.133 1.133 0 01-.773 1.001 4.764 4.764 0 01-2.092 0l-.998-.452-1.48 6.881 9.462 2.067 1.481-6.913-1.352-.291a3.21 3.21 0 01-1.545-.678 1.27 1.27 0 01-.225-1.195 1.192 1.192 0 01.676-1.034 4.833 4.833 0 012.253.162l3.862 1.001.901.194a1.478 1.478 0 01.998.581 1.529 1.529 0 010 1.163 1.356 1.356 0 01-.644 1.002 2.445 2.445 0 01-1.545 0h-.483l-3.862 17.864h.322c.574.07 1.119.293 1.577.646a1.329 1.329 0 01.193 1.163 1.385 1.385 0 01-.643 1.034 4.062 4.062 0 01-1.996 0l-3.894-1.034a4.24 4.24 0 01-1.964-.743 1.358 1.358 0 01-.225-1.227 1.228 1.228 0 01.773-.969 5.037 5.037 0 011.995 0l.998.226 1.77-8.27-9.655-2.035-1.61 8.237zM323.039 253.277a1.58 1.58 0 01-.74-.387.952.952 0 010-.743c0-.42.901-1.099 2.446-2.036l.354-.193.998-.647c2.768-1.679 4.281-3.004 4.506-4.005a2.592 2.592 0 00-.258-1.874 1.936 1.936 0 00-1.416-1.002 2.912 2.912 0 00-1.287 0c-.39.068-.755.235-1.062.485l-.258.226c-.322.42-.643.582-.965.517a.582.582 0 01-.451-.355 2.695 2.695 0 01.193-1.389c.097-.121.218-.22.354-.291a4.971 4.971 0 011.803-.646 5.151 5.151 0 011.995 0 3.738 3.738 0 012.543 1.68 3.49 3.49 0 01.547 2.875c-.29 1.292-1.77 2.81-4.506 4.49-.708.42-1.255.743-1.609 1.002l-1.481.904 4.57 1.002c.043-.241.168-.458.355-.614a.702.702 0 01.579 0 .704.704 0 01.483.355.792.792 0 010 .614l-.258.743a.771.771 0 01-.29.452.471.471 0 01-.418 0l-6.727-1.163zM357.767 238.837a13.288 13.288 0 01-4.924 8.27 10.405 10.405 0 01-15.353-3.231 13.483 13.483 0 01-1.094-9.691 13.645 13.645 0 014.924-8.27 9.632 9.632 0 018.433-1.777 10.029 10.029 0 016.952 5.137 13.485 13.485 0 011.062 9.562zm-12.874 7.301a6.418 6.418 0 005.793-1.422 11.964 11.964 0 003.412-6.654c.676-2.465.54-5.082-.387-7.463a6.44 6.44 0 00-4.698-3.683 6.424 6.424 0 00-5.762 1.422 11.68 11.68 0 00-3.411 6.655 11.86 11.86 0 00.386 7.462 6.46 6.46 0 001.924 2.496 6.418 6.418 0 002.872 1.284l-.129-.097zM330.602 494.951c0-.767-.23-1.517-.658-2.152a3.82 3.82 0 00-5.937-.504 3.855 3.855 0 00-.725 4.242 3.826 3.826 0 003.651 2.258 3.823 3.823 0 002.605-1.182 3.848 3.848 0 001.064-2.662zM358.699 474.986a3.887 3.887 0 00-.993-2.967 3.848 3.848 0 00-2.853-1.263 3.848 3.848 0 00-2.852 1.263 3.881 3.881 0 00-.994 2.967 3.881 3.881 0 001.243 2.51 3.851 3.851 0 005.207 0 3.88 3.88 0 001.242-2.51zM323.006 464.972a3.88 3.88 0 00-2.369-3.608 3.856 3.856 0 00-4.224.834 3.893 3.893 0 00-.831 4.24 3.88 3.88 0 001.437 1.738 3.85 3.85 0 002.157.64c1.016 0 1.99-.405 2.709-1.126a3.852 3.852 0 001.121-2.718zM351.072 440.937a3.86 3.86 0 00-.645-2.136 3.82 3.82 0 00-5.893-.583 3.855 3.855 0 00.58 5.915 3.818 3.818 0 004.836-.478 3.849 3.849 0 001.122-2.718zM383.514 489.33a3.881 3.881 0 00-2.384-3.582 3.856 3.856 0 00-5.266 2.825 3.893 3.893 0 00.22 2.24 3.87 3.87 0 003.568 2.393 3.845 3.845 0 002.731-1.135 3.875 3.875 0 001.131-2.741zM383.514 451.759a3.883 3.883 0 00-2.384-3.582 3.847 3.847 0 00-4.209.841 3.882 3.882 0 00-.837 4.224 3.864 3.864 0 003.568 2.393 3.838 3.838 0 003.862-3.876zM325.003 422.975c0-.76-.225-1.503-.646-2.136a3.835 3.835 0 00-1.719-1.416 3.818 3.818 0 00-4.173.834 3.844 3.844 0 00-1.049 1.968 3.862 3.862 0 00.218 2.221 3.822 3.822 0 006.247 1.247 3.851 3.851 0 001.122-2.718zM371.799 415.384a3.852 3.852 0 00-2.365-3.552 3.819 3.819 0 00-4.174.833 3.857 3.857 0 00-.83 4.19c.29.702.781 1.303 1.411 1.725a3.823 3.823 0 004.836-.478 3.853 3.853 0 001.122-2.718zM346.244 397.745c0-.767-.227-1.516-.651-2.154a3.865 3.865 0 00-3.965-1.648 3.853 3.853 0 00-1.977 1.061 3.882 3.882 0 00-.837 4.225 3.871 3.871 0 001.422 1.739 3.853 3.853 0 002.146.654 3.814 3.814 0 002.74-1.126 3.85 3.85 0 001.122-2.751zM373.569 390.67c0-.767-.226-1.516-.651-2.154a3.86 3.86 0 00-3.965-1.648 3.86 3.86 0 00-1.977 1.061 3.882 3.882 0 00-.837 4.225 3.866 3.866 0 003.568 2.393 3.831 3.831 0 002.74-1.126 3.85 3.85 0 001.122-2.751zM319.37 367.475l-7.853-9.917h-12.874l5.246-12.922 11.136-5.88s6.437 0 7.595 2.94c1.159 2.94 9.141 7.559 9.141 7.559l10.749 7.107 9.946-3.521 6.437-1.744 7.016 5.879 7.628 3.877 5.857-5.072 7.017-2.94 9.333 2.358 7.049 8.82-1.191 7.042-8.754 9.918-6.631-5.718h-14.451l-16.961-1.777-12.874-5.912h-11.779l-10.782-.097z" fill="#224866"/><path opacity=".4" d="M334.368 371.287a3.893 3.893 0 00-.638-2.166 3.863 3.863 0 00-3.97-1.67 3.862 3.862 0 00-1.985 1.063 3.883 3.883 0 00.605 5.978c.64.423 1.391.646 2.158.64 1.016 0 1.99-.406 2.708-1.126a3.854 3.854 0 001.122-2.719zM396.806 279.606l-2.092-15.022-32.635-8.238-1.77 10.887 13.807 10.467 24.493 14.86-1.803-12.954z" fill="#224866"/></g><path d="M388.213 259.706l-2.125-15.054-32.635-8.206-1.738 10.887L365.49 257.8l-11.683 18.769-35.693-18.769-7.595 11.145 13.71 31.885-2.285 61.25 41.165 4.781 2.735-65.094 24.171-29.139-1.802-12.922z" fill="#ECC192"/><path d="M383.932 509.068l-6.437-156.388-66.139-8.723-27.679 165.111h100.255z" fill="#EFEEEE"/><path d="M283.516 130.163L269 268.59c-.45 4.232 17.927 11.662 40.972 16.669 23.044 5.007 42.87 5.847 44.189 1.777l43.579-132.192-114.224-24.681z" fill="#6CA2CF"/><path opacity=".64" d="M382.194 178.685c.193 0 .29-.162.322-.291.386-1.873-20.405-7.979-46.475-13.632-26.07-5.654-47.537-8.69-47.923-6.688v.388h-.386l-10.557 108.383c-.322 3.231 14.901 9.336 34.019 13.471s35.404 4.975 36.498 1.809L382.58 178.75l-.386-.065z" fill="#fff"/><path d="M397.74 154.456c-.515 2.391-26.456-1.195-57.933-8.011-31.477-6.817-56.549-14.214-56.034-16.702.515-2.487 26.456 1.195 57.933 8.012 31.477 6.816 56.581 14.278 56.034 16.701z" fill="#7CB4DB"/><path opacity=".51" d="M382.709 178.136c-.354 1.712-21.917-1.518-48.277-7.172-26.359-5.653-47.022-11.694-46.668-13.406.354-1.713 21.918 1.55 48.277 7.204 26.36 5.653 47.022 11.662 46.668 13.374z" fill="#fff"/><path d="M298.127 217.386l1.32.291a3.21 3.21 0 011.577.679 1.132 1.132 0 01.161 1.098 1.262 1.262 0 01-.644 1.034 3.462 3.462 0 01-1.899 0l-4.248-1.034h-.901a1.704 1.704 0 01-1.03-.614 1.444 1.444 0 010-1.131c0-.516.321-.872.676-1.001a3.207 3.207 0 011.673 0h.354l3.83-17.865h-.322a3.204 3.204 0 01-1.545-.646 1.367 1.367 0 01-.354-1.357c.072-.399.29-.756.612-1.001a1.858 1.858 0 011.223 0l.837.194 4.152.872c.697.097 1.36.363 1.931.775a1.403 1.403 0 01.193 1.196 1.284 1.284 0 01-.773 1.001 4.43 4.43 0 01-2.092 0l-.901-.194-1.48 6.849 9.462 2.067 1.48-6.913-1.319-.291a2.888 2.888 0 01-1.545-.678 1.292 1.292 0 01-.257-1.195 1.355 1.355 0 01.675-1.034 4.422 4.422 0 012.253.162l3.959.839.869.194c.393.064.748.271.998.582a1.53 1.53 0 01.161 1.163 1.486 1.486 0 01-.676 1.034 3.02 3.02 0 01-1.545 0h-.483L310.84 220.1h.322a3.219 3.219 0 011.545.678 1.103 1.103 0 01.193 1.131 1.262 1.262 0 01-.644 1.034c-.651.19-1.344.19-1.995 0l-4.249-.905a4.298 4.298 0 01-1.963-.775 1.2 1.2 0 01-.193-1.195 1.16 1.16 0 01.74-.969 4.167 4.167 0 012.028 0l.998.355 1.77-8.238-9.495-2.1-1.77 8.27zM314.446 233.345a1.093 1.093 0 01-.741-.388.746.746 0 010-.71c0-.453.902-1.131 2.446-2.036l.354-.226 1.03-.613c2.768-1.68 4.249-3.037 4.474-4.006.163-.631.083-1.3-.225-1.874a2.204 2.204 0 00-1.449-1.034 3.232 3.232 0 00-1.255 0 2.639 2.639 0 00-1.094.517l-.225.226c-.354.388-.676.549-.998.485a.545.545 0 01-.451-.323 1.634 1.634 0 010-.872c.021-.186.088-.364.193-.517a.966.966 0 01.322-.291 4.625 4.625 0 011.803-.646 5.357 5.357 0 012.027 0c1.03.213 1.94.814 2.543 1.68a3.689 3.689 0 01.547 2.907c-.29 1.292-1.802 2.811-4.538 4.491l-1.609.969-1.481.937 4.57.969c.074-.235.207-.447.387-.614a.705.705 0 01.579 0 .672.672 0 01.451.323.879.879 0 010 .646l-.258.743a.876.876 0 01-.257.452.55.55 0 01-.451 0l-6.694-1.195zM349.173 219.034a13.353 13.353 0 01-4.924 8.27 10.467 10.467 0 01-8.399 1.845 10.509 10.509 0 01-6.953-5.075 13.323 13.323 0 01-1.095-9.692 13.443 13.443 0 014.893-8.302 10.468 10.468 0 018.417-1.863c1.454.305 2.827.917 4.028 1.795a10.52 10.52 0 012.939 3.298 13.453 13.453 0 011.094 9.724zm-12.874 7.301a6.418 6.418 0 005.793-1.421 11.903 11.903 0 003.412-6.655 11.87 11.87 0 00-.386-7.463 6.854 6.854 0 00-1.917-2.383 6.812 6.812 0 00-5.811-1.274 6.808 6.808 0 00-2.732 1.364 11.964 11.964 0 00-3.412 6.654 11.867 11.867 0 00.483 7.527 6.433 6.433 0 004.667 3.651h-.097z" fill="#fff"/><path d="M301.185 494.724a3.885 3.885 0 00-.635-2.162 3.86 3.86 0 00-3.961-1.676 3.866 3.866 0 00-3.051 3.038 3.88 3.88 0 001.636 3.989 3.856 3.856 0 002.149.656 3.813 3.813 0 002.729-1.115 3.846 3.846 0 001.133-2.73zM322.009 475.018c0-.766-.227-1.516-.651-2.153a3.864 3.864 0 00-3.965-1.649 3.868 3.868 0 00-3.035 3.046 3.876 3.876 0 001.643 3.98 3.848 3.848 0 002.145.653 3.824 3.824 0 003.577-2.388c.193-.472.29-.978.286-1.489zM350.073 455.086a3.89 3.89 0 00-.993-2.966 3.865 3.865 0 00-2.853-1.264 3.865 3.865 0 00-3.846 4.23 3.881 3.881 0 001.243 2.51 3.853 3.853 0 005.207 0 3.88 3.88 0 001.242-2.51zM314.413 445.104a3.885 3.885 0 00-2.269-3.695 3.85 3.85 0 00-4.262.735 3.885 3.885 0 00.508 6.009 3.853 3.853 0 004.837-.412 3.878 3.878 0 001.186-2.637zM342.478 421.005a3.881 3.881 0 00-2.384-3.582 3.856 3.856 0 00-5.266 2.825 3.893 3.893 0 00.22 2.24 3.854 3.854 0 003.568 2.393 3.827 3.827 0 003.577-2.388c.193-.472.29-.978.285-1.488zM370.897 498.989a3.85 3.85 0 00-2.386-3.529 3.82 3.82 0 00-4.163.854 3.85 3.85 0 00.595 5.906 3.818 3.818 0 004.844-.492 3.85 3.85 0 001.11-2.739zM346.244 489.394a3.89 3.89 0 00-.635-2.162 3.866 3.866 0 00-1.727-1.442 3.843 3.843 0 00-2.234-.234 3.86 3.86 0 00-3.052 3.038 3.883 3.883 0 001.637 3.989 3.85 3.85 0 002.149.655 3.825 3.825 0 003.567-2.365 3.85 3.85 0 00.295-1.479zM374.888 469.43a3.881 3.881 0 00-1.243-2.51 3.851 3.851 0 00-5.207 0 3.885 3.885 0 001.045 6.41 3.858 3.858 0 003.118 0 3.875 3.875 0 002.287-3.9zM374.888 431.859a3.884 3.884 0 00-.637-2.166 3.865 3.865 0 00-3.97-1.67 3.86 3.86 0 00-1.986 1.063 3.893 3.893 0 00-.831 4.239c.297.71.797 1.315 1.437 1.738.64.424 1.391.647 2.157.64 1.016 0 1.99-.405 2.708-1.126a3.847 3.847 0 001.122-2.718zM316.409 403.075c0-.766-.227-1.516-.651-2.153a3.861 3.861 0 00-3.965-1.649 3.86 3.86 0 00-1.977 1.061 3.882 3.882 0 00-.837 4.225 3.874 3.874 0 001.422 1.74 3.852 3.852 0 002.146.653 3.831 3.831 0 002.74-1.126 3.85 3.85 0 001.122-2.751zM363.205 395.451c0-.766-.227-1.516-.651-2.153a3.861 3.861 0 00-3.965-1.649 3.86 3.86 0 00-1.977 1.061 3.894 3.894 0 00-.838 4.225 3.883 3.883 0 001.423 1.74 3.852 3.852 0 002.146.653 3.831 3.831 0 002.74-1.126 3.85 3.85 0 001.122-2.751zM337.458 377.748a3.893 3.893 0 00-.638-2.166 3.865 3.865 0 00-3.97-1.67 3.862 3.862 0 00-1.985 1.063 3.883 3.883 0 00.605 5.978 3.85 3.85 0 002.158.639c1.015 0 1.99-.405 2.708-1.126a3.85 3.85 0 001.122-2.718zM364.943 370.803a3.888 3.888 0 00-.574-2.2 3.865 3.865 0 00-1.703-1.498 3.848 3.848 0 00-4.266.749 3.88 3.88 0 00-.891 4.253 3.868 3.868 0 006.267 1.331 3.852 3.852 0 001.167-2.635z" fill="#AECCDC"/><path d="M310.84 347.575l-7.821-9.95h-12.873l5.278-12.922 11.104-5.879s6.437 0 7.595 2.94c1.159 2.939 9.044 7.527 9.044 7.527l10.75 7.107 9.945-3.521 6.437-1.745 7.016 5.847 7.628 3.909 5.825-5.136 7.017-2.94 9.366 2.358 7.016 8.787-1.159 7.043-8.786 10.111-6.63-5.686h-14.419l-16.929-1.938-12.874-5.912h-22.53z" fill="#EFEEEE"/><path d="M325.774 351.42a3.883 3.883 0 00-2.384-3.582 3.847 3.847 0 00-4.209.841 3.879 3.879 0 00-.837 4.224 3.869 3.869 0 001.422 1.74 3.852 3.852 0 002.146.653 3.81 3.81 0 002.741-1.126 3.842 3.842 0 001.121-2.75z" fill="#AECCDC"/><path d="M388.212 259.706l-2.124-15.054-32.635-8.206-1.738 10.887L365.49 257.8l24.525 14.828-1.803-12.922z" fill="#ECC192"/></g><g clip-path="url(#clip2)"><g opacity=".4"><path opacity=".4" d="M622.653 499.574l-15.188-132.992 16.435-41.983c-2.319-8.332-4.115-16.789-6.758-25.022-.948-2.901-1.172-3.719-3.891-4.587l-5.112-1.637-26.76-8.605c-.349 0-5.537-1.959-5.636-1.81-2.295 4.042-4.988 8.035-7.008 12.225-2.02 4.191-3.691 8.804-5.512 13.193a10.389 10.389 0 00-1.272 6.199c.349 2.48 5.562 28.369 6.459 33.676l10.874 14.879-5.811 132.893 49.18 3.571z" fill="#224866"/><path opacity=".4" d="M577.114 365.144s18.206 8.431 32.421 2.752l.649 5.332s-14.615 9.77-34.192.595l1.122-8.679zM627.891 432.47l-59.281-4.538-6.309 90.092 72.174-3.199-6.584-82.355z" fill="#224866"/><path opacity=".4" d="M563.922 507.857h70.004l-.997-12.524h-68.284l-.723 12.524zM565.692 477.38l65.915 1.512-.948-11.804h-64.368l-.599 10.292zM567.413 448.415l61.824.868-.798-9.993-60.353-2.282-.673 11.407zM643.004 197.707h-80.928c-2.768 0-5.013 2.232-5.013 4.984v114.865c0 2.753 2.245 4.984 5.013 4.984h80.928c2.768 0 5.013-2.231 5.013-4.984V202.691c0-2.752-2.245-4.984-5.013-4.984z" fill="#224866"/><path d="M640.559 207.279H562.15v109.657h78.409V207.279z" fill="#224866" opacity=".4"/><path opacity=".4" d="M641.482 206.535h-78.409v109.657h78.409V206.535zM591.879 200.832a18.957 18.957 0 00-12.969 5.133h47.385a18.912 18.912 0 00-12.969-5.133h-21.447z" fill="#224866"/><path opacity=".4" d="M563.073 316.192h44.641l34.292-34.122v-75.535h-78.933v109.657z" fill="#224866"/><path opacity=".4" d="M643.128 206.039h-81.177v6.621h81.177v-6.621z" fill="#224866"/><path opacity=".4" d="M643.128 206.039h-81.177v1.438h81.177v-1.438zM604.722 310.141c-5.362 5.555-25.314 6.051-25.314 6.051h28.431l23.543-23.434-27.06 1.785s5.712 9.994.4 15.598zM619.686 236.02h-19.303v.868h19.303v-.868zM614.349 238.277h-13.966v.868h13.966v-.868zM607.141 245.071h-6.758v.868h6.758v-.868zM618.389 247.328h-18.006v.868h18.006v-.868zM587.838 284.401h-7.856v1.835h7.856v-1.835zM614.498 284.401h-7.855v1.835h7.855v-1.835zM594.896 227.142h-16.934v23.806h16.934v-23.806zM621.531 226.646l2.968 3.819 5.561-6.918-5.711 4.24-2.818-1.141zM621.531 235.549l2.968 3.844 5.561-6.944-5.711 4.241-2.818-1.141zM621.531 244.699l2.968 3.819 5.561-6.894-5.711 4.191-2.818-1.116zM619.686 227.018h-19.303v.868h19.303v-.868zM604.647 229.275h-4.264v.868h4.264v-.868zM595.02 263.62h-18.729v.868h18.729v-.868zM608.936 265.852h-32.645v.868h32.645v-.868zM592.078 272.647h-15.787v.868h15.787v-.868zM618.413 274.903h-42.122v.868h42.122v-.868zM621.531 254.247l2.968 3.819 5.561-6.919-5.711 4.216-2.818-1.116zM621.531 263.149l2.968 3.819 5.561-6.919-5.711 4.216-2.818-1.116zM621.531 272.3l2.968 3.818 5.561-6.918-5.711 4.215-2.818-1.115zM612.029 254.619h-35.738v.867h35.738v-.867zM586.242 256.85h-9.951v.868h9.951v-.868z" fill="#224866"/><path opacity=".4" d="M587.788 239.963c0-.595-2.494-.67-2.494 0 0 2.207-.898 2.728-.898 2.728s0 2.48 2.145 2.48 2.12-2.48 2.12-2.48-.923-.372-.873-2.728zM580.955 235.102c-2.294 1.513 0 4.34.998 4.266.299 0-.399-.868.149-1.463.549-.595 1.921-.645 1.497-1.687a1.985 1.985 0 00-1.084-1.116 2.01 2.01 0 00-1.56 0zM591.879 235.226a2.011 2.011 0 00-1.561 0 2.008 2.008 0 00-.656.449 1.973 1.973 0 00-.427.667c-.424 1.042.623.72 1.496 1.687.574.595-.124 1.413.15 1.438.998.099 3.267-2.728.998-4.241z" fill="#224866"/><path opacity=".4" d="M586.491 232.028a4.073 4.073 0 00-2.765 1.39 4.035 4.035 0 00-.976 2.924c0 2.48 1.671 5.084 3.741 5.084 2.07 0 3.716-2.703 3.716-5.084a4.026 4.026 0 00-.967-2.916 4.073 4.073 0 00-2.749-1.398z" fill="#224866"/><path opacity=".4" d="M586.267 231.953c-.748.645-.225 2.48 1.346 3.348 1.572.868 2.494 2.033 2.843 1.513a3.995 3.995 0 00-.723-3.596c-1.172-1.339-2.718-1.91-3.466-1.265z" fill="#224866"/><path opacity=".4" d="M583.05 233.218a4.008 4.008 0 00-.724 3.596c.35.52.973-.472 2.868-1.513 1.896-1.042 2.07-2.703 1.322-3.348-.748-.645-2.294-.074-3.466 1.265zM591.18 243.261l-2.719-.843c-.423.893-1.945 1.389-1.945 1.389a4.819 4.819 0 01-2.12-1.364l-2.494.992c-.473 0-1.072 1.066-1.67 2.479a.436.436 0 00.02.396.443.443 0 00.329.224h11.971a.423.423 0 00.375-.422.429.429 0 00-.051-.198c-.599-1.562-1.197-2.653-1.696-2.653zM610.209 284.947a75.624 75.624 0 01-.3 23.384c-.423 1.984-2.194 7.861-2.194 7.861l34.291-34.122s-5.885 1.736-7.482 1.984a155.884 155.884 0 01-24.315.893z" fill="#224866"/><path d="M563.073 247.973l73.072-31.816v-1.116h5.911v-2.48h-78.983v35.412z" fill="#224866" opacity=".4"/><path opacity=".4" d="M572.151 213.751l-.723 1.091h62.223l-.673-1.091h-60.827z" fill="#224866"/><path opacity=".4" d="M629.661 209.337l-17.009-5.232a3.242 3.242 0 01-1.641-1.168 3.212 3.212 0 01-.628-1.907v-2.48a3.198 3.198 0 00-1.846-2.901l-.773-.372a3.312 3.312 0 01-1.771-2.158l-.324-1.339a3.189 3.189 0 00-.956-1.659 3.224 3.224 0 00-1.737-.821 5.09 5.09 0 00-.873 0 3.257 3.257 0 00-1.734.825 3.213 3.213 0 00-.959 1.655l-.325 1.339c-.109.471-.325.91-.632 1.284a3.177 3.177 0 01-1.138.874l-.773.372a3.19 3.19 0 00-1.846 2.901v2.48c0 .686-.22 1.354-.628 1.907a3.242 3.242 0 01-1.641 1.168l-17.009 5.232a3.169 3.169 0 00-1.895 1.563l-2.095 3.942h62.348l-2.095-3.942a3.117 3.117 0 00-2.02-1.563z" fill="#224866"/><path opacity=".4" d="M595.744 202.791a13.177 13.177 0 01.598-5.878c.848-1.066 8.105-1.735 7.806-1.959a21.344 21.344 0 00-3.342-.223c-.673 0-.972-1.512-.424-3.323a3.02 3.02 0 012.045-2.058h-.324a3.249 3.249 0 00-1.733.824 3.218 3.218 0 00-.96 1.656l-.324 1.339a3.158 3.158 0 01-1.771 2.157l-.773.372a3.198 3.198 0 00-1.846 2.902v2.479a3.217 3.217 0 01-2.269 3.075l-17.009 5.183-.523.223c.199 0 17.457-4.81 18.33-4.959.873-.149 15.786-.819 15.712-1.364-.075-.546-13.044-.223-13.193-.446z" fill="#224866"/><path opacity=".4" d="M602.452 191.111a1.098 1.098 0 00-.996.69 1.087 1.087 0 00.816 1.472 1.091 1.091 0 001.119-.468 1.089 1.089 0 00.098-1.027 1.094 1.094 0 00-1.037-.667zM568.236 348.182l-14.639-14.036-1.572-32.783 20.401-13.54 5.761 12.498-9.427 15.598 10.474 17.706-10.998 14.557z" fill="#224866"/></g><path d="M612.628 484.249L597.44 351.257l16.435-42.008c-2.319-8.308-4.115-16.764-6.759-24.997-.922-2.901-1.172-3.719-3.89-4.587l-5.113-1.513-26.759-8.729c-.325 0-5.537-1.984-5.637-1.81-2.294 4.042-4.988 8.034-7.008 12.225-2.02 4.191-3.691 8.779-5.511 13.193a10.534 10.534 0 00-1.222 6.199c.349 2.48 5.561 28.369 6.484 33.676l10.849 14.879-5.861 132.818 49.18 3.646z" fill="#ECCFB3"/><path d="M567.089 349.794s18.231 8.456 32.272 2.752l.648 5.332s-14.614 9.795-34.192.62l1.272-8.704z" fill="#514F52"/><path d="M617.866 417.145l-59.281-4.538-6.31 107.45L626.42 524l-8.554-106.855z" fill="#3C6695"/><path d="M553.896 492.531h70.005l-.998-12.548H554.62l-.724 12.548zM555.691 462.054l65.89 1.513-.948-11.804H556.29l-.599 10.291zM557.388 433.09l61.824.868-.798-9.993-60.353-2.282-.673 11.407z" fill="#AECCDC"/><path d="M632.979 182.382h-80.928c-2.769 0-5.013 2.231-5.013 4.984v114.865c0 2.753 2.244 4.984 5.013 4.984h80.928c2.768 0 5.012-2.231 5.012-4.984V187.366c0-2.753-2.244-4.984-5.012-4.984z" fill="#6BA2CF"/><path d="M630.559 191.954H552.15v109.657h78.409V191.954z" fill="#464657"/><path d="M631.457 191.185h-78.409v109.657h78.409V191.185z" fill="#9ED9DC"/><path d="M581.754 185.506a18.963 18.963 0 00-12.969 5.134h47.385a18.864 18.864 0 00-12.969-5.134h-21.447z" fill="#273C41"/><path d="M553.048 300.867h44.641l34.316-34.122v-75.56h-78.957v109.682z" fill="#BEE5E6"/><path d="M633.103 190.714h-81.177v6.621h81.177v-6.621z" fill="#273C41"/><path d="M633.103 190.714h-81.177v1.438h81.177v-1.438z" fill="#0491A0"/><path d="M594.697 294.791c-5.312 5.679-25.438 6.076-25.438 6.076h28.43l23.543-23.434-27.059 1.785s5.836 9.994.524 15.573z" fill="#464657"/><path d="M609.66 220.695h-19.303v.868h19.303v-.868zM604.323 222.951h-13.966v.868h13.966v-.868zM597.116 229.746h-6.759v.868h6.759v-.868zM608.364 231.978h-18.007v.868h18.007v-.868zM577.813 269.051h-7.856v1.835h7.856v-1.835zM604.473 269.051h-7.856v1.835h7.856v-1.835z" fill="#273C41"/><path d="M584.896 211.792h-16.934v23.806h16.934v-23.806z" fill="#DCF0F2"/><path d="M611.506 211.321l2.993 3.819 5.536-6.919-5.711 4.216-2.818-1.116zM611.506 220.224l2.993 3.819 5.536-6.919-5.711 4.216-2.818-1.116zM611.506 229.374l2.993 3.819 5.536-6.919-5.711 4.216-2.818-1.116z" fill="#AF1F23"/><path d="M609.66 211.693h-19.303v.868h19.303v-.868zM594.622 213.925h-4.265v.868h4.265v-.868zM584.995 248.27h-18.729v.868h18.729v-.868zM598.911 250.527h-32.645v.868h32.645v-.868zM582.077 257.322h-15.811v.867h15.811v-.867zM608.388 259.578h-42.122v.868h42.122v-.868z" fill="#273C41"/><path d="M611.506 238.897l2.993 3.843 5.536-6.918-5.711 4.215-2.818-1.14zM611.506 247.824l2.993 3.819 5.536-6.919-5.711 4.216-2.818-1.116zM611.506 256.95l2.993 3.843 5.536-6.918-5.711 4.215-2.818-1.14z" fill="#AF1F23"/><path d="M602.004 239.269h-35.738v.867h35.738v-.867zM576.216 241.525h-9.95v.868h9.95v-.868z" fill="#273C41"/><path d="M577.762 224.638c0-.595-2.494-.67-2.494 0 0 2.207-.922 2.727-.922 2.727s0 2.48 2.144 2.48c2.145 0 2.12-2.48 2.12-2.48s-.898-.372-.848-2.727z" fill="#F8A37D"/><path d="M570.93 219.777c-2.295 1.513 0 4.315.997 4.241.299 0-.399-.843.15-1.463.548-.62 1.945-.62 1.521-1.662a1.988 1.988 0 00-1.882-1.283 2.005 2.005 0 00-.786.167z" fill="#713215"/><path d="M581.903 219.901a1.98 1.98 0 00-2.644 1.116c-.424 1.017.624.719 1.522 1.662.897.942-.15 1.438.149 1.463.973.074 3.192-2.728.973-4.241z" fill="#54220E"/><path d="M576.466 216.678a4.1 4.1 0 00-2.804 1.441 4.049 4.049 0 00-.937 2.997c0 2.48 1.671 5.084 3.741 5.084 2.07 0 3.716-2.703 3.716-5.084a4.043 4.043 0 00-.928-2.989 4.089 4.089 0 00-2.788-1.449z" fill="#FCCAAB"/><path d="M576.241 216.628c-.748.645-.224 2.48 1.347 3.348 1.571.868 2.494 2.008 2.868 1.512a4.014 4.014 0 00-.748-3.595c-1.147-1.34-2.793-1.91-3.467-1.265z" fill="#692C11"/><path d="M573.049 217.893a4.032 4.032 0 00-.748 3.595c.349.496.972-.496 2.868-1.512 1.895-1.017 2.095-2.703 1.347-3.348-.749-.645-2.32-.075-3.467 1.265z" fill="#7E3E1B"/><path d="M581.154 227.936l-2.718-.843c-.399.892-1.921 1.388-1.921 1.388a4.818 4.818 0 01-1.945-1.388l-2.494.868c-.474 0-1.072 1.091-1.646 2.479a.429.429 0 00-.003.396.423.423 0 00.327.224h11.971a.426.426 0 00.328-.224.426.426 0 00-.003-.396c-.774-1.413-1.397-2.504-1.896-2.504z" fill="#AF1F23"/><path d="M600.208 269.621a75.028 75.028 0 01-.324 23.41c-.399 2.008-2.195 7.886-2.195 7.886l34.317-34.172s-5.911 1.736-7.482 1.959a156.89 156.89 0 01-24.316.917z" fill="#DCF0F2"/><path d="M553.048 232.647l73.072-31.766v-1.141h5.91v-2.479h-78.982v35.386z" fill="#464657"/><path d="M562.151 198.426l-.749 1.091h62.249l-.699-1.091h-60.801z" fill="#E2A673"/><path d="M619.635 193.987l-17.008-5.108a3.195 3.195 0 01-1.644-1.151 3.166 3.166 0 01-.626-1.899v-2.48a3.181 3.181 0 00-.498-1.718 3.217 3.217 0 00-1.347-1.184l-.773-.347a3.258 3.258 0 01-1.746-2.157l-.349-1.463a3.167 3.167 0 00-.953-1.664 3.208 3.208 0 00-1.741-.816h-.872a3.252 3.252 0 00-1.734.824 3.218 3.218 0 00-.96 1.656l-.324 1.339a3.239 3.239 0 01-1.746 2.157l-.773.348a3.232 3.232 0 00-1.358 1.181 3.203 3.203 0 00-.512 1.72v2.48a3.164 3.164 0 01-.588 1.974 3.195 3.195 0 01-1.682 1.2l-16.983 5.108a3.213 3.213 0 00-1.896 1.563l-2.12 3.967h62.348l-2.119-3.967a3.21 3.21 0 00-1.996-1.563z" fill="#FCBC7E"/><path d="M585.718 187.465a13.143 13.143 0 01.599-5.877c.848-1.066 8.105-1.736 7.806-1.959a21.155 21.155 0 00-3.317-.223c-.698 0-.998-1.513-.449-3.323a2.94 2.94 0 012.045-2.083h-.299a3.256 3.256 0 00-1.749.818 3.226 3.226 0 00-.97 1.662l-.324 1.339a3.239 3.239 0 01-1.746 2.157l-.773.348a3.238 3.238 0 00-1.358 1.181 3.211 3.211 0 00-.512 1.72v2.48a3.164 3.164 0 01-.588 1.974 3.191 3.191 0 01-1.682 1.2l-16.983 5.108-.549.223c.2 0 17.458-4.786 18.355-4.959.898-.174 15.762-.843 15.687-1.364-.075-.521-13.043-.198-13.193-.422z" fill="#E2A673"/><path d="M592.452 175.785a1.08 1.08 0 00-1.021.67 1.05 1.05 0 00-.076.422c0 .289.115.567.321.771a1.1 1.1 0 001.873-.771c0-.29-.115-.567-.321-.772a1.1 1.1 0 00-.776-.32z" fill="#056675"/><path d="M558.21 332.856l-14.639-14.06L542 286.013l20.4-13.515 5.761 12.498-9.427 15.598 10.475 17.681-10.999 14.581z" fill="#ECCFB3"/></g><g clip-path="url(#clip3)"><g opacity=".4"><path opacity=".4" d="M1144.73 239.261l10.18-21.848 3.12-8.52-10.14-29.057-6.53 3.121-10.55-1.374-5.93 10.737-4.24-5.337-10.24 1.186-1.78 5.337-3.12-7.803-7.71 4.182 4.56 10.768h-.41l-3.12 28.09 1.81 8.177 7.77 12.484-7.86 127.964 42.16-9.364V245.659l2.03-6.398z" fill="#224866"/><path opacity=".4" d="M1164.93 520h-77.34l9.67-241.227 49.66 2.591L1164.93 520zM1161.9 37.11c3.01.363 6.07-.146 8.8-1.468-1.97.937 1.62 24.157 1.97 26.998.56 4.494 5.99 24.157-4.28 17.165-4.56-3.12-2.62-10.361-2.65-15.012-.5-9.319-1.79-18.58-3.84-27.684z" fill="#224866"/><path opacity=".4" d="M1170.61 84.674l5.96-71.254s5.09-5.118 9.02 2.622c3.93 7.74-7.34 63.451-7.34 63.451l-7.64 5.181z" fill="#224866"/><path opacity=".4" d="M1170.17 83.676l19.38-57.116s5.06-2.778 6.56 4.682c1.49 7.46-18.73 50.28-18.73 50.28l-7.21 2.154z" fill="#224866"/><path opacity=".4" d="M1053.82 264.291c11.86-5.212 22.87-11.423 26.12-13.202 39.89-22.066 75.15-54.993 95.6-97.002 8.42-17.229 19.5-40.574 14.23-60.518-7.09-26.716-33.55-27.652-50.47-10.268-10.8 11.08-16.16 27.778-22.38 41.791a492.637 492.637 0 01-26.65 54.369c-17.17 28.558-38.92 57.74-65.54 77.558-2.31 1.748-6.87 7.46-5.9 10.706 2.71 8.551 19.57 3.402 34.99-3.434z" fill="#224866"/><path opacity=".1" d="M1146.54 159.517c.69.188 1.59 0 1.69-.624a1.227 1.227 0 00-.34-.936 18.238 18.238 0 00-4.44-4.182c-5.52-4.12-11.33-8.021-16.48-12.485-1.87-1.716-11.61-11.797-10.2-14.263-5.74 10.081-5.18 11.798 4.65 19.288a64.178 64.178 0 0012.48 7.085c4.06 1.842 8.46 4.838 12.49 6.242l.15-.125zM1134.15 174.186a4.742 4.742 0 01-.93-2.153c-.05-.38.04-.763.25-1.087.2-.323.51-.567.87-.692.75 0 1.4.437 1.97.967 5.08 5.088 10.45 10.643 17.41 11.86.68.048 1.34.239 1.94.562.3.164.54.426.68.744.13.317.16.671.07 1.004-.23.426-.59.766-1.03.968-2.44 1.56-2.16 2.652-4.97 1.903a22.719 22.719 0 01-6.24-3.651 40.067 40.067 0 01-10.02-10.425zM1129.88 131.085a11.215 11.215 0 006.77 3.807c.5-1.623-.97-3.121-2.25-4.276-4.81-4.659-9.17-9.77-13.01-15.262-6.03 4.058 5.55 12.953 8.49 15.731zM1073.82 233.393c-.18-.687 0-3.121 1.06-1.717 2.5 3.714 4.84 8.583 8.99 10.612 2.32.97 4.71 1.743 7.15 2.31a11.308 11.308 0 01-5.06 2.652c-2.52-.187-4.99-3.121-6.64-5.024a25.452 25.452 0 01-3.66-5.025 21.385 21.385 0 01-1.84-3.808z" fill="#224866"/><path opacity=".4" d="M1083.37 520l-12.83-46.036v-63.981l4.28-38.233s14.73-28.87 15.61-29.651c.87-.78 56.18-7.022 56.18-7.022l15.6 4.682 19.57 47.596 6.24 46.816-5.3 41.354-7.18 36.672-4.28 7.803h-87.89zM1157.9 208.58l-9.61-27.402-19.88-6.055-3.4 11.329 11.89 5.119-1.69 20.973-6.8 9.644 29.49-13.608zM1100.04 336.794h2.84l2.28-51.623h-4l-1.12 51.623zM1108.56 336.794h2.84l2.81-51.623-3.97 1.124-1.68 50.499z" fill="#224866"/><path opacity=".4" d="M1121.01 285.171l-2.24 51.623 2.15 1.248 4.09-52.871h-4zM1125.01 337.574l1.68-.78 6.25-49.937h-2.28l-5.65 50.717zM1135.78 335.077h2.27l2.25-48.22h-2.59l-1.93 48.22zM1145.98 286.857h-2.28v46.503h2.28v-46.503z" fill="#224866"/></g><path d="M1132.97 227.494l10.17-21.847 3.12-8.521-10.14-29.057-6.52 3.121v-.156l-10.55-1.342-5.93 10.705-4.25-5.337-10.24 1.186-1.81 5.493-3.12-7.802-7.71 4.182 4.56 10.768h-.4l-3.13 28.089 1.69 8.146 7.77 12.484-7.86 127.964 42.16-9.363V233.892l2.19-6.398z" fill="#AF8B7F"/><path d="M1153.16 508.234h-77.34l9.67-241.227 49.66 2.59 18.01 238.637z" fill="#AD705F"/><path d="M1150.13 25.343c3.02.364 6.07-.145 8.8-1.467-1.96.936 1.63 24.157 1.97 26.997.56 4.495 5.99 24.157-4.28 17.166-4.55-3.12-2.62-10.362-2.65-15.012-.5-9.32-1.78-18.58-3.84-27.684z" fill="#C9D6A1"/><path d="M1158.84 72.908l5.96-71.254s5.09-5.087 9.02 2.622c3.93 7.709-7.33 63.451-7.33 63.451l-7.65 5.181z" fill="#BCC98F"/><path d="M1158.4 71.784l19.38-56.959s5.06-2.809 6.56 4.65c1.5 7.46-18.73 50.28-18.73 50.28l-7.21 2.03z" fill="#C9D6A1"/><path d="M1042.11 252.525c11.86-5.212 22.88-11.423 26.13-13.202 39.82-22.066 75.09-54.962 95.59-97.003 8.43-17.228 19.51-40.573 14.24-60.517-7.09-26.716-33.56-27.653-50.47-10.268-10.8 11.08-16.17 27.777-22.38 41.791a491.107 491.107 0 01-26.72 54.369c-17.16 28.557-38.92 57.739-65.54 77.558-2.25 1.748-6.8 7.553-5.96 10.674 2.78 8.583 19.63 3.433 35.11-3.402z" fill="#E59032"/><path opacity=".1" d="M1134.78 147.751c.68.187 1.59 0 1.68-.624a1.222 1.222 0 00-.34-.937 18.253 18.253 0 00-4.28-4.182c-5.52-4.12-11.33-8.021-16.48-12.484-1.87-1.717-11.61-11.798-10.2-14.263-5.75 10.081-5.18 11.797 4.65 19.288a64.23 64.23 0 0012.48 7.085c4.06 1.841 8.46 4.837 12.49 6.242v-.125zM1122.48 162.295a4.758 4.758 0 01-.94-2.153c-.04-.38.05-.763.25-1.087.21-.323.51-.567.88-.692a2.481 2.481 0 011.96.967c5.09 5.087 10.46 10.643 17.42 11.86.68.048 1.34.239 1.93.562.31.164.55.426.68.743.14.318.16.672.07 1.005a2.22 2.22 0 01-1.03.967c-2.43 1.561-2.15 2.653-4.96 1.904a22.719 22.719 0 01-6.24-3.651 39.905 39.905 0 01-10.02-10.425zM1118.11 119.256a11.215 11.215 0 006.77 3.807c.5-1.623-.96-3.121-2.24-4.275a102.662 102.662 0 01-13.02-15.262c-5.87 4.119 5.56 13.014 8.49 15.73zM1062.06 221.595c-.19-.686 0-3.121 1.06-1.716 2.49 3.714 4.83 8.583 8.99 10.611 2.31.971 4.7 1.743 7.14 2.31a11.327 11.327 0 01-5.05 2.653c-2.53-.187-5-3.121-6.65-5.025a24.98 24.98 0 01-3.65-5.025 20.69 20.69 0 01-1.84-3.808z" fill="#010101"/><path d="M1071.61 508.234l-12.83-46.036v-63.982l4.4-38.233s14.73-28.87 15.6-29.65c.88-.78 56.18-7.022 56.18-7.022l15.61 4.681 19.47 47.596 6.25 46.816-5.25 41.354-7.11 36.673-4.28 7.803h-88.04z" fill="#AD705F"/><path d="M1146.14 196.814l-9.62-27.403-19.88-6.055-3.4 11.361 11.89 5.087-1.68 20.974-6.81 9.644 29.5-13.608z" fill="#AF8B7F"/><path d="M1088.27 325.027h2.84l2.28-51.622h-3.99l-1.13 51.622zM1096.79 325.027h2.84l2.81-51.622-3.96 1.123-1.69 50.499zM1109.28 273.405l-2.28 51.622 2.15 1.28 4.09-52.902h-3.96zM1113.24 325.808l1.69-.781 6.24-49.937h-2.28l-5.65 50.718zM1124.01 323.311h2.28l2.24-48.221h-2.59l-1.93 48.221zM1134.21 275.09h-2.27v46.504h2.27V275.09z" fill="#9A6354"/></g><g clip-path="url(#clip4)"><g opacity=".4" fill="#224866"><path opacity=".4" d="M890.659 280.33a4.807 4.807 0 00-2.558-3.328 20.584 20.584 0 00-5.763-1.849c-3.082-.185-4.407 2.403-7.273 3.389-2.866.987-2.527-.678-4.622-2.034a6.934 6.934 0 00-10.077 2.343 9.24 9.24 0 00-13.467 2.434s-6.102-4.746-10.447 3.267c-2.003 3.605 0 12.665.462 16.579a147.078 147.078 0 006.965 29.276c.647 1.88 4.037 6.163 3.945 8.012l-1.387 28.136a78.64 78.64 0 00-.74 14.699c.339 2.281-.308 1.788 2.311 3.082a38.487 38.487 0 0016.272 3.852 43.46 43.46 0 0013.929-1.757c2.403-.739 5.054-2.003 5.67-4.437a9.255 9.255 0 00-.154-3.698c-1.695-11.402-4.962-22.342-7.427-33.898l13.313-19.6.493-22.496c0-4.961.308-9.954.431-14.946.303-2.33.345-4.687.124-7.026z"/><path opacity=".4" d="M914.265 497.156l-31.156-133.744 5.794-.37v-9.399H832.57l3.328 12.819 4.653-.308-18.86 140.925L828.564 526h97.657l-11.956-28.844zM839.01 172.626a32.66 32.66 0 019.245-16.456 44.547 44.547 0 0113.59-8.598 92.664 92.664 0 0112.511-4.53 73.541 73.541 0 01-2.218 12.326 96.858 96.858 0 01-5.763 17.566 34.172 34.172 0 01-10.478 13.682c-8.937 6.04-19.414-.585-16.887-13.99z"/><path opacity=".4" d="M898.64 182.086c-15.408-7.272-29.245-2.403-38.613 3.421a30.14 30.14 0 01-22.774 3.667c-10.816-2.558-25.855-2.773-38.181 9.245-16.58 16.241-16.302 40.062-8.907 60.709a118.017 118.017 0 0025.178 42.219c11.063 11.371 30.385 22.126 46.225 13.713a23.756 23.756 0 0115.747-2.496c25.701 5.116 38.891-25.085 44.253-44.715 5.577-20.555 7.858-44.992-1.726-64.715a44.684 44.684 0 00-21.202-21.048z"/><path opacity=".4" d="M889.272 324.952l11.186-14.576-9.522-22.958-10.632-5.054-6.163 10.108 7.303 7.272-5.608 17.35 13.436 7.858z"/></g><path d="M878.331 263.411a4.805 4.805 0 00-2.557-3.482 20.504 20.504 0 00-5.794-1.849c-3.081-.185-4.376 2.404-7.242 3.39-2.866.986-2.527-.678-4.622-2.034a6.944 6.944 0 00-5.563-1.085 6.921 6.921 0 00-4.514 3.427 9.24 9.24 0 00-10.813-.319 9.244 9.244 0 00-2.654 2.754s-6.102-4.592-10.447 3.544c-2.003 3.605 0 12.665.462 16.579a149.124 149.124 0 006.965 29.152c.647 1.88 4.068 6.164 3.975 8.013-.462 9.245-.955 18.767-1.417 28.135a84.22 84.22 0 00-.74 14.7c.339 2.28-.308 1.787 2.342 3.082a37.971 37.971 0 0016.24 3.821 42.681 42.681 0 0013.96-1.726c2.404-.74 5.054-2.003 5.671-4.438a10.006 10.006 0 00-.154-3.698c-1.695-11.402-4.962-22.342-7.427-33.898l13.313-19.599.462-22.496c0-4.962.277-9.954.431-14.946.303-2.331.345-4.687.123-7.027z" fill="#D6B493"/><path d="M901.937 480.237l-31.155-133.744 5.763-.37v-9.399h-56.302l3.328 12.82 4.653-.308-18.86 140.924 6.872 18.922h97.658l-11.957-28.845z" fill="#F2CC76"/><path d="M826.683 155.707a32.414 32.414 0 019.245-16.456 44.816 44.816 0 0113.682-8.721 94.64 94.64 0 0112.419-4.53 73.7 73.7 0 01-2.249 12.327 94.476 94.476 0 01-5.732 17.565 34.514 34.514 0 01-10.509 13.683c-8.906 6.163-19.383-.432-16.856-13.868z" fill="#6BAC8F"/><path d="M886.313 165.168c-15.408-7.273-29.245-2.404-38.613 3.421a30.202 30.202 0 01-22.805 3.636c-10.816-2.558-25.824-2.774-38.181 9.245-16.549 16.24-16.272 40.062-8.876 60.709a117.477 117.477 0 0025.147 42.218c11.094 11.372 30.416 22.127 46.225 13.714a23.756 23.756 0 0115.747-2.496c25.701 5.115 38.891-25.085 44.222-44.715 5.609-20.555 7.889-44.992-1.695-64.715a44.682 44.682 0 00-21.171-21.017z" fill="#B22D49"/><path d="M876.944 308.003l11.187-14.545-9.522-22.959-10.632-5.054-6.164 10.077 7.273 7.304-5.608 17.35 13.466 7.827z" fill="#D6B493"/></g><defs><clipPath id="clip0"><path fill="#fff" d="M0 10h214v520H0z"/></clipPath><clipPath id="clip1"><path fill="#fff" d="M269 129h137.461v400H269z"/></clipPath><clipPath id="clip2"><path fill="#fff" d="M542 174h106.017v350H542z"/></clipPath><clipPath id="clip3"><path fill="#fff" d="M1007 0h189.199v520H1007z"/></clipPath><clipPath id="clip4"><path fill="#fff" d="M773 126h153.405v400H773z"/></clipPath></defs></svg>