<svg width="536" height="462" viewBox="0 0 536 462" fill="none" xmlns="http://www.w3.org/2000/svg">
<g clip-path="url(#clip0)">
<path d="M88.5407 74.9507H9.60986V145.04H88.5407V74.9507Z" fill="#D0CDE1"/>
<path d="M88.5407 201.112H9.60986V271.201H88.5407V201.112Z" fill="#D0CDE1"/>
<path d="M342.159 74.9507H263.228V145.04H342.159V74.9507Z" fill="#D0CDE1"/>
<path d="M342.159 201.112H263.228V271.201H342.159V201.112Z" fill="#D0CDE1"/>
<path d="M216.246 74.9507H137.315V145.04H216.246V74.9507Z" fill="#3F3D56"/>
<path d="M216.246 201.112H137.315V271.201H216.246V201.112Z" fill="#3F3D56"/>
<path d="M202.634 138.733L151.642 137.578C157.749 117.817 159.066 99.0023 152.908 81.666L203.9 82.8206C198.742 101.049 198.306 120.29 202.634 138.733Z" fill="#6C63FF"/>
<path d="M164.966 92.0822L164.938 93.311L191.355 93.9092L191.383 92.6804L164.966 92.0822Z" fill="white"/>
<path d="M164.854 96.9972L164.826 98.2261L191.244 98.8242L191.272 97.5954L164.854 96.9972Z" fill="white"/>
<path d="M164.743 101.913L164.715 103.142L191.133 103.74L191.16 102.511L164.743 101.913Z" fill="white"/>
<path d="M164.632 106.828L164.604 108.057L191.021 108.655L191.049 107.426L164.632 106.828Z" fill="white"/>
<path d="M164.52 111.743L164.493 112.972L190.91 113.57L190.938 112.341L164.52 111.743Z" fill="white"/>
<path d="M164.409 116.659L164.381 117.888L190.799 118.486L190.826 117.257L164.409 116.659Z" fill="white"/>
<path d="M164.298 121.574L164.27 122.803L190.687 123.401L190.715 122.172L164.298 121.574Z" fill="white"/>
<path d="M164.187 126.489L164.159 127.718L190.576 128.316L190.604 127.088L164.187 126.489Z" fill="white"/>
<path d="M217.255 85.0747C225.426 85.0747 232.05 78.4501 232.05 70.2781C232.05 62.1061 225.426 55.4814 217.255 55.4814C209.083 55.4814 202.459 62.1061 202.459 70.2781C202.459 78.4501 209.083 85.0747 217.255 85.0747Z" fill="#6C63FF"/>
<path d="M216.727 77.4881L211.124 70.6384L212.005 69.9176L216.644 75.5887L224.751 63.6978L225.691 64.3388L216.727 77.4881Z" fill="white"/>
<path d="M244.509 462C379.547 462 489.017 456.422 489.017 449.54C489.017 442.658 379.547 437.08 244.509 437.08C109.47 437.08 0 442.658 0 449.54C0 456.422 109.47 462 244.509 462Z" fill="#D0CDE1"/>
<path d="M471.016 429.633L528.692 343.855L471.134 438.862L471.254 448.514C467.044 448.546 462.874 448.476 458.746 448.303L461.606 324.23L461.528 323.273L461.633 323.088L461.907 311.364L398.745 219.65L461.833 302.589L462.056 305.067L464.217 211.324L409.662 116.239L464.372 194.857L463.801 0.646407L463.803 0L463.821 0.63572L467.443 153.699L517.163 91.5249L467.605 166.886L468.691 250.736L514.443 168.901L468.859 263.063L469.463 309.689L536 195.694L469.665 325.954L471.016 429.633Z" fill="#D0CDE1"/>
<path d="M212.16 371.795L169.238 344.239C184.746 330.554 195.671 315.181 199.447 297.175L242.369 324.731C228.47 337.602 218.075 353.798 212.16 371.795Z" fill="#6C63FF"/>
<path d="M204.312 312.349L203.648 313.384L225.885 327.66L226.549 326.625L204.312 312.349Z" fill="white"/>
<path d="M201.657 316.487L200.993 317.521L223.229 331.798L223.893 330.763L201.657 316.487Z" fill="white"/>
<path d="M199.001 320.624L198.337 321.658L220.574 335.934L221.238 334.9L199.001 320.624Z" fill="white"/>
<path d="M196.345 324.762L195.681 325.796L217.918 340.072L218.582 339.038L196.345 324.762Z" fill="white"/>
<path d="M193.69 328.899L193.026 329.933L215.262 344.209L215.926 343.175L193.69 328.899Z" fill="white"/>
<path d="M191.034 333.036L190.37 334.071L212.607 348.347L213.27 347.312L191.034 333.036Z" fill="white"/>
<path d="M188.378 337.174L187.714 338.208L209.951 352.484L210.615 351.45L188.378 337.174Z" fill="white"/>
<path d="M185.722 341.311L185.058 342.346L207.295 356.622L207.959 355.587L185.722 341.311Z" fill="white"/>
<path d="M120.878 457.859L131.599 437.08C151.382 440.334 154.874 439.669 172.162 437.425L176.759 459.977C158.27 457.176 139.525 456.465 120.878 457.859Z" fill="#6C63FF"/>
<path d="M165.604 454.112L165.268 442.428L166.496 442.474L166.832 454.158L165.604 454.112Z" fill="white"/>
<path d="M160.692 453.926L160.355 442.242L161.584 442.289L161.92 453.972L160.692 453.926Z" fill="white"/>
<path d="M155.779 453.74L155.443 442.056L156.671 442.102L157.007 453.786L155.779 453.74Z" fill="white"/>
<path d="M151.309 441.87L150.866 453.553L152.094 453.6L152.537 441.916L151.309 441.87Z" fill="white"/>
<path d="M146.396 441.684L145.954 453.367L147.182 453.414L147.625 441.73L146.396 441.684Z" fill="white"/>
<path d="M141.041 453.181L142.263 441.498L143.49 441.544L142.269 453.228L141.041 453.181Z" fill="white"/>
<path d="M136.128 452.995L137.35 441.312L138.578 441.358L137.357 453.041L136.128 452.995Z" fill="white"/>
<path d="M131.216 452.809L132.437 441.125L133.665 441.172L132.444 452.856L131.216 452.809Z" fill="white"/>
<path d="M198.177 277.042L198.955 284.83C198.955 284.83 192.726 307.414 202.07 305.856C211.414 304.299 208.3 284.83 208.3 284.83L206.742 278.6L198.177 277.042Z" fill="#FFB8B8"/>
<path d="M297.849 277.821L297.07 285.609C297.07 285.609 303.3 308.193 293.955 306.635C284.611 305.078 287.726 285.609 287.726 285.609L289.283 279.378L297.849 277.821Z" fill="#FFB8B8"/>
<path d="M220.369 424.619L218.033 440.973L234.386 439.416L232.049 423.062L220.369 424.619Z" fill="#FFB8B8"/>
<path d="M306.804 424.619L309.14 440.973L292.787 439.416L295.124 423.062L306.804 424.619Z" fill="#FFB8B8"/>
<path d="M217.644 269.254C217.644 269.254 213.751 270.812 217.644 329.998L219.201 426.566H234.775L241.005 340.901L249.57 288.723L273.71 356.476L293.177 428.902L308.751 425.008L288.505 332.334C288.505 332.334 292.398 278.599 278.382 269.254C264.365 259.909 217.644 269.254 217.644 269.254Z" fill="#2F2E41"/>
<path d="M221.537 435.911C221.537 435.911 221.214 428.829 219.818 428.476C218.422 428.123 208.3 436.69 208.3 436.69C208.3 436.69 197.398 435.132 198.177 446.814C198.955 458.495 214.529 454.601 214.529 454.601C214.529 454.601 217.644 461.61 223.873 461.61C230.103 461.61 239.447 461.61 240.226 456.938C241.005 452.265 236.332 431.238 234.775 432.017C233.218 432.796 229.324 432.017 229.324 432.017L221.537 435.911Z" fill="#2F2E41"/>
<path d="M305.636 435.911C305.636 435.911 305.959 428.829 307.355 428.476C308.751 428.123 318.874 436.69 318.874 436.69C318.874 436.69 329.775 435.132 328.997 446.814C328.218 458.495 312.644 454.601 312.644 454.601C312.644 454.601 309.529 461.61 303.3 461.61C297.07 461.61 287.726 461.61 286.947 456.938C286.169 452.265 290.841 431.238 292.398 432.017C293.955 432.796 297.849 432.017 297.849 432.017L305.636 435.911Z" fill="#2F2E41"/>
<path d="M248.013 150.881C256.184 150.881 262.808 144.256 262.808 136.084C262.808 127.912 256.184 121.288 248.013 121.288C239.842 121.288 233.218 127.912 233.218 136.084C233.218 144.256 239.842 150.881 248.013 150.881Z" fill="#FFB8B8"/>
<path d="M258.136 138.421C258.136 138.421 258.915 159.448 262.808 161.784C266.701 164.12 239.447 161.784 239.447 161.784L242.562 143.872L258.136 138.421Z" fill="#FFB8B8"/>
<path d="M264.365 159.447C264.365 159.447 250.349 152.438 237.111 157.111C223.873 161.784 216.865 167.235 216.865 167.235L225.431 212.404C225.431 212.404 209.078 271.59 213.75 273.148C218.423 274.706 273.71 268.475 279.16 273.148C284.611 277.821 284.611 267.697 284.611 267.697C284.611 267.697 276.824 248.227 278.382 231.873C279.939 215.519 279.939 210.068 279.939 210.068L288.505 173.465L264.365 159.447Z" fill="#575A89"/>
<path d="M222.316 167.235H216.865C216.865 167.235 208.3 172.687 208.3 180.474C208.3 188.262 200.513 231.095 200.513 231.095L195.841 279.378L209.078 281.715L220.759 217.855L229.324 200.722L222.316 167.235Z" fill="#575A89"/>
<path d="M273.709 173.465H288.505C288.505 173.465 293.177 178.138 295.513 189.041C297.849 199.944 300.185 242.776 300.185 242.776L298.628 281.715H286.947L285.39 231.094L277.603 198.386L273.709 173.465Z" fill="#575A89"/>
<path d="M235.422 135.064L238.554 143.066C239.838 146.346 241.308 149.854 244.316 151.685C248.031 153.944 252.991 152.842 256.584 150.395C259.816 148.193 262.297 145.055 263.693 141.402C265.09 137.75 265.335 133.757 264.396 129.961C263.457 126.164 261.38 122.746 258.442 120.165C255.504 117.585 251.847 115.965 247.961 115.523L247.813 118.202L244.526 115.447C244.283 115.864 243.949 116.22 243.548 116.49C243.147 116.759 242.691 116.934 242.213 117.002C241.735 117.069 241.248 117.028 240.788 116.88C240.329 116.732 239.909 116.483 239.559 116.149C240.423 117.939 239.426 120.122 237.988 121.493C236.22 123.177 231.164 125.201 231.374 128.212C231.514 130.221 234.607 132.981 235.422 135.064Z" fill="#2F2E41"/>
</g>
<defs>
<clipPath id="clip0">
<rect width="536" height="462" fill="white"/>
</clipPath>
</defs>
</svg>
